<?xml version="1.0" encoding="utf-8"?>
<!-- Generator: Adobe Illustrator 25.2.1, SVG Export Plug-In . SVG Version: 6.00 Build 0)  -->
<svg version="1.1" id="レイヤー_1" xmlns="http://www.w3.org/2000/svg" xmlns:xlink="http://www.w3.org/1999/xlink" x="0px"
	 y="0px" viewBox="0 0 192.77 42.83" style="enable-background:new 0 0 192.77 42.83;" xml:space="preserve">
<style type="text/css">
	.st0{fill:#0068B6;}
	.st1{fill:#231815;}
</style>
<g>
	<path class="st0" d="M47.31,13.84c-1.12-1.25-6.62-4.14-11.44-4.59c1.04-3.87-0.07-7.6-2.85-8.84c-3.22-1.43-7.43,1.01-9.42,5.47
		c-0.62,1.4-0.96,2.84-1.02,4.19c-2.38,0.42-8.03,1.69-12.26,4.91c-4.86,3.7-7.94,7.24-9.24,10.74c-1.31,3.5-1.95,8.99,1.14,12.25
		c3.04,3.19,7.4,3.96,11.56,2.61c1.24,0.33,2.8,0.71,3.41,0.71c1.07,0,10.07,0.95,16.88-1.49c7.81-2.8,12.7-6.44,15.63-13.36
		C52.62,19.51,48.44,15.09,47.31,13.84 M16.77,39.31c-0.06-0.01-0.14-0.02-0.22-0.03c2.45-1.56,3.79-3.8,5.61-6.28
		c1.59-2.16,1.78-2.12,2.12-1.95c0.33,0.17,1,0.65,0.98,2.04c-0.07,2.95-1.55,5.53-2.12,6.34c-0.02,0.03-0.03,0.04-0.04,0.06
		c-0.24,0.06-0.45,0.1-0.59,0.12C20.77,39.85,18.02,39.61,16.77,39.31 M42.18,25.72c-1.37,2.68-1.97,3.99-3.28,5.3
		c-1.27,1.27-2.6,2.71-4.62,4.09c-0.03-2.22-0.18-5.38-0.65-7.72c-0.88-4.3-2.77-8.31-5.05-8.71c-2.28-0.41-3.58,0.06-5.61,3.91
		c-2.31,4.38-5.77,8.71-8.71,10.82c-2.93,2.11-4.83,3.7-7.58,1.97c-1.7-1.07-1.75-6.25,1.37-11.87
		c3.21-5.78,11.07-10.38,14.64-11.46c0.36,2.07,1.42,3.74,3.11,4.49c3.07,1.38,7.06-0.81,9.15-4.91c0.96,0.16,2.22,0.48,3.34,1.08
		c2.21,1.19,3.29,2.74,4.17,5.07C43.45,20.3,43.73,22.66,42.18,25.72z"/>
	<g>
		<rect x="61.38" y="1.71" class="st1" width="7.81" height="23.6"/>
		<rect x="184.89" y="1.71" class="st1" width="7.8" height="23.6"/>
		<polygon class="st1" points="118.79,18.65 118.79,16.8 141.02,16.8 141.02,10.22 118.79,10.22 118.79,8.38 142.08,8.38 
			142.08,1.71 118.51,1.71 118.51,1.71 111.53,1.71 111.53,25.31 118.72,25.31 118.72,25.31 142.29,25.31 142.29,18.65 		"/>
		<path class="st1" d="M100.59,10.22L100.59,10.22l-19.32,0v0c-0.51-0.01-0.92-0.42-0.92-0.92c0-0.5,0.4-0.9,0.88-0.92h25.75V1.71
			H80.4l0,0c-4.13,0.05-7.46,3.41-7.46,7.55c0,4.17,3.38,7.55,7.54,7.55c0.02,0,0.04,0,0.06,0H99.8v0.01c0.5,0,0.91,0.42,0.91,0.92
			c0,0.49-0.39,0.9-0.88,0.92H74.08v6.67h26.47c0.01,0,0.02,0,0.03,0c0.02,0,0.03,0,0.05,0h0.04l0,0c4.13-0.05,7.46-3.41,7.46-7.55
			C108.14,13.6,104.76,10.23,100.59,10.22z"/>
		<polygon class="st1" points="182.31,25.31 158.92,13.55 181.77,1.71 168.88,1.71 153.68,9.41 153.68,1.71 146.19,1.71 
			146.19,25.31 153.68,25.31 153.68,17.5 169.41,25.31 		"/>
	</g>
	<g>
		<rect x="60.89" y="31.68" class="st1" width="2.95" height="8.97"/>
		<rect x="100.56" y="31.7" class="st1" width="2.95" height="8.97"/>
		<g>
			<path d="M192.51,38.07h-2.33c-0.14,0-0.26,0.12-0.26,0.26v2.04c0,0.15,0.12,0.26,0.26,0.26h2.33c0.15,0,0.26-0.12,0.26-0.26
				v-2.04C192.77,38.19,192.65,38.07,192.51,38.07z"/>
			<path d="M189.49,35.89c0-4.61-2.68-4.21-2.68-4.21s-7.72,0-8.17,0c-0.45,0-0.47,0.27-0.47,0.27v4.26v1.14v3.06
				c0,0,0.03,0.27,0.47,0.27c0.45,0,8.17,0,8.17,0s2.51,0.28,2.68-3.86l0-0.24V35.89z M186.88,36.32c0,2.23-1.21,2.16-1.21,2.16
				s-3.66,0-4.36,0c-0.7,0-0.68-0.5-0.68-0.5v-0.99V36.7v-0.45v-0.41v-1.61c0,0-0.02-0.42,0.68-0.42c0.7,0,4.36,0,4.36,0
				s1.21-0.06,1.21,1.82V36.32z"/>
			<path d="M177.03,31.68h-9.39c-0.22,0-0.4,0.17-0.4,0.39v1.38c0,0.22,0.18,0.4,0.4,0.4h3.09c0,0,0.32,0.01,0.32,0.35v6.06
				c0,0.22,0.17,0.4,0.39,0.4h1.82c0.22,0,0.39-0.18,0.39-0.4v-6.06c0-0.28,0.34-0.35,0.34-0.35h3.03c0.22,0,0.39-0.18,0.39-0.4
				v-1.38C177.42,31.85,177.25,31.68,177.03,31.68z"/>
			<path d="M169.82,38.32h-5.4c-0.18,0-0.18-0.21-0.18-0.21v-6.04c0-0.22-0.18-0.39-0.4-0.39h-1.92c-0.22,0-0.4,0.17-0.4,0.39v8.18
				c0,0.22,0.18,0.4,0.4,0.4h1.28h1.26h5.37c0.22,0,0.4-0.18,0.4-0.4v-1.54C170.22,38.49,170.04,38.32,169.82,38.32z"/>
			<path d="M153.86,38.11h-2.33c-0.15,0-0.26,0.12-0.26,0.26v2.04c0,0.14,0.12,0.26,0.26,0.26h2.33c0.14,0,0.26-0.12,0.26-0.26
				v-2.04C154.12,38.23,154,38.11,153.86,38.11z"/>
			<path d="M157.65,38.29c0-0.14-0.11-0.26-0.25-0.26h-2.18c-0.13,0-0.25,0.12-0.25,0.26v2.05c0,0.14,0.11,0.26,0.25,0.26h0.15
				c0,0,0.56,0.29-0.22,0.78l-0.44,0.03c0,0-0.12,0.08-0.12,0.66c0,0.57,0.07,0.67,0.07,0.67s0.05,0.08,0.28,0.08
				c0.24,0,1.28,0,1.28,0s1.45-0.15,1.45-1.4c0-1.24-0.03-1.36-0.03-1.36V38.29z"/>
			<path d="M148.13,31.68h-6.57c-1.45,0-2.63,1.18-2.63,2.63v3.7c0,1.45,1.18,2.63,2.63,2.63h6.57c1.45,0,2.64-1.18,2.64-2.63v-3.7
				C150.77,32.85,149.58,31.68,148.13,31.68z M148.08,37.13c0,0.76-0.66,1.38-1.47,1.38h-3.67c-0.81,0-1.47-0.62-1.47-1.38v-1.94
				c0-0.76,0.66-1.38,1.47-1.38h3.67c0.81,0,1.47,0.62,1.47,1.38V37.13z"/>
			<path d="M137.69,37.45c-0.47,0-1.86,0-1.86,0s-0.17,0.07-0.25,0.31c-0.08,0.24,0.08,0.61-1.14,0.63c0,0-1.62-0.01-3.07-0.01
				c-1.45,0-1.38-1.2-1.38-1.2v-0.61v-0.84v-0.6c0,0-0.08-1.2,1.38-1.2c1.45,0,3.07-0.02,3.07-0.02c1.22,0.02,1.06,0.4,1.14,0.63
				c0.08,0.24,0.25,0.31,0.25,0.31s1.39,0,1.86,0c0.46,0,0.52-0.31,0.52-0.31v-0.88c0-2.07-3.46-2-3.46-2h-3.51
				c-3.78,0-3.97,2.08-3.94,2.7v3.58c-0.02,0.65,0.2,2.68,3.94,2.68h3.51c0,0,3.46,0.07,3.46-2v-0.88
				C138.21,37.76,138.16,37.45,137.69,37.45z"/>
			<path d="M121.85,38.92c0,0-1.26-0.59-1.49-0.72c-0.23-0.13-0.25-0.44-0.25-0.44s0.07-1.08,0.05-1.42
				c-0.02-0.33-0.33-0.38-0.33-0.38s-0.95-0.02-1.38,0c-0.44,0.03-0.39,0.26-0.39,0.26s-0.03,0.13-0.05,0.41
				c-0.03,0.28-0.33,0.2-0.33,0.2s-2.77-1.21-3.96-1.98c-1.18-0.77-0.23-1.1,0.05-1.13c0.28-0.03,1.67-0.03,2.46,0
				c0.8,0.02,0.8,0.49,0.85,0.64c0.05,0.15,0.28,0.23,0.28,0.23s1.49,0,1.72,0c0.23,0,0.25-0.16,0.25-0.16v-0.87
				c-0.13-1.36-1.49-1.59-1.92-1.67c-0.44-0.08-2.39-0.13-2.39-0.13s-0.54-0.02-2.36,0.05c-1.83,0.08-2.03,1.29-2.03,1.29
				s-0.29,1.18,0.05,1.82c0.33,0.64,0.33,0.64,0.33,0.64s-0.06,0.13-0.35,0.21c-0.29,0.08-1.04,0.47-1.02,2.27
				c0.02,1.8,0.74,2.48,3.66,2.57h1.89c2.87-0.06,3.29-0.25,3.75-0.54c0.47-0.28,0.8-0.15,0.8-0.15s0.82,0.44,1.05,0.56
				c0.23,0.13,0.51-0.08,0.51-0.08s0.31-0.51,0.49-0.97C121.98,39,121.85,38.92,121.85,38.92z M116.27,38.82
				c-0.97-0.03-3.29-0.03-3.29-0.03s-0.87,0-0.87-0.69c0-0.7,0.05-1.64,1.11-1.24l3.49,1.65C116.71,38.51,117.25,38.85,116.27,38.82
				z"/>
		</g>
		<path class="st1" d="M90.9,38.22v-0.85c0,0,0.07-0.11,0.29-0.11c0.22,0,0.42,0,0.42,0c0.64,0,0.82,0.22,0.82,0.22l3.69,3.16h3.89
			c0,0-4.51-3.83-4.92-4.17c-0.42-0.34,0.03-0.64,0.03-0.64l4.57-4.03h-3.82l-3.37,3.1c0,0-0.23,0.15-0.75,0.15h-0.48
			c-0.38,0-0.38-0.1-0.38-0.1V32.2c0-0.22-0.17-0.39-0.39-0.39h-1.94c-0.22,0-0.4,0.18-0.4,0.39v6.09v2.14c0,0,0.05,0.21,0.4,0.21
			c0.35,0,2.02,0,2.02,0s0.28,0.02,0.28-0.26C90.88,40.1,90.9,38.22,90.9,38.22z"/>
		<path class="st1" d="M80.14,38.45h6.29c0.22,0,0.39,0.18,0.39,0.4v1.4c0,0.22-0.18,0.4-0.39,0.4h-6.26h-1.22h-1.37
			c-0.22,0-0.39-0.18-0.39-0.4v-8.18c0-0.22,0.18-0.39,0.39-0.39h0.7h1.98h6.2c0.22,0,0.4,0.17,0.4,0.39v1.34
			c0,0.22-0.18,0.4-0.4,0.4h-6.3c0,0-0.28-0.02-0.28,0.23v0.98c0,0,0,0.14,0.34,0.14h5.91c0.22,0,0.39,0.18,0.39,0.4v1.07
			c0,0.22-0.18,0.39-0.39,0.39h-5.91c0,0-0.34-0.02-0.34,0.16c0,0.19,0,1.1,0,1.1S79.83,38.45,80.14,38.45z"/>
		<path class="st1" d="M73.16,34.31c-0.02-0.36-0.7-0.74-2.01-0.74c-2.02,0-3.11,0.06-3.11,0.66c0,0.6-0.17,0.77,1.15,0.87
			c1.31,0.11,4.32,0.16,4.32,0.16s2.4,0.06,2.4,2.46c0,2.4-1.31,2.92-2.95,2.92c-1.64,0-3.66,0-3.66,0c-4.38,0-3.94-2.04-3.94-2.52
			c0-0.49,0.29-0.42,0.29-0.42l0.78,0.02h1.05c0,0,0.34,0,0.39,0.34c0.05,0.34,0.11,0.59,1.04,0.65c0.92,0.06,3.31,0.18,3.96-0.12
			c0.65-0.29,0.68-1.23-0.54-1.31c-1.21-0.08-3.89-0.29-3.89-0.29s-1.49-0.03-2.14-0.44c-0.65-0.41-0.93-1.29-0.93-2.48
			c0,0,0-1.19,1.3-1.89c0,0,0.54-0.37,2.28-0.37c1.74,0,3.84-0.02,4.4,0.08c0.57,0.09,2.07,0.37,2.19,1.55
			c0.12,1.18,0.07,0.97,0.07,0.97s0.12,0.21-0.47,0.26c-0.58,0.04-1.57,0.04-1.57,0.04S73.18,34.68,73.16,34.31z"/>
	</g>
</g>
</svg>
