<?xml version="1.0" encoding="UTF-8"?><svg id="_レイヤー_1" xmlns="http://www.w3.org/2000/svg" viewBox="0 0 198.98 47.23"><defs><style>.cls-1{fill:#3d337b;}.cls-1,.cls-2,.cls-3,.cls-4,.cls-5,.cls-6,.cls-7,.cls-8,.cls-9,.cls-10,.cls-11,.cls-12,.cls-13,.cls-14,.cls-15,.cls-16,.cls-17,.cls-18,.cls-19,.cls-20,.cls-21,.cls-22,.cls-23,.cls-24,.cls-25,.cls-26,.cls-27,.cls-28,.cls-29,.cls-30,.cls-31,.cls-32,.cls-33,.cls-34,.cls-35,.cls-36,.cls-37,.cls-38,.cls-39,.cls-40,.cls-41,.cls-42,.cls-43,.cls-44,.cls-45,.cls-46,.cls-47,.cls-48,.cls-49,.cls-50,.cls-51,.cls-52,.cls-53,.cls-54,.cls-55,.cls-56,.cls-57,.cls-58,.cls-59,.cls-60,.cls-61,.cls-62,.cls-63,.cls-64,.cls-65,.cls-66,.cls-67,.cls-68,.cls-69,.cls-70,.cls-71,.cls-72,.cls-73,.cls-74,.cls-75,.cls-76,.cls-77,.cls-78,.cls-79,.cls-80,.cls-81,.cls-82,.cls-83,.cls-84,.cls-85,.cls-86,.cls-87,.cls-88,.cls-89,.cls-90,.cls-91,.cls-92,.cls-93,.cls-94,.cls-95,.cls-96,.cls-97,.cls-98,.cls-99,.cls-100,.cls-101,.cls-102,.cls-103,.cls-104,.cls-105,.cls-106,.cls-107,.cls-108,.cls-109,.cls-110,.cls-111,.cls-112,.cls-113,.cls-114,.cls-115,.cls-116,.cls-117,.cls-118,.cls-119,.cls-120,.cls-121,.cls-122,.cls-123,.cls-124,.cls-125,.cls-126,.cls-127,.cls-128,.cls-129,.cls-130,.cls-131,.cls-132,.cls-133,.cls-134,.cls-135,.cls-136,.cls-137,.cls-138,.cls-139,.cls-140,.cls-141,.cls-142,.cls-143,.cls-144,.cls-145,.cls-146,.cls-147,.cls-148,.cls-149,.cls-150,.cls-151,.cls-152,.cls-153,.cls-154,.cls-155,.cls-156,.cls-157,.cls-158,.cls-159,.cls-160,.cls-161,.cls-162,.cls-163,.cls-164,.cls-165,.cls-166,.cls-167,.cls-168,.cls-169,.cls-170,.cls-171,.cls-172,.cls-173,.cls-174,.cls-175,.cls-176,.cls-177,.cls-178{stroke-width:0px;}.cls-2{fill:#481a06;}.cls-3{fill:#f3f3e7;}.cls-4{fill:#2c1f11;}.cls-5{fill:#bda688;}.cls-6{fill:#e6ab39;}.cls-7{fill:#d0a763;}.cls-8{fill:#c49f46;}.cls-9{fill:#ccae63;}.cls-10{fill:#decfac;}.cls-11{fill:#47230e;}.cls-12{fill:#d8d8db;}.cls-13{fill:#2a1f14;}.cls-14{fill:#b38c75;}.cls-15{fill:#441e0b;}.cls-16{fill:#c2b76d;}.cls-17{fill:#caac96;}.cls-18{fill:#420913;}.cls-19{fill:#191817;}.cls-20{fill:#b29246;}.cls-21{fill:#f3f1f0;}.cls-22{fill:#ded6b2;}.cls-23{fill:#1d1b2d;}.cls-24{fill:#e0312a;}.cls-25{fill:#412a24;}.cls-26{fill:#d1ae6a;}.cls-27{fill:#eaad2f;}.cls-28{fill:#c3dcd4;}.cls-29{fill:#f9f3f1;}.cls-30{fill:#ddaa3e;}.cls-31{fill:#fdad34;}.cls-32{fill:#282013;}.cls-33{fill:#3c3477;}.cls-34{fill:#41200e;}.cls-35{fill:#ea7a30;}.cls-36{fill:#ae8d4b;}.cls-37{fill:#2e2214;}.cls-38{fill:#d3a04d;}.cls-39{fill:#9b7c43;}.cls-40{fill:#4e4b4a;}.cls-41{fill:#3c3378;}.cls-42{fill:#462513;}.cls-43{fill:#e8a930;}.cls-44{fill:#e0302c;}.cls-45{fill:#c7916f;}.cls-46{fill:#f0ad2c;}.cls-47{fill:#34220d;}.cls-48{fill:#864c23;}.cls-49{fill:#191816;}.cls-50{fill:#d1ab74;}.cls-51{fill:#3c3376;}.cls-52{fill:#cd8654;}.cls-53{fill:#f5f5f3;}.cls-54{fill:#dab75c;}.cls-55{fill:#e4a934;}.cls-56{fill:#c7a57f;}.cls-57{fill:#bb963c;}.cls-58{fill:#f9f7f5;}.cls-59{fill:#201c2a;}.cls-60{fill:#db9e44;}.cls-61{fill:#def3f2;}.cls-62{fill:#362f2c;}.cls-63{fill:#edeaea;}.cls-64{fill:#1b2211;}.cls-65{fill:#e7a732;}.cls-66{fill:#d09a32;}.cls-67{fill:#864c24;}.cls-68{fill:#b48b3a;}.cls-69{fill:#b7913c;}.cls-70{fill:#eae1e4;}.cls-71{fill:#4c240d;}.cls-72{fill:#1c1817;}.cls-73{fill:#281f18;}.cls-74{fill:#421e0a;}.cls-75{fill:#461e0d;}.cls-76{fill:#ba8b7c;}.cls-77{fill:#271c0f;}.cls-78{fill:#49240d;}.cls-79{fill:#695a40;}.cls-80{fill:#ee7c2e;}.cls-81{fill:#dcb362;}.cls-82{fill:#422a24;}.cls-83{fill:#f3edef;}.cls-84{fill:#ef7c2d;}.cls-85{fill:#241c1a;}.cls-86{fill:#000;}.cls-87{fill:#221f1b;}.cls-88{fill:#f8b02a;}.cls-89{fill:#bfb694;}.cls-90{fill:#b7a38b;}.cls-91{fill:#e3312a;}.cls-92{fill:#bdb6aa;}.cls-93{fill:#b6985c;}.cls-94{fill:#e0a93a;}.cls-95{fill:#d2a74c;}.cls-96{fill:#271c1a;}.cls-97{fill:#e17a31;}.cls-98{fill:#d49d39;}.cls-99{fill:#241d19;}.cls-100{fill:#321f19;}.cls-101{fill:#e4a236;}.cls-102{fill:#bcb4b3;}.cls-103{fill:#cdcfce;}.cls-104{fill:#3b326d;}.cls-105{fill:#c7946f;}.cls-106{fill:#c27b4c;}.cls-107{fill:#e1b361;}.cls-108{fill:#e6a736;}.cls-109{fill:#401f0d;}.cls-110{fill:#c59c59;}.cls-111{fill:#38305c;}.cls-112{fill:#eaad30;}.cls-113{fill:#1e1a1a;}.cls-114{fill:#b4a47d;}.cls-115{fill:#522e12;}.cls-116{fill:#aa3134;}.cls-117{fill:#704e35;}.cls-118{fill:#b29a5e;}.cls-119{fill:#dfb65a;}.cls-120{fill:#ef7c2e;}.cls-121{fill:#714048;}.cls-122{fill:#3c3475;}.cls-123{fill:#ecaa2e;}.cls-124{fill:#f2b02a;}.cls-125{fill:#c1aa79;}.cls-126{fill:#825f4d;}.cls-127{fill:#ceb573;}.cls-128{fill:#e7dbc3;}.cls-129{fill:#faf8f6;}.cls-130{fill:#d9b46a;}.cls-131{fill:#492a12;}.cls-132{fill:#c99d26;}.cls-133{fill:#d4a94b;}.cls-134{fill:#ae8f4f;}.cls-135{fill:#cad0c1;}.cls-136{fill:#33200a;}.cls-137{fill:#451f0c;}.cls-138{fill:#2b1910;}.cls-139{fill:#452723;}.cls-140{fill:#d1783c;}.cls-141{fill:#993134;}.cls-142{fill:#321b0c;}.cls-143{fill:#7d858b;}.cls-144{fill:#ac8b65;}.cls-145{fill:#3c230e;}.cls-146{fill:#852d2b;}.cls-147{fill:#271912;}.cls-148{fill:#a8724b;}.cls-149{fill:#352215;}.cls-150{fill:#1d1a16;}.cls-151{fill:#d6ab78;}.cls-152{fill:#2d2e1c;}.cls-153{fill:#b18870;}.cls-154{fill:#3d2321;}.cls-155{fill:#cbd1c3;}.cls-156{fill:#ada9aa;}.cls-157{fill:#f4f3f3;}.cls-158{fill:#1e1b2a;}.cls-159{fill:#e6b16e;}.cls-160{fill:#42200e;}.cls-161{fill:#c6b88d;}.cls-162{fill:#cfa569;}.cls-163{fill:#422c2c;}.cls-164{fill:#fdfcfb;}.cls-165{fill:#d09c2f;}.cls-166{fill:#486940;}.cls-167{fill:#c79e8b;}.cls-168{fill:#ebab55;}.cls-169{fill:#4f2525;}.cls-170{fill:#3d2209;}.cls-171{fill:#436938;}.cls-172{fill:#415e3f;}.cls-173{fill:#2c0e07;}.cls-174{fill:#272016;}.cls-175{fill:#3d3371;}.cls-176{fill:#d6a33f;}.cls-177{fill:#e0b049;}.cls-178{fill:#ad8b71;}</style></defs><path class="cls-49" d="M21.91,34.65c-2-.31-3.86-.97-5.47-2.25-.81-.65-1.43-1.45-1.64-2.45-.19-.94-.89-1.59-1.19-2.45-.08-.24-.25-.38-.57-.37-.97.03-1.62-.53-2.15-1.26-.05-.13-.13-.23-.26-.29h.01c-.05-.1-.15-.17-.22-.27v-.02c-.09-.06-.15-.13-.19-.22-.09-.04-.12-.1-.1-.19-.02-.13-.11-.22-.19-.32-.05-.08-.09-.15-.14-.23.11-.15.26-.19.43-.17.27.07.45.27.64.44.07.07.13.14.19.22.05.08.1.16.15.24.03.04.05.08.08.11.06.07.11.14.17.21.03.03.06.07.09.1.06.06.12.13.19.19.03.03.06.06.1.09.07.05.13.11.21.16.04.02.08.04.11.05.13.04.26.03.38-.02.22-.22.11-.49.1-.74-.02-.12-.02-.24-.03-.36-.02-1.04.03-2.07-.04-3.11-.03-.11-.06-.22-.11-.33-.07-.16-.12-.32-.14-.49,0-.11.04-.22.09-.32.29-.43.22-.92.21-1.4.03-.53-.29-.96-.39-1.45,0-.25.06-.46.29-.6.64-.04.93-.53,1.23-1,.23-.26.38-.56.51-.87.7-1,1.53-1.85,2.63-2.48.12-.04-.13-.18-.03-.05.04.06.02.09-.05.12-.4.17-.82.15-1.23.17-.33,0-.66.01-1-.02-.44-.09-.88-.18-.73-.81.09-.11.21-.19.34-.25,1.6-.3,3.22-.59,4.84-.59,1.13,0,2.03-.18,2.62-1.21.24-.07.39.05.53.22.23.43.56.71,1.08.7,1.28-.02,2.56.13,3.83-.1.67-.45.1-1.33.64-1.82.13-.06.25-.04.36.05.42.56.13,1.28.44,1.86,1.78.45,3.55.61,5.29-.16.21-.06.35.06.5.18.15.11.32.19.51.22,2.23,0,4.43.36,6.64.59.28.03.53.13.81.18,1.79.25,3.6.43,5.33,1.05.35.34,1.09,0,1.24.7,0,.39-.24.57-.58.65-1.39.04-2.71-.42-4.05-.68-1.68-.32-3.37-.47-5.11-.7,1.47,1.04,2.34,2.49,3.11,4.01.06.06.14.11.21.14,0,0,.12,0,.12,0,.08-.04.15-.08.22-.13.03-.03.07-.06.1-.09.07-.07.14-.14.21-.21.04-.04.08-.07.12-.1.14-.1.28-.17.45-.21.36-.06.71-.07,1.02.16.31.86-.44.75-.86.93-.09.05-.18.1-.27.16-.07.08-.14.16-.2.24-.19.32-.34.66-.5.99-.14.27-.17.58-.26.87-.03.08-.08.21,0,.23.16.04-.01.07,0-.1.1-.04.19-.04.29,0,.21.16.32.41.48.61.06.09.09.19.09.3-.1.3-.47.44-.47.81-.06.6,0,1.19-.02,1.79,0,.44-.06.86-.19,1.28-.02.34-.25.84.16.98.6.2.83-.48,1.23-.78.44-.43.75-.94,1.05-1.47.1-.2.21-.39.31-.59.05-.1.1-.2.15-.31.02-.05.05-.1.07-.16.23-1-.12-2.05.25-3.04.07-.1.16-.17.27-.21.24,0,.38.21.59.28,2.25-.74,4.35-1.73,5.95-3.55.03-.11.07-.22.1-.33.05-.17.13-.32.26-.44.15-.08.31-.1.47-.05.08.05.15.11.2.18.15.16.15-.02.2-.11.51-2.64-.07-5.15-.81-7.65-.3-1.01-.87-1.9-1.26-2.88,0-.34-.06-.73.46-.77,1.88,2.15,2.4,4.81,2.76,7.51.11.79.08,1.59.14,2.38.09,1.35-.46,2.44-1.4,3.36-1.74,1.73-3.91,2.68-6.22,3.36-.76.22-1.03.57-1.09,1.36-.13,1.89-1.09,3.39-2.49,4.62-.34.3-.75.67-1.21.59-1.44-.26-1.66.95-1.74,1.72-.3,3-2.39,4.22-4.79,5.21-.42.17-.88.27-1.32.4-.29.35-.7.44-1.12.51-.35.02-.64.23-.95.36-.56.12-1.09.29-1.47.74-.42.24-.84.5-1.29.06-.09-.18.24-.29.07-.48-.05.12.02.29-.15.38-.21.13-.43.11-.65.06-.56-.21-1.12-.44-1.74-.34-.42.12-.07.54-.28.74-.15.09-.31.11-.48.07-.33-.13-.52-.41-.77-.63-.27-.25-.61-.19-.93-.22-.44-.02-.84-.17-1.26-.28-.71-.3-1.61-.07-2.19-.74Z"/><path class="cls-72" d="M28.01,9.2h-.11s-.11,0-.11,0c-.51-.52-.29-1.18-.35-1.79-.11-1.15.25-2.33-.25-3.45-.85-.71-1.9-.33-2.84-.52-.33-.04-.64-.19-.98-.18-1.68-.15-3.34-.48-4.99-.84-.38-.07-.66-.38-1.05-.44-1.53-.49-3.06-.86-4.64-.21-.2-.05-.33-.16-.37-.37-.02-.17.12-.29.16-.45-.86.48-1.81.15-2.71.27-.98.13-1.8.64-2.66,1.06-.17.05-.34.07-.52.06-.32-.07-.62-.03-.87.23-.38.35-.82.62-1.21.95-.07.07-.15.14-.23.2-.07.07-.14.13-.22.2-.03.03-.07.06-.1.1-.06.07-.13.14-.19.21-.03.04-.06.08-.08.12-.05.09-.1.17-.15.25-.05.09-.1.18-.16.26-.16.22-.29.45-.42.7-1.3,2.54-1.93,5.23-1.78,8.09.03.48-.11,1.05.57,1.23.3.02.56-.12.82-.23.35-.15.71-.24,1.09-.23.32.03.63.08.8.41.03.7-.59.74-1.01.91-.84.34-.66.67-.09,1.1.9.68,1.94,1.12,2.93,1.64.85.44,1.74.8,2.52,1.37,1.15.74,1.3,1.98.37,2.91.02-1.78-1.18-2.32-2.63-2.79-1.75-.57-3.35-1.5-4.76-2.72C.56,16.2-.09,14.93.01,13.21c.15-2.53.48-5,1.58-7.3C3.28,2.4,6.16.56,9.97.15c2.44-.27,4.84-.01,7.2.72,3.74,1.16,7.59,1.63,11.49,1.77.52.05,1.26-.6,1.49.44-1.79.55-1.82,1.94-1.75,3.47.04.88.31,1.85-.38,2.65Z"/><path class="cls-19" d="M37.37,39.88c.78.75.36,1.52-.02,2.25-.21.42-.2.57.31.55.67-.03,1.34-.02,2,0,1.47.04,2.2.61,2.39,1.85.17,1.08-.35,1.72-1.77,2.15-1.69.51-3.38.33-5.06-.03-.46-.1-.77-.18-.98.31-.18.04-.27-.08-.35-.21-.09-.17-.17-.35-.28-.51-.17-.24-.35-.47-.64-.59-.62-.12-1.27-.42-1.71.34-.11.14-.23.26-.43.21-.43-.55-.44-1.34-1.03-1.8-.08-.21.06-.29.22-.36.11-.02.22-.02.34,0,.17.02.33.05.5.07.29.01.58.02.87,0,.67-.07.99-.37.73-1.08-.2-.51-.22-1.04-.18-1.58.02-.18.09-.35.2-.5.19-.14.34-.05.47.09.14.19.24.4.39.59.6.66,1.39.46,2.13.48.55,0,.77-.26.59-.81-.1-.32-.21-.65.06-.95.09-.1.19-.2.24-.33,0-.09-.02-.18-.04-.26-.02-.25-.03-.5.35-.38.15.11.3.22.44.34.09.06.17.12.25.18Z"/><path class="cls-150" d="M30.06,3.12c-.24-.81-.93-.34-1.4-.49,3.65-.41,7.24-1.09,10.78-2.06,2.73-.75,5.53-.79,8.28.06,1.33.41,2.54,1.03,3.54,2.01-.17.23-.41.27-.67.26-.12-.01-.24-.04-.35-.09-.49-.49-1.14-.41-1.75-.5-1.53-1.03-3.28-1.12-5.04-1.17-.29,0-.17.2-.2.33-.06.18-.19.28-.38.32-1.63-.71-3.21-.25-4.79.22-.29.12-.55.33-.87.4-1.73.26-3.43.71-5.18.85-.27.03-.53.14-.81.17-.43.03-.86.07-1.18-.31Z"/><path class="cls-158" d="M27.06,36.37c.17,0,.34,0,.5,0,.42-.34.02-.63-.05-.94.73-.08,1.46-.19,2.05.43-.03.05-.06.1-.09.15-1.25,1.52-2.78,2.75-4.33,3.95.06.26,0,.48-.19.67-.08.05-.16.09-.25.11-.03.02-.07-.16-.1,0,.06-.04.12-.04.19.01.55-.14,1-.02,1.35.45.05.19.03.37-.1.52-.94.21-1.76-.03-2.49-.65-.39-.69-.09-1.27.29-1.84.41-.59,1.19-.6,1.69-1.05.28-.25.59-.5.49-.95-.07-.32-.31-.5-.63-.52-.42-.03-.7.2-.93.53-.32.47-.21,1.19-.85,1.46.17-.06-.2.1-.1-.04.1-.14.01-.26-.04-.1-.11.31.23.98-.58.74-.23-.4-.2-.84-.18-1.28.02-.19.06-.37.15-.53.06-.1.17-.18.24-.27.36-.46.72-1,.24-1.52-.44-.47-.9-.02-1.32.2-.11.06-.22.11-.33.15-.26.06-.51.04-.73-.14-.15-.26-.17-.5.06-.73.33-.13.81-.02.92-.54.78.23,1.63.1,2.38.49.34.44.74.56,1.22.24.35.03.75-.13,1.02.25-.11.46.1.68.54.74Z"/><path class="cls-99" d="M33.08,35.12c.15-.33.39-.51.77-.49.37.47.87.02,1.28.19.12.12.18.27.22.44.04.3.04.61.08.91,0,.09-.05.2,0,.25.12.11-.06.04.07-.08.08-.06.17-.09.26-.11.15-.01.29.02.4.13.04.09.05.19.03.28-.06.13-.14.24-.25.33-.06.06-.11.13-.14.21.05.08.1.14.18.18.42.14.79-.18,1.2-.1.17.08.3.17.19.38-.15.32-.48.41-.76.55-.4.08-.8.15-1.2.02-.1-.06-.21-.17-.3-.13-.18.07.15.14.03.23-.09.17-.24.24-.43.26-.7-.15-1.38-.38-2.07-.57-.1-.07-.17-.17-.22-.28-.12-.4.02-.77.31-1,.59-.47.47-1.03.34-1.62Z"/><path class="cls-113" d="M24.01,39.38c-.17.5-.34,1.01-.5,1.51-.02.09-.06.18-.1.27-.05.14-.08.29-.09.44,0,.34,0,.67-.06,1-.27,1.35.1,1.71,1.44,1.44.29-.06.55-.2.84-.26.19-.02.36.01.5.16-.42.76-.85,1.51-1.27,2.27-.05.03-.1.06-.15.1-.05-.03-.1-.05-.16-.08-.08-.08-.14-.18-.2-.28-.4-.76-1.21-.27-1.76-.57-.16-.09-.29-.2-.23-.41.18-1.03-.13-1.71-1.26-1.83.02-.51.47-.43.76-.58.7-.44.32-1.38.87-1.88.09-.11.19-.22.27-.34.05-.12.08-.25.07-.38-.02-.13-.05-.26-.06-.4.02-.1.08-.16.18-.16.24-.28.13-.63.18-.95.01-.09-.09-.39.18-.24.09.05.06.3.08.47.26.16.31.47.47.7Z"/><path class="cls-77" d="M9.19,22.79c.36-1.11.59-2.18-.76-2.83.3-.65.5-1.34.83-1.97.5-.95,1.24-1.59,2.39-1.53.5.02,1.04.07,1.08.78-.23.1-.28.3-.29.53-.08.08-.18.12-.29.11-.36-.04-.71-.13-1.06.07-.22.14-.4.32-.55.54-.25.38-.35.81-.45,1.24-.17.72-.08,1.44-.08,2.16-.04.81.65,1.47.51,2.3-.04.05-.08.09-.12.14-.2,0-.39,0-.59.01-.34-.46-.6-.95-.61-1.54Z"/><path class="cls-85" d="M21,35.87h.79c.68.29,1.2.7,1.21,1.52,0,.18,0,.35-.01.53-1.05.24-2,.75-3,1.13-.2-.07-.36-.18-.29-.43.08-.09.16-.18.24-.27.26-.16.17-.44.22-.67.02-.3-.14-.49-.39-.64-.67-.5-.69-1.17-.52-1.9.09-.19.2-.34.45-.29.09,0,.18.02.27.03.12.12.21.26.25.42.07.23.03.51.3.65.17,0,.31-.06.47-.1Z"/><path class="cls-100" d="M22.05,42.89c-.35.1-.76-.07-1.05.25-1.51-.12-2.96-.55-4.38-1.02-.34-.11-.86-.13-.91-.55-.05-.44.48-.52.78-.72.24-.16.5-.29.76-.43.2-.11.29.01.36.16.02.1,0,.21-.02.31-.07.12-.18.22-.3.3-.06.06-.1.13-.12.21.16.28.46.17.68.24.96.23,1.92.42,2.89.57.49.08,1.1.02,1.32.68Z"/><path class="cls-32" d="M22.26,44.97c.09.08.17.16.26.24.13.21.1.46.2.68.08.11.19.15.33.14.09-.02.18-.02.27-.03.14,0,.28.02.41.05.18.04.36.05.55.05.09.01.18.05.25.11h0c.06.06.09.12.07.19-.02.07-.03.1-.05.1-.78.94-1.86.75-2.86.68-.62-.05-.59-.6-.46-1.07.15-.55.5-.93,1.04-1.13Z"/><path class="cls-47" d="M33.37,45.44c.16.24.32.48.48.72-.07.22.03.36.2.47.07.1.13.21.2.31-1.38.55-2.58.28-3.41-.75.08-.1.16-.21.25-.31.09-.05.19-.07.29-.07.21,0,.41-.04.61-.07.47-.03.97.04,1.37-.3Z"/><path class="cls-149" d="M35.1,35.38c0-.16,0-.31,0-.47.14-.2.32-.17.51-.09.78-.26,1.58-.37,2.04.47.44.8.41,1.64-.28,2.35-.09-.09-.18-.18-.27-.26-.12-.18-.09-.39-.08-.59,0-.36.12-.84-.27-.98-.31-.11-.27.55-.65.58-.15,0-.3,0-.45,0-.28-.29-.17-.78-.56-1.01Z"/><path class="cls-37" d="M19.71,34.87c-.09.1-.17.19-.26.29-.13.11-.24.22-.38.32-.53.39-.59.9-.26,1.4.4.6.89.43,1.36.03.48.21.26.64.31.99-.14.12-.31.14-.49.12-.34.02-.69-.09-1.01.09-1.04-.24-1.14-1.09-1.22-1.92-.06-.57.2-1.05.71-1.35.42-.25.84-.38,1.24.03Z"/><path class="cls-59" d="M26.03,43.93c-.17,0-.34,0-.51,0-.34-.52-.15-.86.36-1.08.42.05.79.3,1.23.25.41,0,.82,0,1.23,0,.4.02.79,0,1.14-.23.12-.04.23-.04.35,0,.51.34.6.77.27,1.28-.09.08-.19.16-.28.24-.69-.82-2.37-1.03-3.79-.47Z"/><path class="cls-139" d="M17.51,40.74c-.09-.11-.19-.21-.28-.32.83-.6,1.65-1.2,2.48-1.79.09.09.18.18.27.28-.45,1.11-1.24,1.76-2.46,1.84Z"/><path class="cls-142" d="M50.38,2.69c.3-.02.59-.04.89-.06.5.32.92.73,1.2,1.27-.29.18-.22.47-.23.74-.38.19-.48-.18-.69-.34-.37-.55-1.11-.84-1.17-1.61Z"/><path class="cls-25" d="M34.81,38.43c.1-.09.19-.17.29-.26.05-.1.14-.14.25-.1.22.14.38.34.53.55.27.25.53.5.8.75-.31.14-.1.34-.06.53-1.1.12-1.47-.65-1.81-1.46Z"/><path class="cls-103" d="M35.6,34.83c-.17.03-.34.06-.51.09-.46.12-1.02.66-1.24-.29.42-.07.84-.14,1.27-.21.16.13.33.27.49.4Z"/><path class="cls-37" d="M21,35.87c-.02.32-.17.5-.51.51-.19-.3-.13-.73-.48-.95,0-.18-.02-.36-.03-.54.41-.15.76-.11,1.01.29,0,.23,0,.45,0,.68Z"/><path class="cls-155" d="M35.87,38.62c-.24-.06-.46-.15-.54-.41-.08-.06-.1-.11-.07-.17.03-.06.05-.08.08-.08.43.08.85.17,1.28.25-.25.14-.49.28-.74.42Z"/><path class="cls-85" d="M18.98,38.11c.3-.32.68-.18,1.03-.2.07.1.06.2-.04.28-.33-.03-.67-.05-1-.08Z"/><path class="cls-143" d="M19.98,38.19c.01-.09.02-.19.04-.28.16,0,.31,0,.47,0-.07.27-.27.41-.53.45-.02-.06-.01-.12.03-.17Z"/><path class="cls-25" d="M37.37,39.88c-.08-.06-.17-.12-.25-.18.08.06.17.12.25.18Z"/><path class="cls-77" d="M10.64,25.57c.09.1.17.2.26.29-.09-.1-.17-.2-.26-.29Z"/><path class="cls-77" d="M10.43,25.3c.07.09.15.19.22.28-.07-.09-.15-.19-.22-.28Z"/><path class="cls-77" d="M10.23,25.06c.06.07.12.15.18.22-.06-.07-.12-.15-.18-.22Z"/><path class="cls-77" d="M9.94,24.56c.06.11.13.21.19.32-.06-.11-.13-.21-.19-.32Z"/><path class="cls-131" d="M24.53,46.48c0-.1-.01-.19-.02-.29.08,0,.16,0,.24,0-.07.09-.15.19-.22.28Z"/><path class="cls-88" d="M38.89,25.01c-.47-.6-1.23-.78-1.78-1.26.06-.45,0-.65-.3-.93.06-.1.15-.18.24-.25.29-.12.51-.31.48-.63-.08-1.01.55-1.66,1.15-2.32-.39-.19-.8-.36-1.06-.73-.42-.64-.47-1.41-.77-2.09-.07-.15-.16-.29-.27-.42-.61-.57-1.25-1.23-2.15-.84-1.05.45-1.87,1.2-1.95,2.47-.27,1.34-.44,2.68.16,3.99.08.17.04.31-.14.39-1.1.04-2.07-.34-3.01-.85-1.12-.21-2.24-.26-3.36.02-.88.52-1.8.87-2.84.87-.43-.46,0-.88.07-1.31.1-.72.11-1.43-.14-2.12-.01-.48-.06-.95-.29-1.38.15-1.49-1.16-1.72-2.02-2.33-.28-.21-.54-.21-.77.08-.36.39-.74.74-1.13,1.1-.15.16-.21.37-.26.57-.29.76-.3,1.62-.85,2.27-.2.23-.61.12-.74.46.46.63.94,1.23.96,2.06,0,.35.23.6.63.63.6.13,1.27.09,1.72.63-1.19.59-2.54.91-3.49,1.94-.1.21-.2.4-.46.43-.27,0-.39-.19-.5-.38-2.46-.13-2.51-.16-2.53-2.59-.02-2.49.86-4.69,2.49-6.52,1.33-1.5,3.09-2.05,5.11-1.83.45.05.97.5,1.39-.09,0-.16-.1-.24-.26-.23-.69-.47-1.45-.79-2.49-1.16,1.47-.4,2.7-.35,3.91-.41.54-.03.72.33.92.7.55,1.02,1.1,2.04,1.72,3.18.42-1.02.15-1.93.07-2.81-.09-.93.24-1.14,1.09-1.11,2.05.09,1.65-.21,1.65,1.64,0,.42-.04.84-.02,1.25.02.3-.21.76.16.87.24.07.3-.42.43-.66.08-.15.15-.3.23-.45q1.47-2.91,4.8-2.39c.11.18.11.36,0,.53-.1.07-.2.16-.31.21-.48.22-1.15.4-1.09.98.02.23.82-.03,1.26-.06,1.31-.08,2.58.04,3.67.87.09.15.27.13.38.24,1.87,1.28,2.66,3.2,3.13,5.31.13,1.32.17,2.65-.03,3.97-.63.67-1.51.39-2.26.62-.19.08-.37.09-.51-.11Z"/><path class="cls-164" d="M17.22,25.57c2.01-1.46,4.35-2.06,6.74-2.49.67-.12,1.18-.09,1.48.69.19.5.63.94,1.14,1.12,1.06.37.79.97.37,1.62-.88,1.38-3.51,2.4-5.1,1.98-1.32-.36-2.07-1.19-2.08-2.61,0-.19.07-.47-.21-.48-.26,0-.26.27-.29.47-.14,1.14.59,2.43,1.84,2.84.89.29,1.4.79,1.68,1.62.5.22.66.73.92,1.14.8,1.24,1.85,2.12,3.32,2.42.53.19,1.06.2,1.6.06.15-.04.3-.08.46-.12.15-.04.29-.09.44-.14.14-.05.29-.1.43-.16.09-.05.18-.1.27-.16.04-.03.08-.06.13-.1.67-.49,1.33-.98,1.74-1.73.12-.18.23-.37.33-.56.26-.41.38-.91.84-1.18.19-.63.69-.85,1.26-1.07,1.25-.48,1.97-1.68,1.83-2.85-.02-.2.02-.47-.24-.5-.33-.04-.23.26-.26.44-.36,2.32-1.5,3.05-3.87,2.58-1.46-.29-2.7-.84-3.45-2.22-.29-.53-.38-.89.31-1.17.5-.2,1.04-.5,1.23-1.02.4-1.12,1.17-1.05,2.1-.86,1.89.39,3.79.77,5.44,1.83,1.54.98,2.84,2.24,2.74,4.21-.1,1.96-1.59,3.02-3.21,3.68-6.13,2.52-12.33,2.54-18.46.01-2.56-1.05-3.4-2.5-3.23-4.78.13-.15.09-.37.21-.52.07-.04.09-.09.06-.17.02-.14.12-.24.22-.34h0c.15-.73.55-1.25,1.27-1.5Z"/><path class="cls-120" d="M37.92,1.69c.52-.13,1.04-.26,1.56-.4,1.19-.32,2.35-.48,3.42.36,1.31.41,2.06,1.46,2.81,2.51.6.84,1.07,1.77,1.55,2.68.78,1.76,1.31,3.58,1.26,5.52-.01.48.18,1.27-.81,1.12-1.79-.55-3.65-.8-5.49-1.07-.95-1.02-.82-2.42-1.27-3.62-.73-1.93-1.55-3.8-2.64-5.55-.29-.46-.8-.9-.38-1.55Z"/><path class="cls-120" d="M31.88,2.97c1.86-.1,3.63-.85,5.5-.84,1.5,1.35,2.19,3.2,2.93,4.97.67,1.61,1.53,3.22,1.26,5.08-2.4,0-4.75-.62-7.16-.5-.15-.04-.25-.14-.3-.28-.02-.14-.04-.28-.06-.42-.48-.62-.53-1.39-.69-2.11-.32-1.51-.78-2.97-1.37-4.4-.19-.47-.56-.96-.11-1.49Z"/><path class="cls-80" d="M18.23,2.16l5.27.77c.46.22.41.62.27.97-.77,1.91-1.28,3.89-1.75,5.88-.04.17-.17.29-.29.4-.03,1.29-.74,1.55-1.93,1.57-1.87.03-3.74.3-5.61.47-.54-.67-.12-1.37.02-2.02.24-1.13.61-2.23,1.14-3.26.1-.21.23-.4.34-.6.05-.1.1-.19.16-.29.1-.19.18-.4.26-.6.65-1.13.96-2.48,2.13-3.27Z"/><path class="cls-67" d="M53.2,16.01c-1.76,1.99-3.97,3.18-6.54,3.76-.13-.15-.09-.36-.22-.51h0c-.6-.83-1.06-1.74-1.79-2.46-.42,0-.84,0-1.26,0-.09.06-.17.13-.24.21h0c-.09.08-.17.16-.26.24h0c-.08.09-.16.18-.25.25h0c-.07.09-.17.16-.24.26-.59-.28-.7-.91-.95-1.41-.62-1.28-1.61-2.19-2.7-3.04-.15-.12-.43-.3-.41-.39.08-.34.41-.19.62-.17,2.69.24,5.34.74,7.98,1.28.4.08.81.15,1.22.22,1.15,0,2.24.3,3.31.71.15.06.3.13.45.21.09.04.18.09.27.14.17.09.35.17.53.22.09.03.18.07.26.12.1.11.14.25.22.37Z"/><path class="cls-48" d="M12.72,17.23c-1.28-.98-2.59-.49-3.34,1.15-.25.55-.04,1.41-.95,1.57-1.61-.95-3.4-1.56-4.94-2.63-.31-.21-.61-.44-.88-.69-.45-.41-.51-.72.2-.94.55-.17,1.07-.44,1.6-.67,1.24-.86,2.72-1.03,4.13-1.34,1.46-.32,2.93-.67,4.44-.81.32,0,.64-.02.96-.04.25,0,.49,0,.74,0,.35-.04.72.09,1.06-.11.08,0,.17-.01.25,0,.35.05.86-.21,1,.14.13.33-.43.4-.66.63-.65.64-1.37,1.21-1.88,1.98-.19.24-.32.51-.48.76-.44.29-.15,1.5-1.23.98Z"/><path class="cls-80" d="M30.06,3.12c.41.02.81.04,1.22.05,1.25,1.49,1.5,3.38,2.02,5.14.2.67.37,1.36.47,2.05.1.72-.02,1.33-1.03,1.22-1.54-.16-3.11.25-4.65-.22-.03-.73-.06-1.45-.08-2.18.02-1.49.12-2.98.02-4.46-.08-1.14.32-1.59,1.41-1.53.2,0,.41-.05.61-.08Z"/><path class="cls-80" d="M24.35,3.21c1.08-.12,2.14.01,3.19.19.16,2.68.26,5.36-.05,8.04-1.51.02-3.02-.02-4.52.07-.84.05-1.03-.29-.94-1,.29-2.59.76-5.12,2.32-7.31Z"/><path class="cls-91" d="M23.06,30.04c-.11-.52-.15-.93.6-1.04.63-.09,1.3-.14,1.87-.55.49-.36.72.07.97.38.7.35,1.46.03,2.17.21.66.19.71-.37.92-.74.69.07,1.23.67,1.97.55.71.17,1.86-.07,1.25,1.34-.11.27-.37.45-.45.74-.04.16-.08.33-.16.48-.44.89-1.29,1.35-2,1.97-.12.11-.27.17-.43.2-.2.02-.4.07-.59.15-.1.05-.19.09-.29.12-.21.08-.4.22-.63.24-2.54.07-4.71-1.98-5.19-4.05Z"/><path class="cls-58" d="M20.43,23.08c-.63-.11-1.25-.22-1.88-.32-1.01-1.3-.2-5.74,1.04-6.69,1.31-1.01,2.64-.48,3.3,1.4.01.15-.04.28-.15.39-.67-.62-1.35-1.18-2.29-.43-.76.62-1.34,2.5-.92,3.23.32.55.9.21,1.36.29.29.05.65.03.69.4.05.46-.34.48-.68.53-.26.04-.65-.21-.73.19-.03.15.26.41.45.55.56.42.15.42-.19.47Z"/><path class="cls-129" d="M37.09,22.77c-.07,0-.14.03-.21.06-.46.44-.99.38-1.54.23-.11-.14-1.03.25-.29-.45.19-.18.6-.3.41-.64-.07-.12-.44-.09-.68-.11-.34-.03-.72-.02-.7-.5.02-.38.38-.38.66-.42,1.44-.22,1.72-.67,1.33-2.15-.42-1.61-1.61-2.08-2.95-1.16-.11-.1-.18-.23-.19-.39.26-1,.95-1.6,1.93-1.69.96-.08,1.48.65,1.86,1.43.91,1.87,1.08,3.8.37,5.78Z"/><path class="cls-97" d="M51.71,4.16c.17.16.35.32.52.48,1.85,2.87,2.3,6.1,2.44,9.41.03.62-.3,1.11-.47,1.66-.28.15-.33-.08-.43-.25-.04-.08-.08-.16-.12-.23-.39-.58-.26-1.24-.28-1.88.06-.78-.05-1.56.11-2.34,0-.01-.03-.04-.05-.04-.04,0-.08.01-.12.02-.62-.43-.34-1.15-.53-1.72-.41-1.26-.69-2.56-1.36-3.73-.24-.42-.53-.87-.27-1.4.19-.15.37-.12.56,0Z"/><path class="cls-147" d="M13.19,13.18c-2.64.39-5.24.93-7.81,1.65-.32.09-.65.13-.98.2-.2-.34-.56-.28-.87-.34.16-.66.76-.69,1.26-.84,1.66-.53,1.67-.52,1.78-2.2.03-.46.06-.91.34-1.3.08-.11.19-.18.32-.23.14,0,.25.06.32.19.12.24.16.49.17.75.01.12,0,.25.01.38q.01,1.59,1.54,1.3c.82-.16,1.64-.38,2.49-.34.35,0,.69.02,1.03-.09.11-.04.22-.06.33-.09.28-.04.56-.18.83.03.02.51.4.47.75.48.08.05.11.1.08.15-.03.05-.05.08-.08.08-.25.01-.49.03-.74.04-.23.17-.54.02-.76.19Z"/><path class="cls-137" d="M53.71,13.31c-.02.64-.04,1.28-.05,1.93-.14,0-.28,0-.43,0-.31.21-.49.09-.6-.23.09-2.38-.09-4.72-.8-7.01-.51-1.65-1.28-3.15-2.38-4.48-.13-.14-.24-.28-.37-.42-.2-.28-.53-.51-.41-.94.57-.05,1.25-.4,1.52.49,0,0-.07.1-.06.1.06.07.12.13.2.18.36.38.81.69.81,1.28,1.27,2.1,1.84,4.43,2.33,6.8.35.74-.06,1.55.24,2.3Z"/><path class="cls-136" d="M12.92,19.26c-.16.51.44,1.26-.5,1.51-.16-.27-.19-.59-.36-.85-.11-.16-.25-.28-.46-.25-.99.49-.9,1.37-.79,2.24.05.41.3.76.38,1.17.11.27.29.5.49.71.08.09.11.12.11.06-.3-.3-.5-.66-.61-1.07-.05-1.51.19-1.89,1.25-2.03.09.17.17.33.26.5-.2.17-.26.41-.35.65-.07.22-.1.45-.05.67.23-.41-.02-.96.4-1.31.53,1.24.14,2.53.22,3.79-1.18.69-1.71-.21-2.3-.95-.31-.71-.67-1.4-.82-2.17.02-.72-.09-1.44.17-2.14.25-.48.45-.99.99-1.23.82-.28,1.46,0,1.97.66Z"/><path class="cls-15" d="M41.58,12.19c-.65-3.66-2.23-6.94-4.19-10.05.18-.15.35-.29.53-.44.82,1.59,1.67,3.16,2.45,4.76.92,1.89,1.4,3.92,1.84,5.96-.21-.08-.42-.15-.63-.23Z"/><path class="cls-34" d="M28.09,11.37c1.5.03,3,.03,4.49.12.89.06,1.08-.27.91-1.07-.51-2.49-1.19-4.92-2.22-7.24.2-.07.41-.14.61-.2.67,2.09,1.57,4.11,1.94,6.29.1.57.33,1.12.23,1.72-.27.33-.35.8-.99.77-1.46-.07-2.92-.03-4.38-.04-.26,0-.5-.03-.59-.33Z"/><path class="cls-23" d="M32.54,37.59c.02.11.05.22.07.34-.02.05-.03.1-.05.15-.26.34-.12.88-.57,1.13-.59-.2-.56-.77-.71-1.23-.13-.44-.18-.96-.68-1.12-.58-.18-.78.37-1.06.7-.65.77-1.32,1.5-2.11,2.13-.4.32-.8.61-1.35.56-.18-.06-.31-.18-.39-.35-.02-.17,0-.36.14-.45,1.49-.92,2.59-2.25,3.69-3.57,0,0,.03-.03.03-.03.25,0,.5,0,.74.01h0c.41.54.82-.05,1.23,0,.66.38.62,1.18,1,1.72Z"/><path class="cls-124" d="M43.38,20.82c-.05-.04-.11-.06-.18-.06-.3-.34-.22-.71-.07-1.09.11-.16.25-.3.41-.43.51-.31.97-.33,1.33.24.11.22.18.45.34.64.07.1.13.21.17.32.14.55.12,1.1.06,1.65-.04.24-.14.46-.28.67-.09.15-.2.3-.31.44-.08.09-.17.16-.29.21-.19.04-.35,0-.5-.13-.11-.15-.16-.31-.18-.49-.03-.27-.02-.55-.06-.83-.06-.42-.28-.78-.45-1.16Z"/><path class="cls-11" d="M47.7,13.48c.73-.05.53-.6.53-1.02-.02-2.02-.63-3.91-1.33-5.77.09-.22.21-.36.47-.31.72.49.86,1.31,1.08,2.05.5,1.7.93,3.43.6,5.24-.1.12-.23.15-.37.07-.27-.3-.77.28-.99-.25Z"/><path class="cls-74" d="M24.35,3.21c-1.09,2.34-1.64,4.84-2.32,7.31-.1-.11-.2-.23-.3-.34.2-2.04.81-3.97,1.57-5.86.18-.44.57-.86.19-1.38.28.09.57.19.85.28Z"/><path class="cls-154" d="M29.54,33.42c.15-.03.31-.07.46-.1.26-.07.34.04.31.29h0c-.06.08-.14.14-.24.17-.13.04-.26.09-.39.13-.15-.01-.25.08-.36.16-.14.02-.29.05-.43.07-.64.14-1.28.15-1.92,0-2.22-.36-3.33-1.94-4.17-3.8.09-.1.18-.2.26-.29.45.63.87,1.28,1.34,1.89,1.03,1.33,2.39,1.97,4.09,1.89.18-.09.4-.05.57-.2h0c.12-.16.33-.12.48-.2Z"/><path class="cls-157" d="M26.84,28.8c-.02-.29-.09-.58-.05-.86.11-.67.66-1.08,1.05-1.59.38.53.99.94.96,1.71-.01.25-.04.49-.06.74-.63.42-1.27.42-1.9,0Z"/><path class="cls-122" d="M32.54,37.59c-.76-.33-.71-1.12-1-1.72.18-.94.91-.74,1.54-.76.83.48.82,1,.09,1.59-.28.23-.56.49-.62.89Z"/><path class="cls-109" d="M13.95,12.24c-.26.07-.52.13-.78.2.25-1.96.8-3.83,1.67-5.61.12-.2.25-.39.4-.57.07-.09.17-.15.28-.18.05,0,.11.02.16.02.04.04.08.08.11.12.03.16.03.32-.08.47-.64,1.8-1.43,3.56-1.53,5.52-.08.02-.16.03-.24.03Z"/><path class="cls-112" d="M42.6,19c.19-.4.39-.79.58-1.19.05-.13.13-.23.28-.26h-.01c1.52-.38,2.16.06,2.34,1.63-.1.19-.27.26-.47.28-.55-.08-.97-.65-1.6-.42-.16.04-.28.13-.4.25-.16.15-.31.32-.56.3-.26-.14-.25-.35-.16-.58Z"/><path class="cls-138" d="M48.69,13.73c.09,0,.18,0,.26-.01,1.15-.28,2.1.33,3.11.71.21.11.41.23.59.4.03.05.06.1.09.15.09.22.28.25.49.26,0,.17,0,.34,0,.51-.09.08-.18.09-.28.02-.07,0-.15-.02-.22-.04-.13-.16-.37-.1-.51-.23-.08-.01-.17-.02-.25-.03-.08-.09-.17-.17-.29-.2-1.17-.34-2.34-.68-3.5-1.02.32-.02.53-.16.52-.51Z"/><path class="cls-4" d="M45.67,19.25c-.49-1.57-.87-1.86-2.23-1.69.17-.63,1.16.03,1.21-.77,1.15.42,1.61,1.33,1.79,2.45-.52.62-.14,1.35-.26,2.02-.09.49.26,1.08-.32,1.48-.15-.16-.22-.36-.25-.58.01-.97-.16-1.94.05-2.91Z"/><path class="cls-170" d="M44.61,23.28c.05-.06.08-.13.09-.2.06-.1.12-.2.19-.29.1-.17.19-.34.29-.51.15-.14.31-.12.48-.02.18.45-.19.76-.31,1.13-.25.59-.63,1.1-1.09,1.55-.63.52-1.25.76-1.82-.09.09-.44.18-.89.27-1.33.24-.23.5-.44.78-.63.2-.11.41-.21.64-.09,0,.15-.01.3-.02.45.01.36-.22.57-.46.77.01,0,.04.09.05.08.27-.33.6-.56.92-.81Z"/><path class="cls-21" d="M34.65,19.23c-.03.54-.32.87-.85.89-.59.02-.95-.33-.96-.92-.02-.55.37-.87.86-.89.57-.03.92.32.96.92Z"/><path class="cls-53" d="M22.78,19.53c-.34.61-.85.79-1.44.43-.38-.24-.49-.69-.28-1.09.33-.63.85-.7,1.44-.35.46.24.54.58.28,1.02Z"/><path class="cls-128" d="M33.06,17.23c.02.14.04.27.05.41-.86,1.48-1.02,2.97-.06,4.48.08.12.3.26.13.38-.22.16-.48,0-.71-.11-.46-1.56-.74-3.12-.07-4.69.09-.33.27-.54.65-.47Z"/><path class="cls-123" d="M12.92,19.26c-.64-.18-1.18-.8-1.94-.47-.53.17-.79.07-.56-.54.06-.26.22-.42.47-.5.44-.18.88-.15,1.32-.01.08,0,.15.02.23.03.28.46.63.9.49,1.5Z"/><path class="cls-65" d="M43.65,23.03c-.28.24-.49.61-.96.49-.01-.74-.02-1.48-.04-2.22.59-.31.96-.08,1.19.48.08.44.07.87-.2,1.25Z"/><path class="cls-94" d="M42.43,24.85c.59.44,1.16.35,1.73-.05.24-.05.35.04.31.29-.15.19-.28.42-.47.57-.41.33-.81.92-1.38.65-.65-.31-.15-.96-.19-1.46Z"/><path class="cls-87" d="M27.49,11.45c.02-2.68.04-5.36.05-8.04.53,1.19.14,2.45.24,3.67.06.7.01,1.41.01,2.12-.14.75.3,1.57-.3,2.25Z"/><path class="cls-145" d="M43.41,18.81c.69-.22,1.28-.05,1.77.47.39.25.56.56.31,1-.11.1-.23.11-.35.02-.06-.02-.13-.04-.19-.06-.2-.13-.17-.37-.25-.55-.29-.49-.64-.63-1.08-.18-.05.1-.12.18-.2.25-.31.29-.36.63-.21,1.01-.4-.08-.23-.59-.55-.74-.15-.28.08-.4.24-.54.1-.16.2-.31.29-.47.06-.09.13-.15.22-.2Z"/><path class="cls-98" d="M14.47,27.73c-.14-.57-.75-1.28.44-1.45.11-.05.2-.13.29-.21.16-.1.31-.2.47-.29.08-.06.18-.08.28-.05.15.19.06.37-.04.55-.08.12-.16.23-.26.33-.07.06-.13.12-.21.18h0c-.14.15-.08.4-.28.5l.02-.02c-.06.09-.12.19-.17.28-.02.08-.04.16-.06.24-.19.15-.35.19-.47-.08Z"/><path class="cls-13" d="M15.63,26.31c.11-.17.21-.33.32-.5.08-.25.29-.38.5-.52.16-.1.33-.19.49-.29.02.22.06.44.28.56-.42.5-.85,1-1.27,1.5-.17-.09-.34-.18-.51-.27,0-.08,0-.17.02-.25.08-.06.14-.14.17-.24Z"/><path class="cls-173" d="M26.84,28.8c.63,0,1.27,0,1.9,0,.11,0,.21.01.32.02.13.3-.11.38-.29.5-.75-.21-1.69.48-2.28-.48.12-.01.23-.03.35-.04Z"/><path class="cls-177" d="M35.33,23.07c.51-.08,1.03-.16,1.54-.23.57.18.47.53.22.91-.59-.23-1.18-.45-1.77-.68Z"/><path class="cls-38" d="M10.7,23.94c.62.61,1.13,1.42,2.21,1.13,0,.08.01.17.02.25-.27.27-.64.37-.96.56-.11.03-.21,0-.29-.08h0c-.08-.08-.17-.16-.26-.24h0c-.08-.1-.17-.18-.24-.28h0c-.11-.07-.2-.18-.24-.31,0-.07-.03-.13-.09-.17-.16-.16-.32-.33-.3-.59,0-.12.05-.22.15-.29Z"/><path class="cls-82" d="M32.53,30.31c.74-1.2-.37-1.16-.98-1.45.82-.13,1.55-.08,1.71.96-.15.48-.28.97-.67,1.33-.11-.08-.17-.18-.21-.31-.03-.2.04-.37.14-.53Z"/><path class="cls-130" d="M26.1,21.55c1.17-.59,2.42-.15,3.62-.25,0,0,.04.09.03.09-.1.05-.2.09-.3.14-1.12,0-2.24.01-3.36.02Z"/><path class="cls-26" d="M41.65,24.5c0-1.32.02-2.65.03-3.97.43,1.33.33,2.65-.03,3.97Z"/><path class="cls-101" d="M11.92,25.82c.08-.69.61-.47,1.01-.5.12.49.66,1.2-.53,1-.1-.18-.36-.11-.47-.29h.02c-.08-.03-.11-.07-.09-.13.02-.06.03-.09.06-.09Z"/><path class="cls-10" d="M23.46,21.25c-.06.39-.13.79-.19,1.18-.27.09-.64.3-.83.09-.26-.29.24-.42.32-.68.1-.31.29-.58.45-.87.16.03.17.18.25.28Z"/><path class="cls-133" d="M27.52,35.43c.22.27.83-.11.82.39,0,.3-.3.66-.77.55.1-.32-.95-.58-.05-.94Z"/><path class="cls-134" d="M44.47,25.08c-.1-.1-.21-.19-.31-.29.35-.5.7-.99,1.06-1.49.21-.02.37,0,.22.28-.21.57-.48,1.11-.96,1.5Z"/><path class="cls-22" d="M22.73,17.86c.02-.12.04-.24.05-.36.15-.08.25-.04.29.13.54.24.44.7.39,1.14-.08.08-.18.12-.29.11-.37-.07-.28-.43-.4-.65l-.04-.38Z"/><path class="cls-111" d="M27.06,36.37c.05.15.18.33.14.44-.16.39-.38,0-.39-.05-.05-.39-.98-.57-.29-1.13.18.25.36.49.54.74Z"/><path class="cls-29" d="M23.14,18.78c.11,0,.22,0,.33,0,0,.83,0,1.65-.01,2.48-.08-.09-.16-.19-.25-.28,0-.48,0-.96,0-1.43-.16-.24-.21-.49-.07-.75Z"/><path class="cls-145" d="M43.67,21.79c-.24-.35-.48-.73-1.01-.5.1-.37.56-.19.72-.48.49.14.63.53.72.97-.14.14-.28.14-.43,0Z"/><path class="cls-69" d="M40.39,26.26c.08.02.17.02.24.05.28.13.71.15.53.65-.04.11-.12.29-.2.29-.45.03-.45-.4-.62-.65-.09-.13-.08-.24.04-.34Z"/><path class="cls-172" d="M25.51,35.38c-.52.47-1.01.84-1.22-.24.41.08.82.16,1.22.24Z"/><path class="cls-40" d="M23.14,18.78c.02.25.04.5.07.75-.14,0-.29,0-.43,0,0-.36-.07-.71-.28-1.02.09-.09.18-.18.27-.28.12.18.25.36.37.55Z"/><path class="cls-62" d="M38.89,25.01c.17.04.34.07.51.11.25.31.49.61.74.92.12.11.11.21-.03.29-.46-.38-.96-.74-1.21-1.31Z"/><path class="cls-141" d="M28.77,29.32c.1-.17.19-.33.29-.5.29-.06.01-.68.52-.51-.05.51.03,1.13-.81,1.01Z"/><path class="cls-93" d="M34.63,12.98c0-.18,0-.36,0-.53.33-.04.66-.05.97.11-.23.36-.58.44-.97.42Z"/><path class="cls-171" d="M30.31,35.88c-.04-.17-.42-.3-.21-.43.2-.13.67-.27.77.14.06.25-.32.27-.56.3,0,0,0,0,0,0Z"/><path class="cls-68" d="M45.43,23.58c-.07-.09-.15-.18-.22-.28.13-.34.25-.68.37-1.02.05-.03.1-.05.14-.08.05.03.09.06.14.08,0,.15,0,.29,0,.44,0,0,0,.02,0,.02-.04.09-.08.18-.14.27-.1.19-.2.37-.3.56Z"/><path class="cls-20" d="M16.45,25.3c-.17.17-.33.34-.5.52-.1-.01-.19-.02-.29-.03.08-.25.38-.41.31-.73.16.08.32.16.47.24Z"/><path class="cls-2" d="M53.77,15.47c.14.08.28.17.43.25-.02.19.02.48-.28.38-.27-.09-.17-.4-.15-.63Z"/><path class="cls-79" d="M42.89,19.48c-.08.18-.16.36-.24.54,0,0,0,0,0,0-.09.07-.17.06-.24-.03.03-.34-.12-.71.19-1,.08.17.04.41.3.48Z"/><path class="cls-109" d="M14.7,12.95c0-.08,0-.15,0-.23.34,0,.69.01,1.03.02-.29.31-.67.22-1.03.21Z"/><path class="cls-71" d="M13.96,16.25c-.02-.36.16-.61.48-.76.01.36-.16.61-.48.76Z"/><path class="cls-77" d="M10.65,24.32c.07.16.14.32.21.48-.3-.02-.43-.21-.46-.49,0,0,.07-.07.07-.07.09-.05.15-.03.19.07Z"/><path class="cls-13" d="M14.47,27.73c.16.03.31.05.47.08-.21.31-.36.26-.47-.08Z"/><path class="cls-13" d="M15.16,27.3c.02-.2.07-.39.28-.49.01.22-.03.41-.28.49Z"/><path class="cls-39" d="M40.1,26.32c.01-.1.02-.19.03-.29.09.07.18.15.27.22-.01.11-.03.23-.04.34-.09-.09-.17-.19-.26-.28Z"/><path class="cls-77" d="M11.94,26.03c.16.1.31.19.47.29-.21,0-.39-.06-.47-.29Z"/><path class="cls-50" d="M38.55,15.22c-.18,0-.35,0-.38-.24.18,0,.32.07.38.24Z"/><path class="cls-4" d="M46.44,19.25c.19.12.23.31.22.51-.2-.12-.23-.3-.22-.51Z"/><path class="cls-13" d="M15.68,27.58c.03.21-.04.39-.21.52-.02-.21.01-.4.21-.52Z"/><path class="cls-13" d="M15,27.57c.06-.09.11-.19.17-.28-.06.09-.11.19-.17.28Z"/><path class="cls-13" d="M15.95,27.07c-.07.11-.14.23-.22.34.07-.11.14-.23.22-.34Z"/><path class="cls-20" d="M15.2,26.08c-.1.07-.19.14-.29.21.1-.07.19-.14.29-.21Z"/><path class="cls-77" d="M11.92,25.82c.02.07.03.15.03.22-.09-.08-.18-.16-.28-.24.08-.01.16,0,.24.02Z"/><path class="cls-77" d="M11.42,25.57c.09.08.17.16.26.24-.09-.08-.17-.16-.26-.24Z"/><path class="cls-77" d="M11.18,25.29c.08.09.16.18.24.27-.08-.09-.16-.18-.24-.27Z"/><path class="cls-77" d="M10.94,24.98c.08.11.16.22.24.32-.08-.11-.16-.22-.24-.32Z"/><path class="cls-170" d="M45.73,23.02c.05-.09.09-.18.14-.27-.05.09-.09.18-.14.27Z"/><path class="cls-145" d="M42.41,19.99c.08.02.16.03.24.03-.1.18-.18.16-.24-.03Z"/><path class="cls-4" d="M43.46,17.55c-.09.09-.19.17-.28.26.09-.09.19-.17.28-.26Z"/><path class="cls-4" d="M42.4,17.76c.08-.09.16-.18.24-.26-.08.09-.16.18-.24.26Z"/><path class="cls-4" d="M42.64,17.5c.08-.08.17-.17.25-.25-.08.08-.17.17-.25.25Z"/><path class="cls-4" d="M42.89,17.24c.09-.08.17-.16.26-.24-.09.08-.17.16-.26.24Z"/><path class="cls-4" d="M43.16,17c.08-.07.16-.14.24-.21-.08.07-.16.14-.24.21Z"/><path class="cls-137" d="M52.94,15.77c.09,0,.19-.02.28-.02,0,.09-.01.17-.02.26-.09-.08-.17-.16-.26-.23Z"/><path class="cls-151" d="M22.17,13.8c.16-.01.26.06.26.23-.09-.08-.17-.15-.26-.23Z"/><path class="cls-34" d="M34.11,11.4c.1.09.2.19.3.28-.18,0-.28-.1-.3-.28Z"/><path class="cls-120" d="M15.2,6.68c-.69,1.46-1.18,2.98-1.49,4.56-.09.45-.15.89-.53,1.21-.08.01-.17.02-.25.04-.33.23-.74.02-1.08.21-1.22-.04-2.37.34-3.54.59-.8.17-1.06.03-.95-.78.07-.49.05-.99.06-1.49.14-.25.1-.52.09-.78-.06-.15-.07-.31-.04-.47.05-.2.11-.41.15-.62.02-.16.06-.31.11-.47.07-.2.14-.41.2-.61.23-.67.42-1.36.89-1.91.14-.15.29-.3.42-.46.06-.08.12-.16.19-.24.18-.21.19-.48.25-.73.74-1.29,1.59-2.45,3.04-3.04,1.57-1.25,3.15-.23,4.73,0,.61.35.3.77.07,1.16-.57.92-1.11,1.86-1.56,2.85-.12.21-.33.33-.49.5h0c-.15.13-.1.37-.25.51Z"/><path class="cls-84" d="M7.17,10.21c-.24.59-.35,1.22-.29,1.84.12,1.23-.44,1.8-1.6,2.03-.6.12-1.24.19-1.75.62-.29.07-.57.13-.86.2-.48-.3-.41-.8-.4-1.24.07-3.18.65-6.23,2.26-9.02.31-.55.68-1.06,1.15-1.48.13-.13.27-.25.4-.38.22-.28.53-.45.85-.59,1.54-1.3,3.39-1.4,5.28-1.36.67.01.54.26.21.59-.4.83-1.29,1.16-1.83,1.86-1.16,1.5-2.06,3.13-2.73,4.89-.1.26-.25.51-.23.81,0,.17-.02.34-.08.5-.16.24-.19.53-.38.75Z"/><path class="cls-35" d="M3.34,4.6c0-.08.04-.16.1-.21.04-.09.1-.15.19-.19l.03-.02c.06-.1.13-.18.22-.25h0c.08-.09.16-.18.24-.26h0c.32-.11.37.13.44.34.01.11,0,.22-.02.32-.03.1-.08.19-.14.28-.03.04-.06.08-.09.12-.11.16-.19.34-.24.53-.03.1-.07.19-.12.28-.05.09-.1.18-.15.27-.02.05-.04.1-.06.15-.06.23-.11.45-.14.69-.83,2.36-1.31,4.77-1.25,7.28.01.5.04,1.01-.47,1.33-.93.53-1.03-.25-1.05-.78-.11-3.27.27-6.44,2.08-9.29.19-.15.37-.31.43-.57Z"/><path class="cls-75" d="M3.81,5.43c.05-.06.07-.12.08-.2.11-.17.07-.42.26-.55h-.02c.06-.09.15-.17.21-.27.04-.04.06-.09.06-.15.19-.85.85-1.33,1.41-1.9.17-.13.3-.37.58-.2.18,0,.36.02.54.02-.2.24-.39.48-.59.72-.05.09-.13.17-.22.23-3.01,3.38-3.56,7.47-3.46,11.76-.27.12-.53.24-.8.35.34-1.19.13-2.42.27-3.62.21-1.84.74-3.6,1.24-5.37.1-.18.06-.42.26-.56h-.01c.06-.07.12-.16.18-.26Z"/><path class="cls-160" d="M7.36,9.39c.02-.15.03-.3.05-.45.2-.21.01-.54.22-.75.91-2.75,2.28-5.17,4.8-6.79.09.09.19.18.28.26-.97,1.03-2.18,1.85-2.83,3.18-.13.3-.23.61-.49.82h.01c-.15.12-.09.38-.29.47-.33.69-.66,1.37-.99,2.06-.14.16-.1.38-.2.56-.02.15-.04.3-.07.45-.11.18-.11.4-.18.59-.02.13-.04.27-.06.4-.07.12-.14.12-.23.02l-.02-.02c-.15-.27-.13-.54-.01-.81Z"/><path class="cls-78" d="M15.69,5.66c.37-1.05.97-1.98,1.55-2.92.2-.33.58-.64.19-1.08.43-.1.52.34.79.5-.67,1.17-1.34,2.35-2.02,3.52-.17.12-.12.36-.25.5h0c-.08.11-.16.1-.25,0l-.02-.02c-.14-.17-.13-.34,0-.5Z"/><path class="cls-140" d="M5.9,2.43c-.5.61-1,1.22-1.5,1.83-.03-.23-.06-.46-.28-.6.34-.61.99-.87,1.5-1.29.12-.08.21-.06.28.06Z"/><path class="cls-117" d="M5.9,2.43c-.09-.02-.19-.04-.28-.06.22-.22.37-.67.78-.22-.17.09-.33.19-.5.28Z"/><path class="cls-140" d="M3.34,4.6c.03.32-.08.54-.43.57.05-.26.21-.44.43-.57Z"/><path class="cls-140" d="M3.62,4.2c-.06.06-.12.13-.19.19.06-.06.12-.13.19-.19Z"/><path class="cls-140" d="M3.87,3.92c-.07.08-.15.17-.22.25.07-.08.15-.17.22-.25Z"/><path class="cls-140" d="M4.12,3.66c-.08.08-.16.17-.24.25.08-.08.16-.17.24-.25Z"/><path class="cls-44" d="M34.81,38.43c.56.54,1.08,1.13,1.81,1.46,0,0,0,0,0,0,.12.18.15.34-.06.47-.83.1-.37.5-.19.83.45.83.21,1.29-.74,1.2-.9-.08-2.02.48-2.6-.75-.1-.15-.04-.36-.21-.48-.07-.11-.14-.23-.22-.34-.4-.19-.62-.5-.6-.95.51-.56-.01-1.43.59-1.97,0,0,.02,0,.02,0,.8-.14,1.53.03,2.19.5Z"/><path class="cls-51" d="M30.09,44.16c-.04-.47.04-1-.55-1.23-.41-1.11-.21-1.59.82-1.82.4-.09.81-.15,1.2-.3.58-.21.83.12.99.6.04.49-.06.98.15,1.47.47,1.08.2,1.48-1,1.53-.37.01-.75,0-1.12,0-.11-.06-.2-.14-.29-.23-.07-.01-.14-.02-.22-.02Z"/><path class="cls-59" d="M32.57,41.42c-.89-.97-1.7.19-2.58.15-.64-.03-.35.87-.44,1.36,0,0-.02.02-.02.02-.61.27-.51-.33-.7-.57-.18-.41-.63-.67-.63-1.18.17-.68.59-.91,1.25-.69.24-.03-.04.81.49.28.11-.04.21-.04.32-.03.11.01.22.02.32.01.07-.03.14-.03.21,0-.1-.11-.21.02-.32-.02-.06-.01-.11-.02-.16-.04-.05-.03-.1-.06-.15-.09-.09-.09-.14-.19-.17-.31.18-.59.69-.64,1.18-.72.25-.01.49,0,.72.09.11.05.2.14.25.25.1.32.53.47.47.87-.01.19-.03.39-.04.58Z"/><path class="cls-27" d="M38.36,44.48c-.12-.33-.45-.72-.08-.98.24-.17.74-.22.86.32.14.32.09.66.12.98.02.17.09.25.05.09,0,0,.07-.03.11-.05.17.22.2.43,0,.65-.22.09-.16.34-.27.49h0c-.43.18-.61,0-.65-.42-.04-.36.12-.75-.14-1.08Z"/><path class="cls-43" d="M31.32,45.98c-.07-.04-.15-.07-.23-.09-.16-.96.58-.61,1.01-.7.45-.09.87,0,1.26.25-.15,1.1-.95.51-1.5.57-.19.05-.38.07-.56-.03Z"/><path class="cls-108" d="M35.61,43.46c.33.05.25.26.19.47-.1.17-.07.38-.18.55-.02.29-.04.58-.06.87-.02.1-.07.18-.16.24-.17.11-.37.12-.56.19-.11.02-.19-.02-.25-.1h.01c-.26-.17-.58-.32-.21-.68.24-.35.48-.7.72-1.05.07-.08.13-.17.18-.27h0c.11-.06.2-.12.29-.2Z"/><path class="cls-107" d="M38.36,44.48c.6.32-.18,1.37.79,1.49-.46.31-.79.3-.81-.36,0-.38.01-.75.02-1.13Z"/><path class="cls-144" d="M34.05,46.64c-.23.05-.57.18-.66-.06-.1-.27.2-.39.46-.42.07.16.14.32.2.47Z"/><path class="cls-47" d="M34.6,45.66c.08-.02.16-.04.25-.05.17-.04.35-.03.49-.15.07-.04.15-.08.22-.12-.07.84-.46.75-.96.32Z"/><path class="cls-119" d="M39.41,44.84c-.61-.2-.16-.69-.28-1.02.27.29.35.64.28,1.02Z"/><path class="cls-47" d="M34.41,44.98c-.12.29.03.49.21.69-.59-.08-.69-.3-.21-.69Z"/><path class="cls-166" d="M37.12,41.13c-.09.02-.14.04-.19.05-.02-.07-.05-.15-.04-.22,0-.05.08-.1.12-.14.04.1.07.21.11.31Z"/><path class="cls-25" d="M36.56,40.37c.02-.16.04-.32.06-.47.28.2.26.35-.06.47Z"/><path class="cls-59" d="M32.82,41.18c.2.11.24.28.21.48-.07-.16-.14-.32-.21-.48Z"/><path class="cls-119" d="M39.14,45.98c0-.22,0-.43.27-.49.02.23.02.44-.27.49Z"/><path class="cls-57" d="M35.62,44.48c-.04-.21-.02-.41.18-.55-.06.18-.12.36-.18.55Z"/><path class="cls-57" d="M35.61,43.46c-.1.06-.2.12-.29.18.04-.16.14-.21.29-.18Z"/><path class="cls-57" d="M35.31,43.66c-.06.09-.12.18-.18.27.06-.09.12-.18.18-.27Z"/><path class="cls-59" d="M30.31,44.18c.09.08.19.16.28.24-.09-.08-.19-.16-.28-.24Z"/><path class="cls-80" d="M52.22,14.77c-1.09-.35-2.18-.7-3.27-1.04-.2-2.54-.41-5.08-1.73-7.37-.72-.76-1.2-1.69-1.7-2.6-.08-.13-.16-.27-.26-.38-.11-.11-.21-.22-.31-.32-.12-.1-.24-.2-.36-.29-.45-.49-1.09-.77-1.43-1.38-.36-.35-.46-.56.21-.57,1.89-.02,3.73.1,5.3,1.34.18.23.36.47.55.7.05.12.14.21.26.27,2.7,2.87,3.33,6.47,3.52,10.2.03.54.29,1.17-.26,1.65,0,0-.02,0-.02,0-.13-.14-.35-.09-.49-.2Z"/><path class="cls-75" d="M43.16,1.38c.73.24,1.13.91,1.73,1.31.12.05.2.14.24.27.08.08.15.16.23.23.15.05.24.15.26.31.53.95,1.32,1.76,1.6,2.86-.11.11-.22.22-.32.33-.98-1.96-2.32-3.64-4.01-5.04.09-.09.18-.18.27-.27Z"/><path class="cls-148" d="M49.95,2.66c.08,0,.16,0,.24-.02.05.03.11.05.18.05.4.53,1.05.83,1.33,1.47-.19.02-.38.03-.57.05-.39-.52-.78-1.04-1.18-1.56h0Z"/><path class="cls-24" d="M17.51,40.74c.94-.45,1.73-1.12,2.46-1.84.9-.64,1.79-1.31,3.01-.98.03.49.06.99.1,1.48.01.09.03.18.04.28l.02.12.12.04c0,.18-.01.37-.02.55-.08.09-.16.18-.24.26-.87.51-.08,1.73-.96,2.23-1.52-.34-3.05-.68-4.57-1.03-.18-.22-.65-.23-.5-.69h0c.12-.16.36-.11.49-.27.03-.05.05-.11.05-.16Z"/><path class="cls-33" d="M26.03,42.94c-.46.18-.55.55-.51.99-.55.6-1.3.61-1.97.46-.63-.14-1.36-.47-.77-1.37.38-.58.15-1.22.26-1.82.05-.11.14-.2.23-.28.08,0,.16,0,.25-.02.79.42,1.66.56,2.51.79.38.41.37.83.01,1.25Z"/><path class="cls-113" d="M26.03,42.94c0-.42,0-.84-.01-1.25,0-.16,0-.33.01-.49-.02-.1.02-.15.12-.16-.03-.2-.2-.02-.28-.11-.35-.2-.8,0-1.11-.32.09-.22.17-.44.26-.66.23-.27.47-.25.74-.06.1.09.19.19.29.28,1.32.03,2.68-.52,3.96.2.1.07.21.15.31.22-.04.12-.13.18-.25.19-.18.05-.34.03-.48-.11-.64-.13-1.09.09-1.29.73.21.35.35.75.71.99.29.08.07.63.53.55-.07.69-.61.41-.98.47-.14-.16-.31-.24-.51-.29-.26-.09-.51,0-.75.09-.09.06-.17.12-.25.2-.39-.04-.92.19-1.01-.49Z"/><path class="cls-41" d="M24.01,39.38c-.49,0-.48-.35-.47-.7.16-.42.37-.83.48-1.27.2-.77.74-1.06,1.46-1.12.59-.05.79.5.95.85.34.69-.39,1.01-.77,1.39-.44.44-1.19.37-1.65.85Z"/><path class="cls-104" d="M25.76,39.9c-.25.02-.49.04-.74.06-.11-.07-.44-.15-.26-.25,1.69-.96,3.1-2.23,4.29-3.76.07-.09.32-.04.48-.05-.64,1.57-1.82,2.64-3.21,3.53-.2.13-.38.31-.56.47Z"/><path class="cls-175" d="M23,37.39c-.41-.51-.81-1.02-1.21-1.53.36-.61.9-.86,1.57-.64.38.12.68.61.54.88-.23.45.06,1.34-.9,1.29Z"/><path class="cls-135" d="M26.28,41.13c-.08.02-.17.05-.25.07-.45-.31-1.13-.03-1.49-.57l-.02.02c.08-.01.16-.02.24-.04.51.08,1.05.02,1.51.31.05.05.06.09.05.14-.02.05-.03.07-.05.07Z"/><path class="cls-92" d="M24.54,40.62c-.15,0-.3-.02-.46-.02.02-.06.04-.16.07-.16.17-.03.3.04.37.21,0,0,.02-.02.02-.02Z"/><path class="cls-6" d="M36.1,36.39c.56-.24-.42-1.32.52-1.19.93.13.79,1,.65,1.71-.03.16-.12.31-.18.46-.5.29-1,.63-1.51.02-.08-.08-.13-.18-.15-.29.14-.1.28-.21.42-.31.09-.02.15-.07.16-.16.03-.08.05-.17.08-.25Z"/><path class="cls-165" d="M35.1,35.38c.83-.01.7.5.56,1.01,0,0-.05.03-.05.03-.08.03-.16.04-.25.03-.4-.29-.3-.69-.26-1.08Z"/><path class="cls-8" d="M34.24,36.95c.02.33-.17.45-.46.43-.09,0-.18-.1-.27-.16.15-.19.26-.44.46-.55.16-.09.26.11.28.29Z"/><path class="cls-3" d="M35.33,37.95c0,.09,0,.17,0,.26-.08-.03-.16-.04-.24-.03-.02-.07-.04-.14-.07-.2.1,0,.2-.01.31-.02Z"/><path class="cls-161" d="M35.44,37.11c.05.1.1.19.15.29-.16-.04-.23-.12-.15-.29Z"/><path class="cls-149" d="M36.02,36.64c-.05.05-.11.11-.16.16.03-.08.09-.13.16-.16Z"/><path class="cls-149" d="M35.36,36.46c.08-.02.17-.03.25-.03-.07.11-.15.14-.25.03Z"/><path class="cls-30" d="M22.54,46.12c-.29-.3-.36-.6-.02-.91.49,0,.97.01,1.46,0,.53-.02.61.27.52.7-.05.1-.13.16-.23.19-.15.06-.31.07-.46.02-.21-.07-.41-.04-.6.05-.08,0-.14.03-.19.09-.19.07-.37.11-.46-.14Z"/><path class="cls-158" d="M23.26,39.85c-.05-.06-.09-.11-.13-.17.06.05.1.1.13.17Z"/><path class="cls-158" d="M23,40.66c.08-.09.16-.17.24-.26-.08.09-.16.17-.24.26Z"/><path class="cls-158" d="M23.26,40.92c-.08.09-.15.19-.23.28.08-.09.15-.19.23-.28Z"/><path class="cls-131" d="M24.28,45.97c.07-.02.15-.04.22-.07,0,.1.02.2.02.3-.08,0-.15.01-.23.03-.04-.04-.07-.08-.11-.13.03-.05.06-.09.09-.14Z"/><path class="cls-60" d="M10.41,18.24c.01.36.22.53.56.54-.27.34-.53.69-.8,1.03-.24.02-.37-.04-.29-.32.02-.48.15-.92.52-1.26Z"/><path class="cls-118" d="M9.89,19.5c.1.1.19.21.29.31-.1.74-.2,1.48-.3,2.23-.05,0-.11,0-.16,0-.08-.85-.23-1.71.18-2.53Z"/><path class="cls-36" d="M9.71,22.03c.05,0,.11,0,.16,0,.27.63.55,1.27.82,1.9-.02.13-.04.26-.05.39-.06-.03-.12-.05-.19-.07-.27-.73-.7-1.41-.74-2.22Z"/><path class="cls-7" d="M12.2,17.73c-.44,0-.88,0-1.32.01.44-.42.88-.42,1.32-.01Z"/><path class="cls-55" d="M20.17,36.92c.14.59-.27.74-.7.78-.44.04-.84-.17-.99-.6-.19-.54-.4-1.12.06-1.65.24-.27.55-.35.9-.28.18.61-.42,1.54.72,1.76Z"/><path class="cls-66" d="M20.01,35.44c.95-.08.59.5.48.95-.93.07-.42-.58-.48-.95Z"/><path class="cls-132" d="M21.73,36.65c.23.13.38.32.39.59,0,.04-.18.13-.28.13-.37,0-.36-.24-.31-.51.05-.09.12-.16.21-.21Z"/><path class="cls-159" d="M21.73,36.65c-.07.07-.14.14-.21.21.02-.1.03-.2.05-.29.05.03.11.05.16.08Z"/><path class="cls-116" d="M16.98,41.18c.14.25.5.33.5.69-.34.01-.66-.04-.82-.37-.02-.04.21-.21.32-.31Z"/><path class="cls-116" d="M17.46,40.9c-.1.21-.28.27-.49.27.08-.23.28-.26.49-.27Z"/><path class="cls-114" d="M22.17,46.41c.1.25-.08.27-.17.26-.09,0-.18-.11-.27-.17.06-.08.13-.24.18-.23.1,0,.19.11.25.14Z"/><path class="cls-131" d="M23.19,46.16c.14-.19.34-.18.54-.15.03.04.07.08.1.12-.03.04-.07.08-.1.11-.18-.02-.36-.05-.54-.07Z"/><path class="cls-131" d="M22.54,46.12c.15.05.31.09.46.14-.24.23-.39.17-.46-.14Z"/><path class="cls-131" d="M24.29,46.23c-.19.22-.37.21-.56,0,0,0,.05-.06.05-.06.16-.12.31-.13.47,0l.04.05Z"/><path class="cls-125" d="M31.32,45.98c.19.01.37.02.56.03-.2.22-.39.29-.56-.03Z"/><path class="cls-18" d="M28.3,42.93c.21.1.24.29.25.5-.5,0-1,0-1.51,0,0-.1.02-.19.03-.29.39-.2.83-.09,1.23-.21Z"/><path class="cls-73" d="M33.06,17.23c-.22.16-.44.31-.65.47-.42-1.25.68-1.65,1.34-2.21.69-.59,1.55-.55,2.31,0,.3.22.55.5.82.76.09.08.15.17.18.29l.81,2.27c.07.84.81.46,1.23.68-.68.95-1.44,1.84-1.38,3.13.01.27-.38.21-.62.15.07-1.7.27-3.4-.37-5.05-.32-.83-.67-1.72-1.64-1.87-.99-.15-1.53.65-2.02,1.38Z"/><path class="cls-174" d="M23.08,17.63c-.1-.04-.2-.09-.29-.13-.53-.81-1.08-1.78-2.16-1.65-1.21.14-1.53,1.32-1.85,2.3-.49,1.5-.31,3.06-.23,4.6-.32.15-.67.09-.64-.28.09-1.27-.75-2.08-1.4-2.98.38-.26.86.1,1.23-.2.26-.87.52-1.74.77-2.61.11-.11.1-.3.24-.4.42-.36.84-.73,1.26-1.09.3-.15.57-.51.96-.18.93.37,1.72.92,2.27,1.78.2.32.46.65-.14.83Z"/><path class="cls-54" d="M39.08,19.49c-.52-.02-1.38.56-1.23-.68.28.45.88.33,1.23.68Z"/><path class="cls-81" d="M17.73,19.29c-.31.72-.83.07-1.23.2.36-.4.81-.18,1.23-.2Z"/><path class="cls-168" d="M20.95,15.01c-.32.06-.64.12-.96.18.21-.65.55-.58.96-.18Z"/><path class="cls-89" d="M18.74,16.29c-.08.13-.16.27-.24.4,0-.18-.01-.37.24-.4Z"/><path class="cls-90" d="M37.05,16.54c-.06-.1-.12-.19-.18-.29.06.1.12.19.18.29Z"/><path class="cls-169" d="M30.31,33.61c-.1-.09-.2-.19-.31-.28.68-.67,1.36-1.34,2.04-2.02.17.04.26.15.27.32-.44.89-1.1,1.56-2,1.98Z"/><path class="cls-163" d="M26.97,34.14c.64,0,1.28,0,1.92,0-.64.29-1.28.29-1.92,0Z"/><path class="cls-152" d="M32.31,31.62c-.09-.11-.18-.21-.27-.32.03-.14.06-.28.09-.42.11-.19.26-.19.43-.08.01.11.02.23.04.34-.1.16-.19.32-.29.48Z"/><path class="cls-169" d="M29.31,34.07c.12-.05.24-.11.36-.16-.12.05-.24.11-.36.16Z"/><path class="cls-169" d="M30.07,33.78c.08-.06.16-.11.24-.17-.08.06-.16.11-.24.17Z"/><path class="cls-115" d="M15.72,6.18c.08,0,.17,0,.25,0-.08.17-.16.34-.24.51,0-.17,0-.34,0-.51Z"/><path class="cls-115" d="M15.96,6.19c0-.21.03-.4.25-.5-.08.17-.17.33-.25.5Z"/><path class="cls-137" d="M52.21,15.51c.21-.02.4.03.51.23-.17-.08-.34-.15-.51-.23Z"/><path class="cls-137" d="M51.67,15.27c.1.07.19.14.29.21-.1-.07-.19-.14-.29-.21Z"/><path class="cls-109" d="M13.19,13.18c.21-.26.49-.21.76-.19-.21.24-.48.23-.76.19Z"/><path class="cls-146" d="M32.56,30.8c-.14.03-.29.06-.43.08-.06-.33.1-.51.41-.58,0,.17.02.33.03.5Z"/><path class="cls-169" d="M29.05,33.63c-.13.22-.34.23-.57.2.19-.07.38-.13.57-.2Z"/><path class="cls-169" d="M29.54,33.42c-.16.07-.32.13-.48.2.1-.21.28-.22.48-.2Z"/><path class="cls-52" d="M53.71,13.31c-.31-.74-.2-1.53-.24-2.3.56.72.14,1.53.24,2.3Z"/><path class="cls-109" d="M11.84,12.68c.33-.25.7-.24,1.08-.21-.3.37-.71.22-1.08.21Z"/><path class="cls-42" d="M7.39,10.22c.08,0,.15-.02.23-.02.03.29,0,.57-.2.8,0-.26-.02-.52-.03-.78Z"/><path class="cls-42" d="M7.36,9.39c0,.27,0,.54.01.81-.07,0-.13,0-.2,0-.05-.3,0-.58.19-.82Z"/><path class="cls-178" d="M49.48,3.13c-.09-.09-.17-.18-.26-.27.09.09.17.18.26.27Z"/><path class="cls-126" d="M49.96,2.65s-.08-.07-.12-.11c.02,0,.06,0,.07.02.02.03.03.06.04.1,0,0,0,0,0,0Z"/><path class="cls-46" d="M11.02,23.31c-.66-1.05-.81-2.17-.3-3.31.23-.51.53-.99,1.23-.62.1.1.1.28.25.35.29.31.47.63.22,1.05,0,0,0,0,0,0-1.15.38-.96,1.35-.98,2.23.1.42-.11.45-.43.32Z"/><path class="cls-95" d="M11.02,23.31c.14-.11.29-.21.43-.32.19.27.41.52.58.8.15.26.96.21.48.72-.3.32-.68-.13-.92-.39-.22-.24-.38-.54-.56-.81Z"/><path class="cls-9" d="M12.16,21.72c0-.34.17-.51.52-.45,0,0,0,.01,0,.01,0,.5,0,1,0,1.5,0,.23.13.61-.14.66-.33.05-.43-.31-.49-.61.17-.36.13-.73.11-1.11Z"/><path class="cls-31" d="M12.16,21.72c.33.41.47.79-.11,1.11-.12-.39-.19-.76.11-1.11Z"/><path class="cls-16" d="M12.2,19.72c-.23-.01-.26-.17-.25-.35.18.05.24.18.25.35Z"/><path class="cls-1" d="M30.01,40.38c-1.32-.09-2.66.3-3.96-.2,1.51-.63,2.5-1.86,3.48-3.08.29-.36.45-.81,1.03-.71.65.11.84.65.96,1.16.14.56.17,1.14.53,1.63.05.06.07.12.07.18,0,.07-.01.1-.03.1-.22.23-.56.25-.82.43-.47.03-.91.15-1.27.49Z"/><path class="cls-59" d="M32.05,39.36c0-.06,0-.12,0-.18.15-.43-.33-1.13.54-1.25-.38.63.36,1.51-.46,2.05,0,0-.08-.07-.08-.07-.14-.18-.13-.35,0-.53Z"/><path class="cls-96" d="M45.14,20.29l.36-.05c.57.63.24,1.35.2,2.04,0,0-.1,0-.1,0-.14,0-.28,0-.41-.01-.01-.66-.03-1.32-.04-1.98Z"/><path class="cls-176" d="M43.14,24.08c.44-.14.67-.52.96-.84.17.01.34.03.51.04-.3.64-.61,1.26-1.46,1.27-.13-.16-.14-.31,0-.47Z"/><path class="cls-64" d="M43.67,21.79c.14,0,.29,0,.43,0,0,.33.01.67.02,1-.16.08-.31.16-.47.24,0-.41.01-.83.02-1.24Z"/><path class="cls-162" d="M44.7,19.68c.2.13.24.33.25.55-.3-.09-.26-.33-.25-.55Z"/><path class="cls-76" d="M44.89,22.79c-.06.1-.13.2-.19.29.06-.1.13-.2.19-.29Z"/><path class="cls-17" d="M43.42,19.75c.07-.08.13-.17.2-.25-.07.08-.13.17-.2.25Z"/><path class="cls-115" d="M15.2,6.68c.08-.17.17-.34.25-.5,0,.21-.05.39-.25.5Z"/><path class="cls-115" d="M15.69,5.66c0,.17,0,.34,0,.5-.08,0-.16.01-.25.01.08-.17.16-.35.25-.52Z"/><path class="cls-110" d="M45.69,22.29c-.08-.68.12-1.39-.2-2.04-.1-.32-.21-.65-.31-.97.16,0,.32-.02.49-.02.49.98.27,2.02.2,3.04-.06,0-.12,0-.18,0Z"/><path class="cls-167" d="M43.41,18.81c-.07.07-.15.13-.22.2.07-.07.15-.13.22-.2Z"/><path class="cls-137" d="M52.22,14.77c.2-.01.37.03.49.2-.2.02-.38-.02-.49-.2Z"/><path class="cls-5" d="M43.14,24.08c0,.16,0,.31,0,.47-.3-.15-.36-.31,0-.47Z"/><path class="cls-20" d="M15.63,26.31c-.06.08-.12.16-.17.24.06-.08.12-.16.17-.24Z"/><path class="cls-106" d="M9.39,5.67c0-.37.23-.61.49-.82.03.39.07.78-.49.82Z"/><path class="cls-42" d="M7.68,9.8c-.03-.22-.03-.44.18-.59.03.22,0,.43-.18.59Z"/><path class="cls-42" d="M7.92,8.76c-.02-.22-.01-.42.2-.56-.07.19-.13.37-.2.56Z"/><path class="cls-105" d="M9.12,6.14c.1-.16.19-.31.29-.47-.03.2-.03.42-.29.47Z"/><path class="cls-42" d="M7.63,8.19c.01.27.06.56-.22.75-.01-.27-.01-.54.22-.75Z"/><path class="cls-14" d="M6.13,3.12c.07-.08.14-.16.22-.23-.07.08-.14.16-.22.23Z"/><path class="cls-140" d="M3.65,5.69c-.01.22-.06.42-.26.56-.02-.24-.01-.46.26-.56Z"/><path class="cls-140" d="M4.15,4.68c-.02.22-.05.43-.26.55-.02-.23,0-.45.26-.55Z"/><path class="cls-140" d="M3.81,5.43c-.06.09-.12.18-.18.27.06-.09.12-.18.18-.27Z"/><path class="cls-140" d="M4.34,4.41c-.07.09-.14.19-.21.28.07-.09.14-.19.21-.28Z"/><path class="cls-83" d="M29,42.4c-.94.17-.77-.45-.71-.99.54.11.69.5.71.99Z"/><path class="cls-156" d="M29.59,40.68c.16,0,.32.01.47.02.08.06.12.11.09.18-.02.06-.05.1-.08.1-.14.06-.29.16-.43.17-.25.02-.67.19-.72-.1-.05-.29.48-.14.66-.36Z"/><path class="cls-28" d="M30.56,40.68c.07-.04.15-.07.22-.11.22-.1.56-.31.65-.08.09.25-.36.16-.52.31-.08.07-.23.05-.35.08-.08-.05-.11-.09-.08-.13.03-.04.05-.07.08-.07Z"/><path class="cls-23" d="M32.05,39.36c0,.18,0,.36,0,.53-.26,0-.52,0-.78,0,.19-.28.44-.46.77-.53Z"/><path class="cls-102" d="M30.08,40.97c0-.09-.01-.18-.02-.27.09-.03.17-.07.26-.1,0,0-.02.09-.02.09.07.05.09.09.07.14-.02.05-.04.07-.06.07-.08.02-.16.04-.23.06Z"/><path class="cls-70" d="M30.31,40.91c0-.07,0-.14,0-.22.09,0,.17,0,.26-.01,0,.07,0,.13,0,.2-.08,0-.16.02-.25.03Z"/><path class="cls-127" d="M35.34,45.47c-.08.32-.29.23-.49.15.16-.05.33-.1.49-.15Z"/><path class="cls-45" d="M45.63,3.5c-.09-.1-.18-.21-.26-.31.17.03.25.14.26.31Z"/><path class="cls-153" d="M45.13,2.95c-.08-.09-.16-.18-.24-.27.08.09.16.18.24.27Z"/><path class="cls-63" d="M26.97,41.45c.22-.03.29.1.29.28,0,.28.08.61-.34.67-.21.03-.44.02-.42-.28.02-.3.21-.52.47-.68Z"/><path class="cls-121" d="M28.3,42.93c-.35.44-.81.21-1.23.21.36-.39.77-.48,1.23-.21Z"/><path class="cls-61" d="M27.92,41.04c-.07.04-.13.09-.2.09-.06,0-.11-.06-.17-.1.06-.03.12-.1.17-.09.06,0,.13.06.19.1Z"/><path class="cls-12" d="M26.28,41.13c0-.07,0-.14,0-.21.11,0,.24,0,.21.16,0,.03-.13.04-.2.06Z"/><path class="cls-56" d="M24.25,46.18c-.16,0-.31,0-.47,0-.02-.06-.04-.11-.05-.17.18-.01.36-.02.54-.04,0,.07,0,.14-.03.21Z"/><path class="cls-86" d="M60.99,21.68l-.95-3.65c1.18-.42,2.39-.74,3.61-.99,1.22-.23,2.44-.38,3.7-.46.4,0,.8,0,1.22.04.4.04.8.11,1.22.21.73.21,1.39.57,1.99,1.09.57.53,1.01,1.15,1.3,1.87.21.61.29,1.22.25,1.85-.08.65-.27,1.24-.59,1.78-.31.53-.67,1.05-1.05,1.53-.38.5-.8.96-1.22,1.38.27.19.53.36.8.53.27.21.53.42.8.61l-2.04,3c-1.07-.82-2.2-1.51-3.42-2.04s-2.5-.94-3.84-1.17l1.47-3.4c.42.08.84.17,1.26.29.4.12.8.25,1.22.36.4-.31.78-.67,1.15-1.07.34-.38.69-.8.99-1.22.17-.27.23-.55.15-.88-.1-.31-.31-.53-.61-.67-.27-.11-.53-.19-.82-.25-.29-.04-.57-.06-.86-.04-.99.08-1.95.21-2.9.42-.97.23-1.91.51-2.83.88Z"/><path class="cls-86" d="M87.22,16.07l3.99,1.22c-.11,1.03-.31,2.02-.57,3.02-.31.99-.67,1.93-1.11,2.84.67.61,1.28,1.28,1.81,2,.53.75.99,1.53,1.39,2.33l-3.38,2.73c-.31-.63-.65-1.22-1.03-1.79-.4-.59-.84-1.13-1.32-1.62-.86.96-1.79,1.76-2.83,2.44-1.05.73-2.16,1.28-3.32,1.74l-2.81-3.19c.99-.38,1.93-.9,2.83-1.53.9-.59,1.72-1.28,2.44-2.06-.69-.32-1.37-.59-2.08-.78-.73-.19-1.47-.33-2.2-.4l1.07-3.7c.97.04,1.95.15,2.92.38.95.23,1.89.55,2.79.95.34-.73.63-1.47.88-2.23.23-.76.4-1.55.52-2.35Z"/><path class="cls-86" d="M98.01,16.07l4.01.53c-.11.65-.19,1.3-.25,1.95-.08.65-.15,1.3-.19,1.93,1.2.19,2.39.48,3.53.84,1.15.38,2.25.86,3.32,1.41l-1.16,3.59c-.92-.46-1.87-.84-2.84-1.18-.97-.31-1.97-.57-3-.78,0,1.13.02,2.23.09,3.34.04,1.13.13,2.25.25,3.36l-3.99-.09c-.32-2.46-.46-4.94-.42-7.45.04-2.48.25-4.96.65-7.44Z"/><path class="cls-86" d="M112.23,21.28c1.66-.61,3.38-.97,5.17-1.11,1.76-.12,3.53,0,5.29.36.36.1.73.23,1.09.42.34.19.65.42.92.69.38.34.65.76.84,1.22.17.48.25.97.23,1.47-.04.42-.09.8-.17,1.18-.09.4-.21.78-.32,1.15-.34.82-.73,1.6-1.18,2.33-.48.75-1.01,1.43-1.6,2.08l-3.05-2.23c.4-.38.78-.82,1.13-1.3.32-.46.61-.94.86-1.43.08-.15.11-.31.15-.5.04-.15.06-.32.06-.5,0-.25-.08-.48-.21-.69-.15-.19-.36-.33-.61-.4-.23-.06-.48-.11-.73-.15-.25-.04-.5-.08-.74-.1-1.16-.08-2.31-.04-3.44.11-1.15.15-2.23.44-3.3.84l-.36-3.46ZM112.34,16.93c2.12-.73,4.29-1.03,6.55-.96,2.23.12,4.39.59,6.45,1.47l-1.11,2.9c-1.85-.69-3.76-1.05-5.71-1.11-1.99-.04-3.91.23-5.8.84l-.38-3.15Z"/><path class="cls-86" d="M136.04,25.84c-.41-.34-.79-.79-1.35-1.67v2.47c0,1.45.02,2.38.1,4.55h-1.67c.05-1.52.12-3.04.12-4.55v-2.06c-.71,1.45-1.13,2-1.64,2.52l-1.35-.86c1.84-1.86,2.52-4.19,2.79-5.68-.59,0-1.4.03-2.1.15v-1.67c.64.12,1.59.15,1.89.15h.39c-.02-1.64-.02-1.83-.05-3.38l1.69.15c.17.02.46.05.46.27,0,.08,0,.19-.56.41-.07,2.01-.07,2.21-.07,2.55.17,0,1.18-.02,1.94-.15v1.67c-.78-.13-1.69-.15-1.94-.15v.49c.42,1.42,1.23,2.71,2.4,3.62l-1.05,1.18ZM145.44,30.01c-1.35-.95-2.45-2.21-3.25-3.67v.25c0,1.86.08,4.16.1,4.58h-1.72c.02-.91.1-2.98.1-4.53v-.49c-.52.85-1.79,2.76-3.94,3.94l-1.3-1.15c2.21-1,3.67-2.82,4.58-5.02h-.24c-1.01,0-2.03.03-3.04.14v-1.66c1.05.1,2.59.13,3.04.13h.9v-2.06h-1.78c-.51,1-.88,1.42-1.15,1.72l-1.44-.9c1.2-1.03,1.91-2.76,2.13-4.58l1.64.59c.12.03.27.12.27.27s-.05.17-.51.29c-.07.29-.15.59-.41,1.34h1.22c-.02-1.57-.02-2.03-.05-3.45l1.78.15c.29.02.37.05.37.2,0,.22-.25.35-.51.49l-.05,2.59c1.13-.03,2.28-.05,3.42-.15v1.52c-.51-.03-1.05-.05-1.76-.05h-1.33c-.14,0-.22-.02-.32-.02v2.04h.61c1.03,0,2.06-.03,3.08-.13v1.66c-1.34-.14-2.96-.14-3.08-.14h-.27c.86,2.05,2.23,3.89,4.21,4.94l-1.3,1.15Z"/><path class="cls-86" d="M162.81,30.71c-.2.24-.42.41-.91.41-1.84,0-4.51-3.84-5.16-10.28h-3.06c-1.79,0-3.43.07-4.85.13v-1.66c1.81.12,2.23.13,4.85.13h2.92c-.08-.84-.15-1.88-.15-3.7l2.03.19c.24.02.32.03.32.2,0,.19-.12.27-.47.52-.08,1.52-.07,2.32-.03,2.79h.34c1.64,0,3.28-.03,4.9-.13v1.66c-1.62-.1-3.26-.13-4.9-.13h-.25c.35,3.58,1.54,6.46,2.49,7.54.27.32.62.69.95.69.41,0,.98-1.44,1.15-2.11l1.06,1.61c-.29.84-.68,1.54-1.22,2.15ZM156.94,28.98c-1.28.3-6.75,1.4-7.13,1.47-.02.15-.07.54-.39.54-.2,0-.22-.19-.25-.34l-.32-1.83c1.08-.12,2.5-.29,3.26-.41v-3.94h-.51c-.36,0-1.93.19-2.25.2v-1.61c.17.03.32.07.54.07.29.02,1.59.05,1.86.05h2.37c.19-.02,2.49-.1,2.52-.1v1.49c-.27-.02-2.25-.1-2.57-.1h-.29v3.69c.54-.1,2.87-.52,3.36-.59l-.2,1.4ZM161.49,18.84c-.56-.63-1.27-1.34-2.13-1.86l1.1-1.1c1.17.59,1.79,1.29,2.2,1.78l-1.17,1.18Z"/><path class="cls-86" d="M180.77,22.91c-1.42-.51-2.01-.78-2.96-1.33v.96c-.85-.1-1.88-.1-2.71-.1h-2.72c-.86,0-1.89,0-2.71.1v-1.03c-1.45.96-2.13,1.2-2.67,1.4l-1.23-1.4c1.5-.46,2.69-.9,4.29-2.21,1.22-1,2.33-2.15,2.98-3.6l1.76.61c.17.05.29.15.29.32,0,.14-.14.24-.29.29.47,1.13,3.11,3.62,7.05,4.5l-1.08,1.5ZM175.1,25.52h-1.42c-.49,1.32-1.23,2.54-1.79,3.26,1.3-.1,3.09-.32,4.85-.56-.41-.44-.69-.68-1.49-1.3l1.28-.88c1.52,1.15,2.89,3.04,3.37,4.02l-1.29,1.06c-.17-.44-.37-.91-.91-1.69-5.66.83-6.1.9-8.62,1.12-.07.15-.2.42-.41.42-.05,0-.19-.03-.22-.25l-.22-1.74c.88-.02,1.23-.03,1.79-.07.49-.69,1.37-1.93,1.86-3.4h-.63c-1.81,0-2.65,0-4.26.17v-1.62c1.62.08,2.21.1,4.38.1h3.69c2,0,3.18-.02,5.6-.2v1.62c-1.18-.07-2.62-.07-5.56-.07ZM173.57,17.82c-.69.9-1.61,2.08-3.28,3.25.17.02,1.27.08,2.1.08h2.72c.66,0,1.57-.05,1.91-.07-1.67-1.12-2.35-1.84-3.45-3.26Z"/><path class="cls-86" d="M189.89,26.16c-.36-.29-1.05-.83-1.89-1.76v3.52c0,.68.08,2.62.12,3.2h-1.74c.14-1.61.15-3.03.15-3.11v-3.31c-.98.95-1.84,1.49-2.42,1.86l-1.01-1.34c3.16-1.71,4.45-3.72,4.9-4.8h-1.89c-.74,0-1.47.05-2.21.1v-1.59c.56.08.69.08,1.96.08h.56v-.34c0-.86,0-1.34-.05-2.84l1.84.17c.17.02.32.15.32.3,0,.24-.34.37-.47.41-.02.41-.05,1.2-.05,1.96v.34c.59-.02,1.2-.07,1.79-.19l.61.64c-.27.42-1.44,2.26-1.69,2.64-.2.29-.34.49-.46.64.84.86,1.79,1.61,2.79,2.3l-1.15,1.12ZM195.79,30.27h-3.01c-1.35,0-1.89.02-3.01.12v-1.54c.95.08,1.39.08,3.01.08h.88v-6.58h-.74c-.88,0-1.91,0-2.72.1v-1.52c1.1.13,2.62.13,2.72.13h.74c-.02-2.6-.03-2.89-.07-5.29l1.76.17c.12.02.42.03.42.25,0,.17-.12.24-.39.37-.02,1.89-.03,2.03-.05,4.5h.32s1.54,0,2.72-.13v1.52c-.85-.1-1.89-.1-2.72-.1h-.32v6.58h.49c.81,0,2.13-.03,3.16-.14v1.59c-1.17-.08-1.62-.12-3.2-.12Z"/></svg>