<?xml version="1.0" encoding="utf-8"?>
<!-- Generator: Adobe Illustrator 25.2.3, SVG Export Plug-In . SVG Version: 6.00 Build 0)  -->
<svg version="1.1" id="_レイヤー_2" xmlns="http://www.w3.org/2000/svg" width="75mm" height="28.17mm" xmlns:xlink="http://www.w3.org/1999/xlink" x="0px"
	 y="0px" viewBox="0 0 212.6 79.9" style="enable-background:new 0 0 212.6 79.9;" xml:space="preserve">
<style type="text/css">
	.st0{fill:#E60012;}
	.st1{fill:#231815;}
</style>
<g id="_ロゴ">
	<path class="st0" d="M201.3,16.2V0h11.3l0,32.2l-11.3,0l-12.9-16.1v16.1H177V0h11.3L201.3,16.2L201.3,16.2z"/>
	<path class="st0" d="M135.6,32.2h-11.3l0-20l-6.9,20h-8.6c0,0-6.9-20-6.9-20v20H90.5V0h18.2l4.5,13l4.5-13h17.9V32.2L135.6,32.2z"
		/>
	<rect x="38.9" y="0" class="st0" width="11.3" height="32.2"/>
	<path class="st0" d="M87.1,30.8c-1.2-4.5,1.2-11-4-13.3C88,15.3,87.2,7,85.1,4C82.9,0.8,78.3,0,73,0H53.4v32.2h11.3V21.7l7.5,0
		c2.4,0.2,2.9,0.8,3.1,2.2l0.5,8.3h12C87.7,31.7,87.1,31.4,87.1,30.8L87.1,30.8z M75,12.5c-0.4,0.8-1.1,1.3-3,1.3h-7.4l0-6.1h6.9
		c1.8,0.2,3.1,0.6,3.6,1.7S75.4,11.7,75,12.5L75,12.5z"/>
	<path class="st0" d="M25.5,0H11.8L0,32.2h11.4l1.1-3.1l12.4,0l1.1,3.1h11.3L25.5,0z M15.8,20.2l3-7.9l2.9,7.9
		C21.7,20.3,15.8,20.2,15.8,20.2z"/>
	<path class="st0" d="M163.1,0h-13.7l-11.8,32.2h11.4l1.1-3.1l12.4,0l1.1,3.1h11.3L163.1,0z M153.3,20.2l3-7.9l2.9,7.9
		C159.2,20.3,153.3,20.2,153.3,20.2z"/>
	<path class="st1" d="M35.3,55.2c-0.1,0.5-0.5,0.8-0.5,0.8v2h0.9c0,0,0.6-1,1.7-1.8c1.3,1,1.8,2.2,1.8,2.2c-0.1,0.4-0.5,0.7-0.5,0.7
		h-3.8V63h0.8c0,0,0.6-1.1,1.7-1.8c0.9,0.6,1.7,2,1.7,2c0,0.5-0.5,0.9-0.5,0.9h-3.5v4.4h0.8c0,0,0.7-1.1,1.7-1.8
		c1.1,0.8,1.7,2.1,1.7,2.1c-0.1,0.5-0.5,0.8-0.5,0.8h-3.8v4.5c3.7,2.4,8.5,1.7,13,1.6c1.7-0.1,3.4-0.4,5.1-0.5c-1.2,1-2.3,2.5-2.9,4
		c-6.4,0-14.1,1.5-18-5.4l-1.3-2.6c-0.7,3.6-2.6,6.5-4,7.4c1.7-3.9,1.6-8.9,1.1-13.5c2.4,0.3,3.7,1.4,3.7,1.4
		c-0.3,0.4-0.6,0.5-0.6,0.5c0,0.9,0.1,1.8,0,2.5c0.2,0.5,0.7,1.2,1,1.6v-7.3H28c0,0-0.4-0.4-0.5-1.1h4v-3.9h-2.8
		c0,0-0.5-0.4-0.6-1.2h3.5v-4.1C33.9,53.8,35.3,55.1,35.3,55.2L35.3,55.2L35.3,55.2z"/>
	<path class="st1" d="M12.2,55.9c-0.5,0.4-1.1,0.5-1.1,0.5v22.2c-1.3,0.7-3.2,0.7-4,0.6v-6.7c-1.9,1.4-3.7,2.9-5.8,3.7
		c-0.6-1.6-1.1-3.3-1.3-5c2.5,0,4.9-0.4,7.1-1v-7.5H1.3c0,0-0.4-0.4-0.5-1.3h6.4v-7.1C8.9,54.4,10.7,55,12.2,55.9L12.2,55.9z"/>
	<path class="st1" d="M193.7,55.3c-0.2,0.5-0.8,0.8-0.8,0.8v3.2h1c0,0,1-1,1.8-1.3c1.3,0.6,2,1.6,2,1.6c-0.2,0.8-1,1-1,1
		c-1.1,1.6-2.4,3.5-3.7,5v0.6c3.3,0.8,3.6,1.8,4.5,3.2c-1,0.2-1.9,0.7-2.8,1.4c-0.2-1.4-0.4-2.8-1.7-3.8v12.1c0,0-1.3,0.8-3.3,0.7
		V69c-1.3,1.2-2.9,2.4-4.4,2.9c3.3-3.2,6-7.1,7.5-11.3h-6.2c0,0-0.5-0.4-0.5-1.3h3.6c0-1.6,0-5,0-5
		C192.5,54.3,193.7,55.3,193.7,55.3L193.7,55.3L193.7,55.3z"/>
	<path class="st1" d="M18.6,56.2c-0.6,0.5-1.3,0.6-1.3,0.6v7.1c0.9-0.4,3.3-3,4.5-5c1.5,1.1,3,2.6,3.8,4.3c-0.7,0.1-1.3-0.2-1.3-0.2
		c-2.1,1.3-3.5,2.2-7,3.2v8c0.1,1,2.4,1.3,3.7,1.1c2.3-0.7,3.8-3.4,4.8-5.5c-0.6,2.3-0.7,5.6,0.4,7.7c-1.7,1.6-4.1,1.8-6.6,1.7
		c-1.7-0.1-3.5,0-5-0.6c-0.6-0.4-0.9-1-0.9-1.8V54.5C15.4,54.7,16.8,55,18.6,56.2L18.6,56.2L18.6,56.2z"/>
	<path class="st1" d="M150.9,55.9c-0.2,0.6-0.8,0.8-0.8,0.8c-0.1,2.2,0.2,4,0.2,4h4.2c0,0,1.4-1.4,2.6-2.1c1.7,0.9,2.8,2.4,2.8,2.4
		c-0.1,0.6-0.4,1-0.4,1h-9c0.4,3.5,1.4,6.9,3.5,9.6c0.9,1.1,2.3,2.7,4,2.2c1.3-0.6,1.8-2.2,2.6-3.3c-0.9,2.3-1.1,5.6-0.2,8.2
		c-2.9,0.7-5.4-0.8-7.6-2.7c-1.1-1.2-1.7-2-2.6-3.4c-4,2.2-9.5,4.7-13.8,5.9c-0.9-1.2-1.5-2.8-2-4.2c0,0,1.3,0.2,5.4-0.2v-6.5h-5
		c0,0-0.4-0.5-0.4-1.3h9.1c0,0,1-1.4,2-2.1c1.5,0.9,2.2,2.2,2.2,2.2c0,0.6-0.4,1.2-0.4,1.2h-3.8v6.1c2.4-0.3,4.5-0.7,6.5-1.3
		c-1.5-3.1-2.4-6.7-2.9-10.2h-12.7c0,0-0.3-0.5-0.3-1.3l12.8,0c-0.1-1.4-0.3-4.3-0.1-6.1C149,55,150.9,55.9,150.9,55.9L150.9,55.9
		L150.9,55.9z"/>
	<path class="st1" d="M206.3,56.3c-0.3,0.6-1,0.8-1,0.8V64h1.5c0,0,0.9-1.3,2.1-2c1.8,1,2.5,2.3,2.5,2.3c-0.1,0.6-0.4,0.9-0.4,0.9
		h-5.8v11.6h2.5c0,0,1-1.5,2.3-2.2c1.7,1.1,2.6,2.6,2.6,2.6c-0.1,0.6-0.4,0.9-0.4,0.9h-17.3c0,0-0.5-0.3-0.5-1.3h7.3V65.3h-4.8
		c0,0-0.4-0.5-0.5-1.3c0,0,5.3,0,5.3,0s0-9,0-9C204.5,55.1,206.3,56.3,206.3,56.3L206.3,56.3L206.3,56.3z"/>
	<path class="st1" d="M51.5,55.6c0.5,0.5,0.5,1.1,0.6,1.6c-1,0-2,0.3-3.4,0.7c-0.1-0.9-0.5-1.7-1-2.4C48.8,55,50.5,54.7,51.5,55.6
		C51.5,55.6,51.5,55.6,51.5,55.6z"/>
	<path class="st1" d="M78.3,58.2c-0.1,0.8-0.4,1.1-0.4,1.1h-9.2v16.7h5c0,0,1.4-1.7,2.9-2.6c1.8,1.1,3.4,2.8,3.4,2.8l-0.4,1.1H54.4
		c0,0-0.5-0.5-0.6-1.3l10.5,0V59.3h-8.9c0,0-0.3-0.5-0.5-1.3h18c0,0,1-1.4,2.3-2.5C76.7,56.3,78.3,58.2,78.3,58.2L78.3,58.2
		L78.3,58.2z"/>
	<path class="st1" d="M156.1,57.6c-1,0.5-2,1.6-2.9,2.2c-0.2-1.5-0.9-2.8-1.9-3.9l0.2-0.2C153.2,55.7,154.8,56.2,156.1,57.6
		L156.1,57.6L156.1,57.6z"/>
	<path class="st1" d="M174.4,56.7c0,0,0.2-0.1,0.3-0.5c-1.6-0.9-3.4-1.6-5.4-1.6c-1.1,5.4-6,10.1-10.4,12.5c2.3-0.5,4.7-1.5,6.9-2.7
		c0,0,0.2,0.4,0.4,0.6H178c0,0,0.4-0.3,0.5-1c1.5,1.1,3.2,1.8,5,1.7c0.5-1.5,1.6-2.8,2.8-3.9C181.9,61.4,177.5,60.7,174.4,56.7
		L174.4,56.7L174.4,56.7z M175.6,62c-1,0.4-1.9,1.6-1.9,1.6h-6.7c2.4-1.7,4.7-3.7,6.3-6.4l0.3-0.1c0.9,2,1.9,4.3,3.6,5.8
		C177.2,63,176.5,62.5,175.6,62L175.6,62L175.6,62z"/>
	<path class="st1" d="M53.6,68.3c-0.7,1.1-1.6,2.1-2.7,2.6c-0.8-0.1-1.4-0.9-1.7-1.6c1.3-1.5,2.1-3.4,3.1-5.1c0,0,0.6,0,0.9-0.3
		c0,0-1.2-1.4-4-2.2c-0.3,1.5-0.6,3.4-1.3,4.7c-0.6-1.7-0.9-3.6-1.1-5.4h6.2c0,0,0.3-0.3,0.4-0.8c0,0-0.9-0.9-2.1-1.6
		c-0.9,0.4-1.7,1.3-1.7,1.3h-2.9c-0.2-1.4-0.2-2.9-0.2-4.4c0,0,0.6-0.2,0.9-0.6c0,0-1.2-0.9-3.7-1c-0.3,2,0.1,5.3,0.1,5.9h-0.9
		c0,0-1.3-0.7-3.2-0.8v11c-0.8,0.4-1.7,0.5-2.4,0.9c0.7,1.1,1.5,1.9,2.4,2.7c2-1.5,4-3.4,5.7-5.4c0.3,0.5,0.5,1.1,0.7,1.6
		c-1.5,2.1-2.7,3.2-6.1,5.3c3.1-0.4,5.1-1.7,7.1-3.3c1.1,2.3,3.2,3.5,5.6,3.3l0.2-0.2C51.9,72.7,52.6,69.9,53.6,68.3L53.6,68.3
		L53.6,68.3z M42.5,68.9V61h1.4c0.2,2.2,0.6,4.5,1.3,6.6C44.4,68.1,43.3,68.5,42.5,68.9C42.5,68.9,42.5,68.9,42.5,68.9z"/>
	<path class="st1" d="M106,72.4c0,0,0.3-0.4,0.4-1c0,0-1-1.3-2.4-1.9c-1.4,0.4-2.3,1.6-2.3,1.6h-6.8v-1.7h7c0,0,0.5-0.7,0.5-1.1
		c0,0-0.7-1-2.3-1.9h3.9c0,0,0.3-0.4,0.3-1c0,0-0.7-1.1-2.4-1.9c-1.1,0.5-2,1.6-2,1.6h-3.2c0,0,1.1-0.7,1.8-1.6c0,0,0.9-0.1,1.3-0.2
		c0,0-0.2-0.7-1.2-1.4h7.6c0,0,0.3-0.4,0.4-1.1c0,0-1.2-1.4-2.7-2.1c-1.1,0.8-2.1,1.9-2.1,1.9H98c0,0,2.6-1.6,3.7-2.6
		c0,0,0.5,0,1.3-0.3c0,0-1.5-1.8-3.8-2.7c-0.4,1.9-1.2,3.8-2.2,5.4v-4.1c0,0,0.4-0.3,0.8-0.7c0,0-1.4-1.1-4-1v6.1h-1.5l0-4.2
		c0,0,0.4-0.3,0.7-0.8c0,0-1.5-1.1-3.9-1.1v3.7c-0.9-0.9-2.8-2.5-5.1-2c2.1,1.5,2.6,3.4,2.6,4.4h-6.1c0.1,0.6,0.6,1.3,0.6,1.3h7.5
		c0.4,1,1,1.9,0.9,3.2h-7.8c0.1,0.7,0.6,1.3,0.6,1.3h9v1.7h-7.6c0.1,0.7,0.6,1.3,0.6,1.3h7v1.7H80.7c0.1,1,0.5,1.3,0.5,1.3H88
		c-1.6,3.1-4.8,5.5-7.7,6.7c4.1-0.4,7.9-2.1,11-5.2v5.8c1.2,0,2.6-0.1,3.6-0.7v-6.7H95c1.2,3.8,4.9,6.6,8.3,7.4
		c0.7-1.3,2.1-2.5,3-3.4c-3.8-0.4-7.3-1.5-10.2-4H106L106,72.4z M89.1,60.6h-0.9l0.9-0.8V60.6L89.1,60.6z M99.9,66.4
		c-0.9,0.6-1.6,1.7-1.6,1.7h-3.3v-1.7C94.9,66.4,99.9,66.4,99.9,66.4z M94.8,65.1h-2.9c0,0,0.5-0.4,0.8-1.2c-0.6-0.8-1.6-1.6-2.3-2
		h5.2C95.4,62.9,95.2,64.1,94.8,65.1C94.8,65.1,94.8,65.1,94.8,65.1z"/>
	<path class="st1" d="M184.5,69c0,0.5-0.3,0.9-0.3,0.9h-11.4c-2.8,4.4-4,5.2-4,5.2c3,0.1,6.3-0.1,9.2-0.4c-0.7-1.3-3.1-3.3-3.1-3.3
		c1.6-0.2,4.1,0.6,4.9,0.9c2,0.9,4,2.9,4.2,5.3c-1.4,0.4-2.6,1-3.9,1.8c-0.3-1.3-0.8-2.5-1.5-3.7c-5,1.5-10.1,2.8-15.4,3.8
		c-0.8-1.4-1.2-2.9-1.4-4.6c1.6,0.1,3.2,0.3,4.9,0.2c0.6-1.6,1.1-3.3,1.3-5.2h-6.7c0,0-0.4-0.6-0.4-1.3h18.4c0,0,0.9-1.1,2.1-2
		C183.6,67.6,184.5,69,184.5,69L184.5,69L184.5,69z"/>
	<path class="st1" d="M126.4,67.5h6.2l0.4-0.8c0,0-1-1.3-2.9-2.2c-1,0.8-1.6,1.7-1.6,1.7h-2.8v-4.3h6c0,0,0.3-0.3,0.4-0.9
		c0,0-0.9-1.3-2.7-2.3c-1,0.6-1.7,1.9-1.7,1.9h-1.9v-4.7c0,0,0.3,0,0.6-0.3c0,0-1.4-1.1-3.9-1.1v6.1h-1.2c0,0,0.3-1,0.5-2.2
		c0,0,0.2,0,0.4-0.3c0,0-1.4-1.2-3.9-1.5c0.3,3.3,0.2,6.7-0.9,9.5h-0.9c-0.7-0.5-1-0.8-2.3-0.9V62h3.2c0,0,0.3-0.4,0.3-0.9
		c0,0-0.4-0.9-1.4-1.7c-0.8,0.6-1.3,1.3-1.3,1.3h-0.7v-4.1l0.5-0.5c0,0-1.5-1-3.8-1.1v5.7h-3.2c0.1,1,0.6,1.3,0.6,1.3h2.6
		c-0.6,5.9-1.8,8.6-3.7,13.4c1.4-1,2.7-2.6,3.8-3.9v7.8c1.6,0,3.3-0.6,3.3-0.6v-0.6c3-1.2,5.9-3.2,8.3-6.1v7.4c0,0,2,0.2,3.3-0.8
		V67.9c0.6,3.5,1.8,7,4.6,9.4c0.7-1,1.9-1.8,3.5-2.5C131,73.2,127.5,71.1,126.4,67.5L126.4,67.5L126.4,67.5z M114.1,77.5v-11
		c0.9,1,1.2,2.5,1,4.1l0.2,0.1l2.8-1.1c0-0.8-0.5-1.4-0.8-2h3.6C120.2,71.4,117.5,75.5,114.1,77.5C114.1,77.5,114.1,77.5,114.1,77.5
		z M122.4,66.2h-4.2c1-1.3,1.9-2.8,2.5-4.3h1.7L122.4,66.2C122.4,66.2,122.4,66.2,122.4,66.2z"/>
</g>
</svg>
