<svg id="レイヤー_1" data-name="レイヤー 1" xmlns="http://www.w3.org/2000/svg" viewBox="0 0 1090 219.25">
  <defs>
    <style>
      .cls-1 {
        fill: #231815;
      }
      .cls-2 {
        fill: #005bac;
      }
    </style>
  </defs>
  <title>logo</title>
  <rect class="cls-1" x="450.46" y="65.44" width="104.48" height="15.54" />
  <path class="cls-1" d="M644.87,357a8.78,8.78,0,0,1,8.77,8.78v31.07H634.5v-22.3H514.89v22.3H495.75V365.74a8.79,8.79,0,0,1,8.79-8.78h59.8V341h20.71V357h59.82" transform="translate(-72 -315.82)" />
  <path class="cls-1" d="M608.19,417.15v7.16h-67v-7.16Zm19.13-6a8,8,0,0,0-7.94-8H530a8,8,0,0,0-8,8v27.1H627.32v-27.1" transform="translate(-72 -315.82)" />
  <path class="cls-1" d="M525.25,460.18v7.17h39.88v-7.17Zm0,20.72v7.17h39.88V480.9Zm59-20.72v7.17h39.86v-7.17Zm0,20.72v7.17h39.86V480.9Zm-78.16-27.49a8.78,8.78,0,0,1,8.77-8.78H634.5a8.78,8.78,0,0,1,8.79,8.78v51.81H506.12V453.41" transform="translate(-72 -315.82)" />
  <polyline class="cls-1" points="658.48 166.29 604.27 166.29 604.27 186.23 735.84 186.23 735.84 166.29 681.61 166.29 681.61 97.71 748.98 97.71 748.98 77.76 681.61 77.76 681.61 31.52 658.48 31.52 658.48 77.76 591.11 77.76 591.11 97.71 658.48 97.71 658.48 166.29" />
  <rect class="cls-1" x="783.18" y="75.36" width="36.67" height="12.36" />
  <rect class="cls-1" x="783.18" y="94.5" width="36.67" height="12.36" />
  <rect class="cls-1" x="854.93" y="75.36" width="36.69" height="12.36" />
  <rect class="cls-1" x="854.93" y="94.5" width="36.69" height="12.36" />
  <path class="cls-1" d="M899,384.4v38.29h20.75V384.4h51v23.14h17.55V378a8.77,8.77,0,0,0-8.78-8.75h-59.8v-7.59h51.85V347.32H854.38v14.36H899v7.59H839.24a8.78,8.78,0,0,0-8.78,8.75v29.52H848V384.4h51" transform="translate(-72 -315.82)" />
  <path class="cls-1" d="M997.87,479.7l-19.12-5.58v15.14h-59V482.5h52.62V437.44a8.74,8.74,0,0,0-8.75-8.76H855.18a8.76,8.76,0,0,0-8.78,8.76l0,45.06H899v10a12.78,12.78,0,0,0,12.77,12.75h77.34a8.77,8.77,0,0,0,8.75-8.78Zm-46.21-37.09v7.18h-31.9v-7.18Zm0,19.14v7.18h-31.9v-7.18Zm-52.65,0v7.18H867.14v-7.18Zm0-19.14v7.18H867.14v-7.18Z" transform="translate(-72 -315.82)" />
  <path
    class="cls-1"
    d="M1162,404.75h-21.54l19.94-35.1h-26.31l11.16-19.12h-20.73l-11.17,19.12v-22.3h-19.14v22.3h-19.92l11.17-19.12h-19.94L1050.62,376h-9.83V347.35h-18.33V376h-18.35v17.55h18.35c0,34.94-11.91,42.4-18.35,46.24v20.74c3.47-.72,15.19-7.42,18.35-14.36v59h18.33V432.65c1.38,1.47,7.07,5.09,10.37,6.39V420.7h44c.27,2.67.59,5.34,1,8h-33.06a6.36,6.36,0,0,0-6.38,6.36v43.3a8,8,0,0,1-8,8v18.82h4.78c12.65-1.26,21.54-7.27,21.54-26.8v-7.4c6.88.22,15.59,3.65,22.33,7.18V460.57c-7-4-12-6.31-22.33-7.18v-8.77h24.11a123.84,123.84,0,0,0,11.86,31.62,81.86,81.86,0,0,1-28,12.24v16.6c16.07-3.7,28.65-8.15,38.42-14.18,6.62,7.22,15.32,11.68,24.57,14.32h16V477.69l-16-4v12a60.65,60.65,0,0,1-9.25-6.83c11-11,14.84-22.06,14.84-27.83H1133.3c-.13,2.78-2.94,7.59-7.8,12.89a88.13,88.13,0,0,1-7.36-19.27H1162V428.68h-8a40.52,40.52,0,0,1-2.38-8H1162ZM1061.18,400a9.54,9.54,0,0,1-8.28,4.78h-2.54v11.53c-2.19-1.45-7.74-6.4-9.57-15.52v-7.17h10.37v-8.78h18.9Zm17.1,4.78,15.93-27.12v27.12Zm35.07-19.94h18.35l-9.57,16a8,8,0,0,1-6.89,4h-1.89Zm1.69,43.87c-.36-2.58-.65-5.22-.89-8h19.94a37.57,37.57,0,0,0,2.4,8H1115"
    transform="translate(-72 -315.82)"
  />
  <path
    class="cls-2"
    d="M411.68,335.91c-20.07-16.87-46.54-23.42-74.55-18.49-25.15,4.44-48.22,17.78-66.21,36.33L277.83,321H146.67c-.3,0-.59,0-.9,0C129,321,114,333.61,110.65,349.91c0,0,0,0,0,0C105.14,375.53,72,531.52,72,531.52h64.87L154,451.33h79.65c2,25.8,12.94,48.18,31.4,63.68,20.08,16.83,46.55,23.4,74.55,18.46,21.12-3.71,41.42-13.82,58.75-29.18a136.06,136.06,0,0,0,37.59-54.89l.52-1.45H421.38l-.27.68c-14.94,36.69-47.9,64.5-84,70.87h0c-23.78,4.19-46.14-1.26-62.95-15.37-17.22-14.45-26.7-36.26-26.7-61.4,0-52.42,41.32-102.37,92.12-111.33,23.8-4.18,46.13,1.26,62.94,15.37,15.67,13.14,24.93,32.36,26.47,54.64H276.81l-3.21,15.13H443.12l.05-1c.18-3.44.28-5.83.28-7.38C443.45,378.75,432.17,353.1,411.68,335.91ZM168.36,383.57h0A11,11,0,0,1,178.89,375H254A136.51,136.51,0,0,0,240.9,401.2H164.51Z"
    transform="translate(-72 -315.82)"
  />
</svg>
