<svg viewBox="0 0 562.12 54.37" xmlns="http://www.w3.org/2000/svg"><g fill="#004ea2"><path d="m43.48 33.41h-.54l-13.84-33.1h-29.1v53.39h16.45l-.02-40.94h.57l19.97 40.94h12.87l19.59-40.18h.65l-.02 40.18h16.35v-53.39h-28.05"/><path d="m88.63.31h16.68v53.4h-16.68z"/><path d="m107.53 15.05h21.9v38.65h16.57v-38.65h21.76v-14.74h-60.23"/><path d="m204.15 21.14-11.68-.42c-5-.28-7.67.33-7.67-4.65 0-3.87 4.75-3.67 14.86-3.67 11.49 0 14.47 0 14.47 5.19h14.45v-2.79c0-14.59-13.58-14.8-28.92-14.8-18.34 0-29.66 1-29.66 16.14s4.55 15.79 21.86 16.7l13.46.26c8.8.42 9.83.35 9.83 4.93s-2.9 4.12-11.69 4.12c-17.6 0-19.33-.57-19.33-6.06h-14.52c0 17.33 4.25 17.62 30 17.62 27.38 0 30.4-1.64 30.4-17.34 0-12.13-3.22-15.23-25.91-15.23"/><path d="m282 33.49c0 7-8.48 7.84-16.43 7.84s-18 .3-18-7.21v-33.81h-15.18v36.27c0 17.11 8 17.79 33.19 17.79 20.58 0 31.6-.68 31.6-17.79v-36.27h-15.18"/><path d="m299.49.31h16.55v53.39h-16.55z"/><path d="m369.64 21.14-11.64-.42c-5-.28-7.68.33-7.68-4.65 0-3.87 4.76-3.67 14.86-3.67 11.49 0 14.47 0 14.47 5.19h14.45v-2.79c-.03-14.59-13.6-14.8-28.95-14.8-18.33 0-29.65 1-29.65 16.14s4.55 15.79 21.85 16.7l13.47.26c8.79.42 9.82.35 9.82 4.93s-2.9 4.12-11.69 4.12c-17.6 0-19.32-.57-19.32-6.06h-14.53c0 17.33 4.25 17.62 30 17.62 27.39 0 30.4-1.64 30.4-17.34 0-12.13-3.22-15.23-25.91-15.23"/><path d="m412.3 33.39h38.24v-11.69h-38.24v-7.73h40.23v-13.67h-55.55v53.51h56.21v-12.85h-40.89"/><path d="m454.86.31h16.55v53.39h-16.55z"/><path d="m541.65.31h-22.64l-22.24 19.87h-7.3v-19.87h-15.88v53.39h15.88v-20.07h7.3l23.73 20.07h23.2l-32.6-27.45"/><path d="m545.57.31h16.55v53.39h-16.55z"/></g></svg>