<?xml version="1.0" encoding="utf-8"?>
<!-- Generator: Adobe Illustrator 27.0.0, SVG Export Plug-In . SVG Version: 6.00 Build 0)  -->
<svg version="1.1" id="レイヤー_1" xmlns="http://www.w3.org/2000/svg" xmlns:xlink="http://www.w3.org/1999/xlink" x="0px"
	 y="0px" viewBox="0 0 668.9 224.7" style="enable-background:new 0 0 668.9 224.7;" xml:space="preserve">
<style type="text/css">
	.st0{fill:#00B7F1;}
</style>
<g>
	<g>
		<g>
			<rect x="540.6" width="23.1" height="16.3"/>
			<path d="M625.7,78.5c-4.7,4.9-10,7.8-16.6,9.2c-4.5,0.9-8.4,1.1-13,0.6c-6-0.6-11-2.6-15.9-6.2c-4-3-6.8-6.2-9.3-10.5
				c-1.9-3.3-3-6.4-3.7-10.2c-0.9-5.2-0.6-9.9,0.8-15c3.2-11.7,11.9-20,23.8-22.4c6.8-1.4,12.8-1.3,19.5,0.5
				c4.8,1.2,8.5,3.3,12.2,6.7c2.3,2.1,3.9,4.2,5.3,7c1.7,3.2,2.4,6.4,2.2,10h-21.1c-0.5-2.8-1.8-5.1-4.1-6.8c-3-2.2-6.8-2.4-9.9-0.5
				c-2.2,1.3-3.6,3.2-4.3,5.6c-1.8,5.8-1.9,11.1-0.3,17c0.7,2.4,1.8,4.4,3.7,6.1c2.1,2,4.8,2.8,7.6,2.4c1.8-0.3,3.2-1.1,4.5-2.4
				c1.3-1.4,2-2.9,2.3-4.8c0.2-1.3,0.4-2.4,0.4-3.7H632C632.5,67.7,630.4,73.6,625.7,78.5"/>
			<rect x="540.6" y="24.7" width="23.1" height="61.8"/>
			<path d="M492.8,31.2c3-2.7,5.9-4.5,9.6-6.2c6-2.8,11.9-3.2,18.2-1.4c6.8,2,11.7,6.8,13.8,13.5c1,3.2,1.5,6.1,1.5,9.5v39.9h-24.5
				V50.6c0-1.2-0.2-2.2-0.5-3.4c-0.6-2.1-2-3.6-4-4.4c-4.3-1.8-9.3-0.2-11.7,3.9c-1,1.7-1.5,3.4-1.5,5.4v34.4H470V24.7h22.3
				L492.8,31.2"/>
			<path d="M219.6,31.2c3-2.7,5.9-4.5,9.6-6.2c6-2.8,11.9-3.2,18.2-1.4c6.8,2,11.7,6.8,13.8,13.5c1,3.2,1.5,6.1,1.5,9.5v39.9h-24.5
				V50.6c0-1.2-0.1-2.2-0.5-3.4c-0.6-2.1-2-3.6-4-4.4c-4.4-1.8-9.3-0.2-11.7,3.9c-1,1.7-1.5,3.4-1.5,5.4v34.4h-23.8V24.7H219
				L219.6,31.2"/>
			<path d="M365.2,63.8c1.8,0.3,3.2,0.7,5,1.2c1.4,0.5,2.4,1.6,2.7,3c0.3,1.6-0.1,3.1-1.2,4.2c-1.2,1.2-2.5,1.9-4.1,2.1
				c-2.2,0.4-4.1,0.2-6.2-0.6c-1-0.4-1.8-0.8-2.6-1.5c-1.1-0.9-1.8-1.9-2.2-3.2c-0.3-1.1-0.5-2.1-0.5-3.3h-22.6v1.3
				c0,2.1,0.3,3.9,1.1,5.9c1.1,3,2.7,5.3,5,7.5c3.1,2.9,6.3,4.7,10.3,5.8c8.4,2.4,15.9,2.9,24.5,1.5c4-0.6,7.4-1.7,11-3.6
				c1.6-0.8,2.9-1.7,4.3-2.8c6.1-5.1,8.4-13,5.9-20.6c-0.9-2.9-2.4-5.1-4.6-7c-3.1-2.7-6.3-4.4-10.2-5.6c-0.9-0.2-1.6-0.5-2.5-0.7
				c-4.9-1.4-9-2.2-14-3c-1.3-0.2-2.5-0.4-3.8-0.7c-0.6-0.1-1.1-0.3-1.7-0.6c-1.4-0.6-2-2.3-1.4-3.7c0-0.1,0.1-0.1,0.1-0.2
				c0.8-1.3,1.8-2.2,3.3-2.6c2.6-0.7,5-0.7,7.5,0.2c2.4,0.8,4,3.1,3.8,5.6h21.8c0-2.7-0.4-4.9-1.3-7.5c-0.9-2.6-2.3-4.5-4.5-6.2
				c-1.9-1.5-3.6-2.5-5.8-3.3c-2.2-0.8-4-1.4-6.3-1.8c-5.4-0.9-10-1.2-15.5-0.9c-3.1,0.2-5.8,0.6-8.8,1.3c-4.1,1-7.4,2.6-10.8,5.2
				c-2.8,2.2-4.7,4.8-5.9,8.2c-0.5,1.5-0.8,2.9-0.9,4.5c-0.1,2.7,0.3,5,1.3,7.5c1.8,4.5,5,7.7,9.5,9.5c2.3,0.9,4.3,1.5,6.7,2
				C356.3,62.2,360.4,62.9,365.2,63.8"/>
			<path d="M94.8,59.9H78.9V39.6h10.3c2,0,3.6-0.1,5.6-0.2c2.7-0.2,5-1.4,6.6-3.5c0.9-1.2,1.3-2.3,1.5-3.8c0.2-1.2,0.2-2.2,0.1-3.4
				c-0.4-4.5-4.2-7.9-8.7-7.9H78.9v65.7H52.7V0h42.9c1.7,0,3.1,0,4.9,0.1c11.4,0.6,20.8,6.9,25.6,17.3c2.5,5.4,3.4,10.5,2.7,16.4
				c-1.4,12.4-10,22.1-22.2,24.8C102.4,59.5,98.9,59.9,94.8,59.9"/>
			<path d="M439.3,23.5c-2.4-0.4-4.5-0.5-7-0.5s-4.6,0.2-7,0.5c-7.1,1.1-12.8,4-18,8.9c-5.5,5.3-8.6,11.6-9.3,19.3
				c-0.4,4.7-0.1,8.7,1.2,13.3c1.9,7,5.6,12.4,11.3,16.8c3.8,2.9,7.5,4.6,12.2,5.7c3.3,0.7,6.2,1,9.5,1c3.4,0,6.2-0.3,9.5-1
				c4.7-1,8.4-2.8,12.2-5.7l-13.3-14.5c-2.1,4.7-7.6,6.8-12.3,4.7c-2.2-1-3.7-2.5-4.7-4.7c-0.9-2-1.4-3.8-1.8-6
				c-0.7-4.3-0.6-8.1,0.3-12.4c0.4-2.2,1.2-4.1,2.4-6c2.7-4.2,8.3-5.3,12.5-2.6c1.1,0.7,1.9,1.5,2.6,2.6c1.2,1.9,2,3.7,2.4,6
				c0.8,4.3,0.9,8.1,0.3,12.4c-0.3,2.2-0.9,4-1.8,6L454,81.8c5.7-4.4,9.4-9.8,11.3-16.8c1.3-4.6,1.6-8.6,1.2-13.3
				c-0.7-7.6-3.7-14-9.3-19.3C452.1,27.5,446.3,24.6,439.3,23.5"/>
			<path d="M330.9,81.6c-0.4-5.1-0.5-9.4-0.6-14.5c-0.1-6.7-0.2-12.4-0.3-19.1c0-3.6-0.4-6.7-1.3-10.2c-1.2-4.6-3.9-8.1-8-10.4
				c-2.5-1.4-4.8-2.3-7.6-2.9c-8.9-1.9-16.8-2.1-25.8-0.5c-2.5,0.4-4.6,1-7,2c-5.5,2.3-9.2,6.4-11,12c-0.7,2.2-0.9,4.1-0.6,6.4
				c0,0.4,0.2,0.8,0.3,1.1l20.8,0.5c0-1.3,0.1-2.5,0.6-3.7c0.7-1.9,2-3.2,3.9-3.9c2.8-1,5.5-1.1,8.3-0.1c1.9,0.6,3.2,1.9,3.8,3.8
				c0.4,1.2,0.2,2.3-0.5,3.3c-0.6,0.9-1.4,1.5-2.4,1.9c-0.6,0.2-1.1,0.4-1.8,0.6c-2.9,0.8-5.4,1.3-8.3,1.8c-2.3,0.4-4.3,0.8-6.6,1.2
				c-3.2,0.6-5.8,1.3-8.8,2.3c-2.8,0.9-5,2.2-7.1,4.2c-2.8,2.6-4.4,5.6-4.9,9.4c-0.4,2.5-0.3,4.7,0.3,7.2
				c1.5,6.4,5.9,11.2,12.3,13.1c7,2,13.6,1.7,20.4-1c3.3-1.3,5.8-3.2,8.1-5.9l-1.5-10.6c-1,1.6-2.3,2.7-4.1,3.5
				c-1.7,0.7-3.1,1.1-4.9,1.3c-1.5,0.1-2.8,0-4.2-0.4c-1.2-0.3-2.1-0.9-2.9-1.8c-0.7-0.8-1.1-1.6-1.3-2.6c-0.3-1.6,0.2-3.1,1.4-4.1
				c0.8-0.7,1.6-1.1,2.6-1.5c2.4-0.9,4.5-1.6,6.9-2.3c3-0.8,5.5-1.8,8.3-3.1c0.3,2.3,0.3,4.2,0,6.4c-0.2,1.6-0.7,3-1.6,4.4l1.5,10.6
				c0.5,1.5,0.9,2.8,1.4,4.2c0.3,0.8,0.7,1.5,1.2,2.1h22.9C331.5,85,331,83.4,330.9,81.6"/>
			<path d="M192.2,81.6c-0.4-5.1-0.5-9.4-0.6-14.5c-0.1-6.7-0.2-12.4-0.3-19.1c0-3.6-0.4-6.7-1.3-10.2c-1.2-4.6-3.9-8.1-8-10.4
				c-2.5-1.4-4.8-2.3-7.6-2.9c-8.9-1.9-16.8-2.1-25.8-0.5c-2.5,0.4-4.6,1-7,2c-5.5,2.3-9.2,6.4-11,12c-0.7,2.2-0.9,4.1-0.6,6.4
				c0.1,0.4,0.1,0.8,0.3,1.1l20.8,0.5c-0.1-1.3,0.1-2.5,0.6-3.7c0.7-1.9,2-3.2,3.9-3.9c2.8-1,5.5-1.1,8.3-0.1
				c1.9,0.6,3.2,1.9,3.8,3.8c0.4,1.2,0.2,2.3-0.5,3.3c-0.6,0.9-1.4,1.5-2.4,1.9c-0.6,0.2-1.1,0.4-1.8,0.6c-2.9,0.8-5.4,1.3-8.3,1.8
				c-2.3,0.4-4.3,0.8-6.6,1.2c-3.1,0.6-5.8,1.3-8.8,2.3c-2.8,0.9-5,2.2-7.1,4.2c-2.8,2.6-4.4,5.6-4.9,9.4c-0.4,2.5-0.3,4.7,0.3,7.2
				c1.4,6.4,5.9,11.2,12.3,13.1c7,2,13.6,1.7,20.4-1c3.3-1.3,5.8-3.2,8.1-5.9l-1.5-10.6c-1,1.6-2.4,2.7-4.1,3.5
				c-1.6,0.7-3.1,1.1-4.9,1.3c-1.5,0.1-2.8,0-4.2-0.4c-1.2-0.3-2.1-0.9-2.9-1.8c-0.7-0.8-1.1-1.6-1.3-2.6c-0.3-1.6,0.2-3.1,1.4-4.1
				c0.8-0.7,1.6-1.1,2.6-1.5c2.4-0.9,4.5-1.6,6.9-2.3c3-0.8,5.5-1.8,8.3-3.1c0.3,2.3,0.3,4.2-0.1,6.4c-0.2,1.6-0.7,3-1.6,4.4
				l1.5,10.6c0.5,1.5,0.9,2.8,1.4,4.2c0.3,0.8,0.7,1.5,1.2,2.1h22.9C192.8,85,192.3,83.4,192.2,81.6"/>
		</g>
		<g>
			<path class="st0" d="M433.6,221.3h67.6V205h-48.8v-23.2h38.5V166h-38.5v-20.2h47.2v-16.2h-66L433.6,221.3L433.6,221.3z"/>
			<path class="st0" d="M622.4,221.3h19.1v-75.4h27.5v-16.3h-74v16.3h27.5V221.3z"/>
			<path class="st0" d="M295.6,129.6v65.1h-0.1h-0.5c0,0-8-10.6-23.1-31.4c-8.4-11.5-24.9-33.7-24.9-33.7h-20.2v91.7h19.1v-64.9h0.5
				c0,0,7.6,11.1,23.4,32.1c9.2,12.2,25.5,32.9,25.5,32.9h19.3v-91.7L295.6,129.6L295.6,129.6z"/>
			<path class="st0" d="M399,129.6v65.1h-0.1h-0.5c0,0-8-10.6-23.1-31.4c-8.3-11.5-24.9-33.7-24.9-33.7h-20.2v91.7h19.1v-64.9h0.5
				c0,0,7.6,11.1,23.4,32.1c9.2,12.2,25.5,32.9,25.5,32.9H418v-91.7L399,129.6L399,129.6z"/>
			<path class="st0" d="M554.4,206.4c-16.1,0-30.8-13.2-30.8-31c0-17,14.3-30.7,30.8-30.7c8.5,0,15.7,2.6,22,8.4l11.6-11.9
				c-8.7-8.9-21.4-14.9-34.5-14.9c-26.5,0-48.5,21.8-48.5,49.1s22,49.4,48.4,49.4c17.1,0,28-7.7,36.7-16.9l-11.5-12
				C573.4,201.4,566.2,206.4,554.4,206.4z"/>
			<path class="st0" d="M166.6,126.2c-11.9,0-24.1,2.9-37.9,17.3c-7.1,7.4-23.1,31.8-37.3,45.7c-8.5,8.4-19.9,15.9-34.4,15.9
				c-21.4,0-36.7-17.7-36.7-36.2c0-20.9,17-36.4,36-36.4c9.9,0,18.9,3.2,25.6,9.7l13-13.1l0,0c0,0-7.1-7.6-19.2-12.3
				c-5.8-2.3-12-3.7-18.6-3.7C25.5,113.2,0,138.2,0,168.9s25.5,55.7,57.1,55.7c15.8,0,31.9-6.7,44.7-19.2
				c6.7-6.6,12.6-13.7,17.1-20.7c1.3,8.5,5,17.9,13.7,26.7c8.5,8.5,21.1,13.2,34,13.2c27.2,0,49.7-22,49.7-49.2
				C216.3,148.3,193.8,126.2,166.6,126.2z M167,205.7c-16.4,0-29.7-13.6-29.7-30.3s13.3-30.3,29.7-30.3s29.7,13.6,29.7,30.3
				S183.4,205.7,167,205.7z"/>
		</g>
	</g>
</g>
</svg>
