<svg xmlns="http://www.w3.org/2000/svg" width="399.552" height="68.02" viewBox="0 0 399.552 68.02"><g transform="translate(-15.85 -13.5)"><path d="M343.06,80.97l13.89-66.53,24.4-.03-13.9,66.53Z" transform="translate(10.822)" fill="#e8382f"/><path d="M181.42,81.06,167.02,38.9l-8.8,42.18-11.52.01,13.88-66.43,23.03-.03,15.53,47.41,9.91-47.44,11.51-.01L206.69,81.02Z" transform="translate(4.661)" fill="#e8382f"/><path d="M288.44,14.51l-58.76.06-2.05,9.8,27.66-.03L217.25,71.22l-2.04,9.79,58.77-.06,2.05-9.79-30.11.03,40.47-46.88Z" transform="translate(6.825)" fill="#e8382f"/><path d="M317,80.91h21.67l-4.58-66.42H306.96L278.83,80.94l12.09.11,5.7-13.47h19.44ZM300,59.58l13.33-31.52,2.16,31.5Z" transform="translate(8.508)" fill="#e8382f"/><path d="M120.61,81.12h21.67L137.69,14.7H110.56L82.46,81.16l12.09.11,5.7-13.47h19.44Zm-17-21.32L117,28.28l2.17,31.5Z" transform="translate(2.516)" fill="#e8382f"/><path d="M87.84,28c0-9.48-3.56-13.19-14.82-13.19H29.85l-14,66.71H61.16c17.19,0,19.57-10.82,20.76-19.71s-2.38-13-8.9-16.61C80.14,42.82,87.84,37.48,87.84,28ZM57.89,57.65C57,63.28,56,72.18,47.09,72.18H41.31L46.15,49h7C57.89,49,58.79,52,57.89,57.65Zm5.64-27C62.35,36,61.75,41,54.05,41H47.83l3.83-18.38h7.72c3.26.04,5.34,2.7,4.15,8.04Z" fill="#e8382f"/><path d="M385,23.39a9.79,9.79,0,1,1,9.82,9.69A9.64,9.64,0,0,1,385,23.39Zm9.82,8.08a7.81,7.81,0,0,0,7.82-8.08,7.85,7.85,0,1,0-15.69,0,7.82,7.82,0,0,0,7.82,8.08Zm-2-2.48H391V17.85h4.24c2.62,0,3.93,1,3.93,3.16a2.91,2.91,0,0,1-2.89,3.08l3.17,4.9H397.6l-2.93-4.83h-1.94Zm2-6.26c1.43,0,2.71-.1,2.71-1.81,0-1.38-1.26-1.64-2.43-1.64h-2.29v3.45Z" transform="translate(10.822)" fill="#e8382f"/></g></svg>