<?xml version="1.0" encoding="utf-8"?>
<!-- Generator: Adobe Illustrator 27.1.1, SVG Export Plug-In . SVG Version: 6.00 Build 0)  -->
<svg version="1.1" id="レイヤー_1" xmlns="http://www.w3.org/2000/svg" xmlns:xlink="http://www.w3.org/1999/xlink" x="0px"
	 y="0px" viewBox="0 0 400 76" style="enable-background:new 0 0 400 76;" xml:space="preserve">
<style type="text/css">
	.st0{fill:#E60012;}
</style>
<g>
	<g>
		<path d="M142.38,22.59c0.05,21.63,12.82,22.52,15.43,22.58l0,0c0.3,0,0.45-0.01,0.5-0.01l0,0c0,0,0.16,0.01,0.45,0.01l0,0
			c2.6-0.05,15.38-0.94,15.42-22.58l0,0C174.14,0.94,161.36,0.05,158.76,0l0,0c-0.29,0-0.44,0.02-0.51,0.02l0,0
			c0,0-0.15-0.02-0.44-0.02l0,0C155.2,0.05,142.43,0.95,142.38,22.59L142.38,22.59z M158.29,36.13c-0.02,0-1.59,0-1.88-1.59l0,0
			c-0.2-1.21-0.54-6.33-0.54-10.44l0,0c0-0.53,0.01-1.04,0.02-1.51l0,0c-0.01-0.5-0.02-1.01-0.02-1.53l0,0
			c0-4.11,0.34-9.23,0.54-10.43l0,0c0.29-1.59,1.87-1.6,1.88-1.59l0,0c0.02,0,1.59,0,1.89,1.6l0,0c0.18,1.19,0.52,6.3,0.52,10.41
			l0,0c0,0.53,0,1.05-0.01,1.55l0,0c0,0.46,0.01,0.98,0.01,1.53l0,0c0,4.11-0.32,9.22-0.52,10.43l0,0c-0.28,1.5-1.7,1.59-1.87,1.59
			l0,0C158.3,36.13,158.29,36.13,158.29,36.13L158.29,36.13z"/>
		<path d="M199.67,45.16h13.58c0-3.4,0.02-30.5,0.13-32.56l0,0c0.15-2.04,2.13-2.75,2.89-2.96l0,0V1.62h-14.63V9.5
			c2.26,0.41,2.69,2.59,2.69,2.69l0,0l-0.03,7.46l-0.69,0.12l-6.43-18.15h-17.19v7.99c2.97,0.53,3.16,2.97,3.13,3.3l0,0h-0.22
			l0.22,0.02c0,0,0.24,12.31,0.24,18.1l0,0c0,0.96-0.01,1.75-0.02,2.26l0,0c-0.09,3.09-2.28,3.74-3.15,3.87l0,0v7.99h14.95v-7.87
			c-2.66-0.27-2.89-2.89-2.88-3.66l0,0c0-0.16,0.01-0.27,0.01-0.24l0,0l0.1-8.12l0.68-0.11L199.67,45.16L199.67,45.16z"/>
		<path d="M237.26,45.17c2.6-0.05,15.38-0.94,15.42-22.58l0,0c-0.04-21.65-12.83-22.54-15.42-22.58l0,0c-0.3,0-0.44,0.01-0.51,0.01
			l0,0c0,0-0.15-0.01-0.44-0.01l0,0c-2.61,0.05-15.38,0.93-15.43,22.58l0,0c0.05,21.63,12.82,22.52,15.43,22.58l0,0
			c0.29,0,0.45-0.01,0.5-0.01l0,0C236.8,45.16,236.96,45.17,237.26,45.17L237.26,45.17z M236.77,36.13c-0.01,0-1.59,0-1.88-1.58l0,0
			c-0.21-1.22-0.54-6.33-0.54-10.45l0,0c0-0.54,0.02-1.04,0.02-1.51l0,0c-0.02-0.49-0.02-1.01-0.02-1.54l0,0
			c0-4.11,0.35-9.23,0.54-10.43l0,0c0.29-1.59,1.87-1.59,1.88-1.59l0,0c0.02,0,1.6,0,1.89,1.6l0,0c0.18,1.19,0.52,6.26,0.52,10.37
			l0,0c0,0.55,0,1.08-0.01,1.59l0,0c0,0.49,0.01,1.01,0.01,1.58l0,0c0,4.11-0.32,9.18-0.53,10.38l0,0c-0.27,1.5-1.7,1.59-1.86,1.59
			l0,0C236.79,36.13,236.77,36.13,236.77,36.13L236.77,36.13z"/>
		<path d="M276.29,44.56c0,0,0.15,0.01,0.44,0.01l0,0c2.62-0.05,15.39-0.92,15.43-21.9l0,0c-0.04-20.95-13.61-21.84-16.4-21.88l0,0
			c-0.32,0-0.49,0-0.51,0.01l0,0h-16.23v7.77c0.68,0.25,2.52,1.02,2.75,2.64l0,0c0.16,1.67,0.41,10.65,0.41,10.67l0,0
			c0,0.03-0.06,9.91-0.42,11.21l0,0c-0.23,0.94-0.05,2.39-2.83,3.25l0,0v8.17L276.29,44.56L276.29,44.56z M276.26,35.48l-0.01,0.35
			l-1.95-0.07V9.61l0.33-0.01l1.63-0.08l0.1,0.06c0.02,0.02,1.43,0.85,1.7,2.33l0,0c0.2,1.17,0.71,5.79,0.71,9.73l0,0
			c0,0.35,0,0.7-0.02,1.04l0,0c0.01,0.39,0.02,0.8,0.02,1.24l0,0c0,4.01-0.42,8.99-0.62,10.18l0,0c-0.29,1.54-1.81,1.72-1.84,1.73
			l0,0L276.26,35.48L276.26,35.48z"/>
		<path d="M295.68,45.16h14.19v-7.85c-1.6-0.25-2.12-1.49-2.09-2.5l0,0c0.01-1.08,0.42-2.04,0.43-2.06l0,0l0.09-0.22h4.94l0.11,0.2
			c0.38,0.81,0.55,1.5,0.55,2.09l0,0c-0.04,1.83-1.58,2.34-2.26,2.47l0,0v7.84h17.59v-8.11c-3.12-0.54-3.36-2.6-3.6-3.73l0,0
			c-0.32-1.21-6.07-28.62-6.71-31.7l0,0h-13.17c-0.59,3.02-5.67,29.05-6.49,32.25l0,0c-0.73,2.82-2.74,3.42-3.56,3.54l0,0V45.16
			L295.68,45.16z M311.79,25.73h-2.47l1.14-6.27l0.69,0l0.99,5.86l-0.35,0.05v-0.35v0.35l0.35-0.05l0.07,0.41H311.79L311.79,25.73z"
			/>
		<path d="M355.45,45.16h13.59c0-3.41,0.02-30.5,0.12-32.56l0,0c0.15-2.04,2.14-2.76,2.88-2.96l0,0V1.62h-14.63V9.5
			c2.25,0.42,2.68,2.59,2.69,2.69l0,0l-0.03,7.46l-0.69,0.12l-6.44-18.15h-17.18v7.99c2.97,0.53,3.16,2.97,3.13,3.3l0,0h-0.22
			l0.23,0.02c0,0,0.23,12.32,0.23,18.1l0,0c0,0.96,0,1.74-0.02,2.26l0,0c-0.09,3.09-2.27,3.74-3.14,3.87l0,0v7.99h14.94v-7.88
			c-2.66-0.27-2.9-2.9-2.88-3.66l0,0c0-0.16,0-0.27,0-0.23l0,0l0.09-8.11l0.68-0.12L355.45,45.16L355.45,45.16z"/>
		<path d="M381.05,45.16h18.37v-7.74c-2.43-0.71-2.72-2.46-2.92-3.34l0,0c-0.27-1.13-0.33-10.12-0.33-10.16l0,0
			c0-0.01,0.08-7.46,0.32-10.65l0,0c0.21-2.74,2.2-3.43,3-3.59l0,0V1.8h-18.53v7.87c0.8,0.16,2.79,0.85,3,3.59l0,0
			c0.24,3.19,0.33,10.64,0.33,10.66l0,0c-0.01,0.03-0.07,9.02-0.33,10.15l0,0c-0.2,0.89-0.48,2.64-2.91,3.34l0,0V45.16L381.05,45.16
			z"/>
	</g>
	<g>
		<g>
			<g>
				<g>
					<polygon class="st0" points="62.64,57.15 75.73,75.4 62.64,75.4 					"/>
					<polygon class="st0" points="121.32,1.47 0.5,1.47 57.18,50.76 39.08,18.73 82.74,18.73 64.64,50.76 					"/>
					<polygon class="st0" points="59.17,57.15 46.08,75.4 59.17,75.4 					"/>
				</g>
			</g>
		</g>
	</g>
	<g>
		<path d="M185.48,66.12v9.1h-2.15v-9.1h-2.88V64.2h7.91v1.92H185.48z"/>
		<path d="M191.03,75.22V64.2h2.15v11.02H191.03z"/>
		<path d="M202.53,75.22l-2.15-4.39h-1.55v4.39h-2.15V64.2H201c2.24,0,3.57,1.53,3.57,3.37c0,1.55-0.94,2.51-2.01,2.89l2.46,4.75
			H202.53z M200.86,66.12h-2.03v2.91h2.03c0.94,0,1.56-0.6,1.56-1.45C202.42,66.73,201.8,66.12,200.86,66.12z"/>
		<path d="M207.72,75.22V64.2h7.26v1.92h-5.11v2.58h4.35v1.92h-4.35v2.68h5.11v1.92H207.72z"/>
		<path d="M225.56,75.31c-1.67,0-2.94-0.36-4.02-1.45l1.39-1.39c0.7,0.7,1.64,0.93,2.66,0.93c1.27,0,1.95-0.48,1.95-1.36
			c0-0.39-0.11-0.71-0.34-0.93c-0.22-0.2-0.46-0.31-0.97-0.39l-1.33-0.19c-0.94-0.14-1.64-0.43-2.14-0.91
			c-0.53-0.53-0.79-1.24-0.79-2.17c0-1.96,1.45-3.34,3.84-3.34c1.52,0,2.62,0.37,3.56,1.28l-1.36,1.35
			c-0.7-0.67-1.53-0.76-2.26-0.76c-1.15,0-1.7,0.64-1.7,1.39c0,0.28,0.09,0.57,0.32,0.79c0.22,0.2,0.57,0.37,1.02,0.43l1.3,0.19
			c1.01,0.14,1.64,0.42,2.1,0.85c0.59,0.56,0.85,1.36,0.85,2.34C229.65,74.11,227.87,75.31,225.56,75.31z"/>
		<path d="M232.6,75.22V64.2h7.26v1.92h-5.11v2.58h4.35v1.92h-4.35v2.68h5.11v1.92H232.6z"/>
		<path d="M248.74,75.22l-2.15-4.39h-1.55v4.39h-2.15V64.2h4.32c2.24,0,3.57,1.53,3.57,3.37c0,1.55-0.94,2.51-2.01,2.89l2.46,4.75
			H248.74z M247.07,66.12h-2.03v2.91h2.03c0.94,0,1.56-0.6,1.56-1.45C248.63,66.73,248.01,66.12,247.07,66.12z"/>
		<path d="M257.94,75.22h-1.61L252.7,64.2h2.23l2.21,7.18l2.21-7.18h2.24L257.94,75.22z"/>
		<path d="M263.85,75.22V64.2H266v11.02H263.85z"/>
		<path d="M273.18,75.31c-1.21,0-2.2-0.43-2.97-1.21c-1.11-1.11-1.08-2.49-1.08-4.39c0-1.9-0.03-3.28,1.08-4.39
			c0.77-0.77,1.76-1.21,2.97-1.21c2.06,0,3.67,1.18,4.05,3.48h-2.18c-0.22-0.88-0.77-1.56-1.86-1.56c-0.59,0-1.07,0.22-1.38,0.57
			c-0.42,0.46-0.54,0.99-0.54,3.11c0,2.12,0.12,2.65,0.54,3.11c0.31,0.36,0.79,0.57,1.38,0.57c1.08,0,1.64-0.68,1.86-1.56h2.18
			C276.85,74.14,275.22,75.31,273.18,75.31z"/>
		<path d="M280.02,75.22V64.2h7.26v1.92h-5.11v2.58h4.35v1.92h-4.35v2.68h5.11v1.92H280.02z"/>
		<path d="M297.85,75.31c-1.67,0-2.94-0.36-4.02-1.45l1.39-1.39c0.7,0.7,1.64,0.93,2.66,0.93c1.27,0,1.95-0.48,1.95-1.36
			c0-0.39-0.11-0.71-0.34-0.93c-0.22-0.2-0.46-0.31-0.97-0.39l-1.33-0.19c-0.94-0.14-1.64-0.43-2.14-0.91
			c-0.53-0.53-0.79-1.24-0.79-2.17c0-1.96,1.45-3.34,3.84-3.34c1.52,0,2.61,0.37,3.56,1.28l-1.36,1.35
			c-0.7-0.67-1.53-0.76-2.26-0.76c-1.15,0-1.7,0.64-1.7,1.39c0,0.28,0.09,0.57,0.32,0.79c0.22,0.2,0.57,0.37,1.02,0.43l1.3,0.19
			c1.01,0.14,1.64,0.42,2.1,0.85c0.59,0.56,0.85,1.36,0.85,2.34C301.94,74.11,300.16,75.31,297.85,75.31z"/>
		<path d="M311.56,74.11c-0.77,0.77-1.72,1.21-2.97,1.21c-1.25,0-2.21-0.43-2.99-1.21c-1.11-1.11-1.08-2.49-1.08-4.39
			c0-1.9-0.03-3.28,1.08-4.39c0.77-0.77,1.73-1.21,2.99-1.21c1.25,0,2.2,0.43,2.97,1.21c1.11,1.11,1.1,2.49,1.1,4.39
			C312.66,71.62,312.68,72.99,311.56,74.11z M309.97,66.62c-0.31-0.36-0.79-0.59-1.38-0.59c-0.59,0-1.08,0.23-1.39,0.59
			c-0.42,0.46-0.53,0.97-0.53,3.09c0,2.12,0.11,2.63,0.53,3.09c0.31,0.36,0.8,0.59,1.39,0.59c0.59,0,1.07-0.23,1.38-0.59
			c0.42-0.46,0.54-0.97,0.54-3.09C310.51,67.59,310.39,67.08,309.97,66.62z"/>
		<path d="M315.78,75.22V64.2h2.15v9.1h5v1.92H315.78z"/>
		<path d="M329.49,75.31c-2.26,0-4.05-1.53-4.05-3.87V64.2h2.15v7.16c0,1.27,0.74,2.03,1.9,2.03s1.92-0.76,1.92-2.03V64.2h2.14v7.24
			C333.54,73.78,331.75,75.31,329.49,75.31z"/>
		<path d="M341.08,66.12v9.1h-2.15v-9.1h-2.88V64.2h7.91v1.92H341.08z"/>
		<path d="M346.63,75.22V64.2h2.15v11.02H346.63z"/>
		<path d="M358.95,74.11c-0.77,0.77-1.72,1.21-2.97,1.21c-1.25,0-2.21-0.43-2.99-1.21c-1.11-1.11-1.08-2.49-1.08-4.39
			c0-1.9-0.03-3.28,1.08-4.39c0.77-0.77,1.73-1.21,2.99-1.21c1.25,0,2.2,0.43,2.97,1.21c1.11,1.11,1.1,2.49,1.1,4.39
			C360.05,71.62,360.06,72.99,358.95,74.11z M357.35,66.62c-0.31-0.36-0.79-0.59-1.38-0.59s-1.08,0.23-1.39,0.59
			c-0.42,0.46-0.53,0.97-0.53,3.09c0,2.12,0.11,2.63,0.53,3.09c0.31,0.36,0.8,0.59,1.39,0.59s1.07-0.23,1.38-0.59
			c0.42-0.46,0.54-0.97,0.54-3.09C357.89,67.59,357.77,67.08,357.35,66.62z"/>
		<path d="M369.68,75.22l-4.36-6.76v6.76h-2.15V64.2h1.92l4.36,6.75V64.2h2.15v11.02H369.68z"/>
	</g>
</g>
</svg>
