<svg width="32" height="32" viewBox="0 0 32 32" fill="none" xmlns="http://www.w3.org/2000/svg">
<path d="M31 14.0895C31 7.37313 24.2836 2 16 2C7.71642 2 1 7.37313 1 14.0895C1 20.1343 6.37314 25.0597 13.5373 25.9552C13.9851 25.9552 14.6567 26.1791 14.8806 26.6269C15.1045 27.0746 14.8806 27.5224 14.8806 27.9701C14.8806 27.9701 14.6567 29.0895 14.6567 29.3134C14.6567 29.7612 14.4328 30.8806 16 30.209C17.5672 29.5373 24.5075 25.0597 27.6418 21.4776C29.8806 19.2388 31 16.7761 31 14.0895Z" fill="white"/>
<path d="M26.0743 17.8956C26.2982 17.8956 26.2982 17.6717 26.2982 17.6717V16.5523C26.2982 16.3285 26.0743 16.3285 26.0743 16.3285H23.1638V15.2091H26.0743C26.2982 15.2091 26.2982 14.9852 26.2982 14.9852V13.8658C26.2982 13.6419 26.0743 13.6419 26.0743 13.6419H23.1638V12.5225H26.0743C26.2982 12.5225 26.2982 12.2986 26.2982 12.2986V11.1792C26.2982 10.9553 26.0743 10.9553 26.0743 10.9553H21.8206C21.5967 10.9553 21.5967 10.9553 21.5967 11.1792V17.6717C21.5967 17.8956 21.8206 17.8956 21.8206 17.8956H26.0743Z" fill="#4CC764"/>
<path d="M10.4029 17.8956C10.6268 17.8956 10.6268 17.6717 10.6268 17.6717V16.5523C10.6268 16.3285 10.4029 16.3285 10.4029 16.3285H7.49246V11.1792C7.49246 10.9553 7.26857 10.9553 7.26857 10.9553H6.14917C5.92529 10.9553 5.92529 11.1792 5.92529 11.1792V17.6717C5.92529 17.8956 6.14917 17.8956 6.14917 17.8956H10.4029Z" fill="#4CC764"/>
<path d="M13.0899 10.9553H11.9705C11.7466 10.9553 11.7466 11.1792 11.7466 11.1792V17.6717C11.7466 17.8956 11.9705 17.8956 11.9705 17.8956H13.0899C13.3138 17.8956 13.3137 17.6717 13.3137 17.6717V11.1792C13.3137 10.9553 13.0899 10.9553 13.0899 10.9553Z" fill="#4CC764"/>
<path d="M20.2542 10.9553H19.1348C18.911 10.9553 18.911 11.1792 18.911 11.1792V14.9852L16.0005 10.9553H14.8811C14.6572 10.9553 14.6572 11.1792 14.6572 11.1792V17.6717C14.6572 17.8956 14.8811 17.8956 14.8811 17.8956H16.0005C16.2244 17.8956 16.2244 17.6717 16.2244 17.6717V13.8658L19.1348 17.8956H20.2542C20.4781 17.8956 20.4781 17.6717 20.4781 17.6717V11.1792C20.4781 10.9553 20.4781 10.9553 20.2542 10.9553Z" fill="#4CC764"/>
</svg>
