<svg width="32" height="32" viewBox="0 0 32 32" fill="none" xmlns="http://www.w3.org/2000/svg">
<mask id="mask0_4241_700" style="mask-type:alpha" maskUnits="userSpaceOnUse" x="0" y="0" width="32" height="32">
<rect width="32" height="32" fill="white"/>
</mask>
<g mask="url(#mask0_4241_700)">
<path d="M25.3333 15.9334C25.3333 13.3334 24.4278 11.1278 22.6167 9.31668C20.8056 7.50557 18.6 6.60002 16 6.60002V3.93335C17.6667 3.93335 19.2278 4.25002 20.6833 4.88335C22.1389 5.51668 23.4056 6.37224 24.4833 7.45002C25.5611 8.52779 26.4167 9.79446 27.05 11.25C27.6833 12.7056 28 14.2667 28 15.9334H25.3333ZM20 15.9334C20 14.8222 19.6111 13.8778 18.8333 13.1C18.0556 12.3222 17.1111 11.9333 16 11.9333V9.26668C17.8444 9.26668 19.4167 9.91668 20.7167 11.2167C22.0167 12.5167 22.6667 14.0889 22.6667 15.9334H20ZM26.6 28C23.8222 28 21.0778 27.3945 18.3667 26.1834C15.6556 24.9722 13.1889 23.2556 10.9667 21.0333C8.74444 18.8111 7.02778 16.3445 5.81667 13.6333C4.60556 10.9222 4 8.17779 4 5.40002C4 5.00002 4.13333 4.66668 4.4 4.40002C4.66667 4.13335 5 4.00002 5.4 4.00002H10.8C11.1111 4.00002 11.3889 4.10557 11.6333 4.31668C11.8778 4.52779 12.0222 4.77779 12.0667 5.06668L12.9333 9.73335C12.9778 10.0889 12.9667 10.3889 12.9 10.6333C12.8333 10.8778 12.7111 11.0889 12.5333 11.2667L9.3 14.5333C9.74444 15.3556 10.2722 16.15 10.8833 16.9167C11.4944 17.6834 12.1667 18.4222 12.9 19.1333C13.5889 19.8222 14.3111 20.4611 15.0667 21.05C15.8222 21.6389 16.6222 22.1778 17.4667 22.6667L20.6 19.5333C20.8 19.3333 21.0611 19.1834 21.3833 19.0834C21.7056 18.9833 22.0222 18.9556 22.3333 19L26.9333 19.9333C27.2444 20.0222 27.5 20.1833 27.7 20.4167C27.9 20.65 28 20.9111 28 21.2V26.6C28 27 27.8667 27.3334 27.6 27.6C27.3333 27.8667 27 28 26.6 28Z" fill="white"/>
</g>
</svg>
