<svg width="32" height="26" viewBox="0 0 32 26" fill="none" xmlns="http://www.w3.org/2000/svg">
<path d="M2.23351 25.9234C1.81307 25.9234 1.46062 25.7812 1.17618 25.4967C0.891734 25.2123 0.749512 24.8598 0.749512 24.4394C0.749512 24.024 0.891734 23.676 1.17618 23.3954C1.46062 23.1145 1.81307 22.974 2.23351 22.974H29.7668C30.1873 22.974 30.5397 23.1145 30.8242 23.3954C31.1086 23.6763 31.2508 24.0244 31.2508 24.4397C31.2508 24.8548 31.1086 25.2058 30.8242 25.4927C30.5397 25.7798 30.1873 25.9234 29.7668 25.9234H2.23351ZM5.55951 21.6407C4.57507 21.6407 3.74007 21.2979 3.05451 20.6124C2.36896 19.9268 2.02618 19.0918 2.02618 18.1074V3.89271C2.02618 2.90826 2.36896 2.07326 3.05451 1.38771C3.74007 0.702152 4.57507 0.359375 5.55951 0.359375H26.4408C27.4253 0.359375 28.2603 0.702152 28.9458 1.38771C29.6314 2.07326 29.9742 2.90826 29.9742 3.89271V18.1074C29.9742 19.0918 29.6314 19.9268 28.9458 20.6124C28.2603 21.2979 27.4253 21.6407 26.4408 21.6407H5.55951ZM5.55951 18.1074H26.4408V3.89271H5.55951V18.1074Z" fill="white"/>
</svg>
