<svg width="12" height="12" viewBox="0 0 12 12" fill="none" xmlns="http://www.w3.org/2000/svg">
<path d="M1.33464 10.667H2.06664L9.1988 3.53499L8.46664 2.80283L1.33464 9.93499V10.667ZM0.667969 11.3337V9.65416L9.45514 0.857993C9.52347 0.797104 9.59886 0.750048 9.6813 0.716825C9.76386 0.683603 9.84991 0.666992 9.93947 0.666992C10.029 0.666992 10.1158 0.681103 10.1998 0.709325C10.2837 0.737547 10.3611 0.788381 10.4321 0.861826L11.1436 1.57733C11.2171 1.64821 11.2673 1.72599 11.2943 1.81066C11.3212 1.89544 11.3346 1.98016 11.3346 2.06483C11.3346 2.15516 11.3194 2.2416 11.289 2.32416C11.2585 2.4066 11.2101 2.48199 11.1436 2.55033L2.34747 11.3337H0.667969ZM8.8263 3.17533L8.46664 2.80283L9.1988 3.53499L8.8263 3.17533Z" fill="#333333"/>
</svg>
