<svg width="101" height="64" viewBox="0 0 101 64" fill="none" xmlns="http://www.w3.org/2000/svg">
<path d="M64.0251 28.6186L61.1859 28.0917C60.6629 27.9947 60.3283 27.5713 60.3251 27.0346C60.3121 25.6123 60.1821 24.2319 59.9417 22.8968C59.8508 22.3829 60.0944 21.8107 60.5719 21.4583L63.187 19.5414C63.827 19.0726 64.1063 18.2774 63.8529 17.6503L62.521 14.3465C62.2677 13.7193 61.5562 13.4413 60.8253 13.687L57.8334 14.6924C57.2877 14.8766 56.7485 14.715 56.4658 14.3012C55.7252 13.2151 54.887 12.2032 53.9612 11.2755C53.6071 10.9231 53.5454 10.3574 53.8215 9.8434L55.3288 7.04394C55.6959 6.36185 55.5498 5.60217 54.9845 5.24011L52.0024 3.33286C51.4371 2.9708 50.612 3.1098 50.0435 3.66258L47.7176 5.92867C47.2888 6.34568 46.691 6.48793 46.207 6.30367C44.9498 5.82847 43.6277 5.45348 42.2471 5.19164C41.7273 5.09142 41.3732 4.6841 41.37 4.14748L41.357 1.23164C41.357 0.520456 40.821 0 40.0933 0H36.2601C35.5324 0 34.8177 0.517223 34.5611 1.23164L33.5151 4.14748C33.3234 4.6841 32.8231 5.09142 32.2676 5.19164C30.7928 5.45348 29.3375 5.82847 27.9146 6.30367C27.3656 6.4847 26.8166 6.34568 26.5373 5.92867L25.0137 3.66258C24.6401 3.1098 23.867 2.9708 23.1718 3.33286L19.514 5.24011C18.8188 5.60217 18.4062 6.36185 18.5297 7.04394L19.0429 9.8434C19.1371 10.3542 18.874 10.9199 18.3965 11.2755C17.1393 12.2032 15.9439 13.2151 14.8199 14.3012C14.3911 14.715 13.7933 14.8766 13.3126 14.6924L10.678 13.687C10.0381 13.4413 9.22593 13.7193 8.7484 14.3465L6.24704 17.6503C5.77276 18.2774 5.76951 19.0726 6.24379 19.5414L8.17991 21.4583C8.534 21.8107 8.57623 22.3829 8.30336 22.8968C7.59193 24.2319 6.96821 25.6123 6.45495 27.0346C6.26004 27.5713 5.77601 27.9947 5.22052 28.0917L2.19615 28.6186C1.45874 28.7479 0.825265 29.3686 0.698573 30.0927L0.0228959 33.9073C-0.103796 34.6314 0.305517 35.252 0.99745 35.3813L3.83665 35.9083C4.35966 36.0052 4.69424 36.4287 4.69749 36.9653C4.71049 38.3877 4.84043 39.7681 5.08082 41.1031C5.17177 41.6171 4.92815 42.1893 4.45062 42.5417L1.83555 44.4586C1.1956 44.9274 0.916227 45.7226 1.16961 46.3497L2.50151 49.6535C2.7549 50.2806 3.46631 50.5586 4.19723 50.313L7.18912 49.3076C7.73487 49.1233 8.27411 49.285 8.55673 49.6988C9.29739 50.7849 10.1355 51.7967 11.0613 52.7245C11.4154 53.0769 11.4771 53.6426 11.201 54.1566L9.69371 56.956C9.32663 57.6381 9.47281 58.3978 10.0381 58.7599L13.0202 60.6671C13.5854 61.0292 14.4106 60.8902 14.979 60.3374L17.305 58.0713C17.7338 57.6543 18.3315 57.5121 18.8155 57.6963C20.0727 58.1715 21.3949 58.5465 22.7755 58.8084C23.2952 58.9086 23.6493 59.3159 23.6526 59.8525L23.6656 62.7684C23.6656 63.4795 24.2016 64 24.9292 64H28.7625C29.4902 64 30.2048 63.4828 30.4615 62.7684L31.5075 59.8525C31.6992 59.3159 32.1994 58.9086 32.7549 58.8084C34.5448 58.4883 36.3055 58.0067 38.0208 57.3795L40.0121 60.3374C40.3857 60.8902 41.1588 61.0292 41.854 60.6671L45.5118 58.7599C46.207 58.3978 46.6196 57.6381 46.4961 56.956L45.9829 54.1566C45.8887 53.6458 46.1518 53.0801 46.6293 52.7245C47.8865 51.7967 49.082 50.7849 50.2059 49.6988C50.6347 49.285 51.2325 49.1233 51.7133 49.3076L54.3478 50.313C54.9878 50.5586 55.7999 50.2806 56.2774 49.6535L58.7788 46.3497C59.2531 45.7226 59.2563 44.9274 58.782 44.4586L56.8459 42.5417C56.4918 42.1893 56.4496 41.6171 56.7225 41.1031C57.4339 39.7681 58.0576 38.3877 58.5709 36.9653C58.7658 36.4287 59.2498 36.0052 59.8053 35.9083L62.8297 35.3813C63.5671 35.252 64.2005 34.6314 64.3272 33.9073L65.0029 30.0927C65.1296 29.3686 64.7203 28.7479 64.0284 28.6186H64.0251ZM30.6661 51.4347C18.4387 52.3916 10.1745 42.4091 13.2638 30.4095C15.6937 20.967 24.7376 13.3153 34.3597 12.5621C46.5871 11.6052 54.8513 21.5876 51.762 33.5872C49.3321 43.0298 40.2882 50.6815 30.6661 51.4347Z" fill="#CDCDCD"/>
<path d="M38.4334 41.5266C37.8844 41.5266 37.3711 41.2809 37.0332 40.851C36.6921 40.4178 36.5687 39.8618 36.6986 39.3251C37.0267 37.9739 37.2769 36.5418 37.4458 35.0645C37.6504 33.2865 37.7771 31.3987 37.8194 29.4526C37.8421 28.1887 37.8324 26.7113 37.7934 25.0659C37.7804 24.581 37.9623 24.1252 38.3034 23.7793C38.6412 23.4334 39.096 23.2427 39.5801 23.2427H42.533C43.5108 23.2427 44.3132 24.0315 44.3229 25.0013C44.3392 26.4721 44.3229 27.9785 44.2742 29.4753C44.2092 31.6314 44.089 33.5258 43.9168 35.1033C43.6959 36.9362 43.3873 38.6398 43.0008 40.1818C42.8026 40.9706 42.0879 41.5233 41.266 41.5233H38.4334V41.5266ZM45.2292 41.5072C44.6705 41.5072 44.154 41.255 43.8129 40.8122C43.4718 40.3693 43.3581 39.8068 43.5043 39.2702L44.2059 36.6679C44.4139 35.8921 45.1253 35.349 45.9309 35.349H47.9677C49.3354 35.349 50.4464 35.1195 51.2682 34.6669C51.5541 34.5085 51.7977 34.321 52.0024 34.1012H46.7073C46.1486 34.1012 45.6321 33.849 45.291 33.4062C44.9499 32.9633 44.8394 32.4008 44.9823 31.8642L45.632 29.4462C45.7587 28.9807 46.0641 28.5992 46.4637 28.3665C46.2265 27.9591 46.1616 27.4807 46.285 27.0184L46.9412 24.581C47.1491 23.8052 47.8605 23.2621 48.6662 23.2621H58.9152C59.1686 23.2621 59.4123 23.3138 59.6332 23.4108C59.9385 22.8451 60.5395 22.4766 61.2054 22.4766H61.7544C62.141 22.4766 62.5048 22.5962 62.8069 22.816C63.1058 22.6026 63.4697 22.4766 63.8562 22.4766H64.441C64.9997 22.4766 65.5162 22.7287 65.8573 23.1716C66.1984 23.6145 66.3121 24.1769 66.1659 24.7136L65.6819 26.5109C65.474 27.2867 64.7626 27.8298 63.9569 27.8298H63.3722C62.9856 27.8298 62.6218 27.7102 62.3197 27.4904C62.0208 27.7038 61.657 27.8298 61.2704 27.8298H60.7247C60.4875 27.8298 60.2601 27.7846 60.049 27.7005L59.984 27.9397C59.9677 28.0044 59.945 28.0658 59.9223 28.1272H62.5113C63.0701 28.1272 63.5866 28.3794 63.9277 28.8223C64.2688 29.2651 64.3825 29.8276 64.2363 30.3642L64.0836 30.9364C64.298 30.7554 64.5579 30.6228 64.8438 30.555L70.5936 29.2328C72.0457 28.8966 73.1762 28.4893 73.9461 28.0173C74.5276 27.6617 74.9401 27.2318 75.2098 26.6984C75.5119 26.1004 76.1194 25.7286 76.7983 25.7286H79.0106C79.6375 25.7286 80.206 26.0454 80.5341 26.5788C80.651 26.7663 80.729 26.9699 80.768 27.1801L81.4047 24.8041C81.6126 24.0282 82.324 23.4851 83.1296 23.4851H92.6023C92.8362 23.4851 93.0636 23.5304 93.2747 23.6145C93.5639 22.997 94.1908 22.5865 94.8958 22.5865H95.4318C95.8151 22.5865 96.1757 22.7061 96.4778 22.9194C96.7734 22.7061 97.1373 22.5865 97.5206 22.5865H98.0761C98.6348 22.5865 99.1513 22.8386 99.4924 23.2815C99.8335 23.7244 99.9472 24.2836 99.801 24.8235L99.3332 26.5723C99.1253 27.3482 98.4139 27.8913 97.6083 27.8913H97.2672C97.2997 28.1466 97.2769 28.4117 97.1925 28.6606C96.8936 29.5722 96.5233 30.4418 96.0847 31.2467C95.6852 31.9838 95.2109 32.7079 94.6781 33.3997L95.8216 34.3598C96.3479 34.8027 96.5752 35.5138 96.3966 36.1765L95.4513 39.7033C95.2434 40.4792 94.5319 41.0223 93.723 41.0223C93.3007 41.0223 92.8882 40.8703 92.5633 40.5956L89.4773 37.9707C87.931 38.9017 86.2775 39.6549 84.5622 40.2173C82.6651 40.8348 80.7453 41.1904 78.8481 41.2776H78.7637C78.2017 41.2776 77.6852 41.0255 77.3408 40.5826C76.9997 40.1398 76.886 39.5805 77.0322 39.0407L77.7111 36.5127C77.9158 35.7466 78.5947 35.2164 79.3971 35.1938C81.905 35.1259 84.1854 34.4923 86.1735 33.3092C87.8075 32.3361 89.0744 31.0884 89.945 29.5981H82.4507C81.892 29.5981 81.3755 29.3459 81.0344 28.9031C80.8557 28.6736 80.7387 28.4085 80.69 28.1305C80.664 28.1951 80.6348 28.263 80.6023 28.3244C80.05 29.3944 79.3549 30.3287 78.5362 31.098C77.5974 31.9805 76.4312 32.7338 75.0668 33.335L73.2412 40.1107C73.0333 40.8865 72.3218 41.4296 71.5162 41.4296H69.5184C68.9596 41.4296 68.4431 41.1774 68.102 40.7346C67.7609 40.2917 67.6505 39.7292 67.7934 39.1926L68.8914 35.1098L65.1264 35.9664C64.9932 35.9955 64.86 36.0117 64.7236 36.0117C64.1746 36.0117 63.6451 35.7498 63.3072 35.3134C62.9661 34.8706 62.8557 34.3113 62.9986 33.7714L63.0278 33.6648C62.7127 33.9331 62.3034 34.0947 61.8649 34.0947H58.9835C58.2688 36.1798 56.9369 37.9028 55.0105 39.2185C52.7983 40.7346 50.076 41.5007 46.9152 41.5007H45.226L45.2292 41.5072ZM25.8518 41.5072C25.2281 41.5072 24.6596 41.1904 24.3315 40.6635C24.0034 40.1333 23.9775 39.4835 24.2568 38.9275C25.4913 36.4933 26.6542 34.0333 27.7133 31.6217C29.0029 28.6832 29.919 26.2879 30.4388 24.5034C30.6597 23.7502 31.3646 23.2265 32.154 23.2265H35.1004C35.6624 23.2265 36.1984 23.4949 36.5362 23.941C36.8741 24.3935 36.978 24.9657 36.8156 25.5056C36.2373 27.4387 35.3213 29.8826 34.0998 32.7693C32.7712 35.9018 31.5367 38.5299 30.4258 40.5762C30.1139 41.1483 29.5129 41.5072 28.8535 41.5072H25.8518Z" fill="#B81122"/>
<path d="M64.4442 23.6047C64.8697 23.6047 65.1816 24.0087 65.0711 24.4193L64.5871 26.2166C64.5124 26.4979 64.2525 26.6951 63.9601 26.6951H63.3754C62.9499 26.6951 62.638 26.291 62.7484 25.8805L63.2325 24.0831C63.3072 23.8019 63.5671 23.6047 63.8594 23.6047H64.4442ZM61.7609 23.6047C62.1865 23.6047 62.4983 24.0087 62.3879 24.4193L61.9038 26.2166C61.8291 26.4979 61.5692 26.6951 61.2769 26.6951H60.7279C60.3023 26.6951 59.9905 26.291 60.1009 25.8805L60.5849 24.0831C60.6597 23.8019 60.9195 23.6047 61.2119 23.6047H61.7609ZM98.076 23.7178C98.5016 23.7178 98.8135 24.1219 98.703 24.5324L98.2352 26.2813C98.1605 26.5658 97.9006 26.7597 97.6083 26.7597H97.0527C96.6272 26.7597 96.3154 26.3556 96.4258 25.9451L96.8936 24.1962C96.9683 23.9118 97.2282 23.7178 97.5206 23.7178H98.076ZM95.435 23.7178C95.8605 23.7178 96.1724 24.1219 96.062 24.5324L95.5942 26.2813C95.5195 26.5658 95.2596 26.7597 94.9672 26.7597H94.4312C94.0057 26.7597 93.6938 26.3556 93.8042 25.9451L94.272 24.1962C94.3468 23.9118 94.6066 23.7178 94.899 23.7178H95.435ZM35.1003 24.3546C35.5324 24.3546 35.8475 24.7684 35.7241 25.1822C35.1523 27.0862 34.2622 29.4687 33.0505 32.3296C31.7284 35.4458 30.5199 38.0158 29.4219 40.0395C29.3083 40.2496 29.0906 40.3756 28.8502 40.3756H25.8486C25.3646 40.3756 25.0527 39.8681 25.2703 39.4349C26.521 36.9717 27.6807 34.5148 28.7528 32.071C30.0684 29.0743 30.9942 26.6563 31.527 24.8137C31.6082 24.5389 31.8616 24.3514 32.1507 24.3514H35.0971M42.5362 24.374C42.8935 24.374 43.1827 24.6585 43.1892 25.0141C43.2054 26.4752 43.1891 27.9526 43.1404 29.4396C43.0787 31.5861 42.9585 33.4319 42.7896 34.9803C42.5752 36.7615 42.2796 38.4037 41.8995 39.9101C41.828 40.1978 41.5649 40.395 41.2693 40.395H38.4366C38.0143 40.395 37.7089 40.0007 37.8064 39.5901C38.1475 38.1871 38.4041 36.7195 38.5795 35.1937C38.7874 33.3705 38.9141 31.4665 38.9596 29.4784C38.9823 28.1853 38.9758 26.7048 38.9368 25.0399C38.9271 24.6779 39.2195 24.3773 39.5865 24.3773H42.5395M58.9217 24.3934C59.3473 24.3934 59.6591 24.7975 59.5487 25.2081L58.8925 27.6455C58.8177 27.9267 58.5579 28.1239 58.2655 28.1239H48.0164C47.5909 28.1239 47.279 27.7198 47.3895 27.3093L48.0457 24.8718C48.1204 24.5906 48.3803 24.3934 48.6726 24.3934H58.9217ZM92.6088 24.6165C93.0344 24.6165 93.3462 25.0206 93.2357 25.4311L92.9109 26.6498C92.8004 27.0603 93.1123 27.4644 93.5379 27.4644H95.4935C95.9353 27.4644 96.2504 27.8944 96.1139 28.3146C95.8346 29.168 95.4935 29.9665 95.0874 30.7132C94.6456 31.5311 94.1129 32.3167 93.4956 33.0699C93.2747 33.3414 93.317 33.739 93.5866 33.9653L95.0939 35.2293C95.2856 35.3909 95.3668 35.6495 95.3018 35.892L94.3565 39.4188C94.2753 39.7194 94.0056 39.9005 93.7263 39.9005C93.5801 39.9005 93.4307 39.8519 93.3072 39.7453L89.9482 36.8876C89.8281 36.7842 89.6786 36.7357 89.5292 36.7357C89.409 36.7357 89.2888 36.768 89.1784 36.8359C87.6158 37.8057 85.9591 38.5783 84.2082 39.1537C82.402 39.7421 80.599 40.075 78.7961 40.1591C78.7864 40.1591 78.7766 40.1591 78.7636 40.1591C78.3381 40.1591 78.0197 39.7582 78.1334 39.3444L78.8123 36.8165C78.8871 36.5385 79.1404 36.3478 79.4296 36.3381C82.1486 36.2637 84.5947 35.5849 86.7615 34.2918C88.8438 33.0505 90.3706 31.4244 91.3386 29.4137C91.5465 28.9806 91.2412 28.4763 90.7571 28.4763H82.4539C82.0284 28.4763 81.7165 28.0722 81.827 27.6616L82.5124 25.1014C82.5871 24.8169 82.847 24.6229 83.1394 24.6229H92.6121M79.017 26.8599C79.5075 26.8599 79.8161 27.3772 79.592 27.8103C79.0982 28.7704 78.4842 29.5915 77.7566 30.2768C76.8632 31.1173 75.7458 31.822 74.4106 32.3878C74.2255 32.4653 74.0858 32.6205 74.0338 32.8145L72.1464 39.8196C72.0717 40.1009 71.8118 40.2981 71.5194 40.2981H69.5216C69.0961 40.2981 68.7842 39.894 68.8946 39.4834L70.2038 34.6248C70.3175 34.2045 69.9926 33.8101 69.5801 33.8101C69.5314 33.8101 69.4826 33.8166 69.4306 33.8263L64.8762 34.864C64.8275 34.8769 64.7755 34.8801 64.7268 34.8801C64.3142 34.8801 63.9894 34.4857 64.1031 34.0655L64.6294 32.113C64.6911 31.8835 64.8762 31.7057 65.1101 31.6507L70.86 30.3286C72.442 29.9633 73.67 29.5107 74.5503 28.9741C75.3105 28.5086 75.8725 27.917 76.2363 27.1994C76.3435 26.986 76.5676 26.8535 76.808 26.8535H79.0202M62.5178 29.2553C62.9466 29.2553 63.2552 29.6594 63.1448 30.07L62.4918 32.488C62.4171 32.7692 62.1572 32.9664 61.8649 32.9664H58.1356L58.0901 33.1313C57.5151 35.2648 56.2742 36.9846 54.3673 38.2873C52.3402 39.6774 49.8551 40.3724 46.9152 40.3724H45.226C44.8004 40.3724 44.4885 39.9683 44.599 39.5578L45.3007 36.9555C45.3754 36.6743 45.6353 36.4771 45.9276 36.4771H47.9645C49.5335 36.4771 50.8167 36.2023 51.814 35.6527C52.8145 35.1032 53.4642 34.2627 53.7695 33.128L53.815 32.9632H46.704C46.2785 32.9632 45.9666 32.5591 46.0771 32.1485L46.73 29.7305C46.8047 29.4493 47.0646 29.2521 47.357 29.2521H62.5146M64.4442 21.3418H63.8594C63.4956 21.3418 63.1415 21.4097 62.8134 21.5358C62.4821 21.4097 62.128 21.3418 61.7609 21.3418H61.2119C60.4453 21.3418 59.7306 21.6424 59.2011 22.1403C59.1069 22.1306 59.0159 22.1273 58.9217 22.1273H48.6726C47.3505 22.1273 46.1908 23.0131 45.8497 24.2835L45.4696 25.6994C45.4696 25.4634 45.4696 25.2242 45.4631 24.9882C45.4469 23.401 44.1345 22.1112 42.5362 22.1112H39.5833C38.8004 22.1112 38.0402 22.4312 37.4912 22.9872C37.4425 23.0357 37.397 23.0874 37.3516 23.1424C36.7993 22.4829 35.971 22.095 35.1036 22.095H32.1572C30.8643 22.095 29.7111 22.9549 29.3505 24.1898C28.8437 25.9257 27.9439 28.2758 26.6737 31.1691C25.6212 33.5677 24.468 36.0051 23.2465 38.4167C22.7852 39.3283 22.8307 40.3886 23.3667 41.2549C23.9027 42.1213 24.8318 42.6385 25.8551 42.6385H28.8567C29.932 42.6385 30.9195 42.0534 31.4295 41.1127C32.5568 39.0341 33.8074 36.3769 35.1523 33.2056C35.7338 31.8318 36.2471 30.5581 36.6889 29.3846C36.6889 29.4008 36.6889 29.417 36.6889 29.4331C36.6466 31.3339 36.5232 33.1862 36.3218 34.9319C36.1594 36.3607 35.9157 37.7507 35.5974 39.0567C35.3862 39.9328 35.5844 40.8411 36.1431 41.5491C36.6986 42.2538 37.5367 42.6547 38.4366 42.6547H41.2693C42.0327 42.6547 42.7376 42.3637 43.2639 41.8756C43.7966 42.3637 44.4918 42.6353 45.2357 42.6353H46.9249C50.3196 42.6353 53.2628 41.798 55.6667 40.1526C57.5573 38.8595 58.9347 37.2077 59.7761 35.2293H61.8713C61.9071 35.2293 61.9428 35.2293 61.9785 35.2293C62.0793 35.504 62.2222 35.7659 62.4106 36.0083C62.9596 36.7227 63.827 37.1495 64.7268 37.1495C64.9477 37.1495 65.1686 37.1236 65.383 37.0751L67.3061 36.6355L66.6954 38.9016C66.4583 39.7808 66.6434 40.7021 67.1989 41.4263C67.7577 42.1504 68.6023 42.5642 69.5184 42.5642H71.5162C72.8383 42.5642 73.9981 41.6784 74.3391 40.408L76.0251 34.1431C77.2953 33.5289 78.3998 32.7854 79.3159 31.9255C79.8584 31.418 80.3489 30.8458 80.7875 30.2187C81.2682 30.5516 81.8432 30.7326 82.4507 30.7326H87.6678C87.0798 31.3307 86.3912 31.8673 85.5888 32.3425C83.7469 33.4416 81.71 34.0041 79.3646 34.0687C78.0749 34.1043 76.9412 34.9901 76.6099 36.2249L75.9309 38.7528C75.6938 39.6321 75.8789 40.5534 76.4377 41.2743C76.9964 41.9984 77.8443 42.4122 78.7604 42.4122C78.8059 42.4122 78.8513 42.4122 78.8968 42.4122C80.8946 42.3217 82.9185 41.9467 84.9098 41.297C86.4496 40.7927 87.9374 40.1397 89.3505 39.3541L91.8259 41.4586C92.3554 41.9079 93.0278 42.1568 93.723 42.1568C95.0452 42.1568 96.2082 41.2679 96.5493 39.9974L97.4945 36.4706C97.7837 35.3877 97.4166 34.2175 96.5525 33.4966L96.2146 33.2121C96.533 32.7466 96.8221 32.2682 97.0852 31.7865C97.553 30.9234 97.9526 29.9891 98.2709 29.0129C98.2774 28.9903 98.2872 28.9644 98.2937 28.9418C99.317 28.6961 100.152 27.9105 100.431 26.8632L100.899 25.1143C101.136 24.235 100.951 23.3137 100.392 22.5928C99.8335 21.8687 98.9889 21.455 98.0728 21.455H97.5173C97.1535 21.455 96.8026 21.5228 96.4778 21.6457C96.1497 21.5196 95.7956 21.455 95.4317 21.455H94.8957C94.0739 21.455 93.317 21.7976 92.7777 22.3601C92.7193 22.3569 92.6608 22.3536 92.6056 22.3536H83.1329C81.8107 22.3536 80.6478 23.2426 80.3067 24.513L80.2157 24.8525C79.8454 24.6876 79.4361 24.5971 79.0138 24.5971H76.8015C75.6905 24.5971 74.69 25.208 74.1962 26.194C74.0273 26.5302 73.7512 26.8114 73.3581 27.0539C72.9001 27.3351 72.0035 27.7489 70.3402 28.1336L65.3733 29.2747C65.3278 29.0775 65.2628 28.8836 65.1783 28.6961C65.9515 28.3437 66.5525 27.6616 66.7831 26.805L67.2671 25.0076C67.5043 24.1284 67.3191 23.207 66.7636 22.4829C66.2049 21.7588 65.3603 21.345 64.4442 21.345V21.3418Z" fill="white"/>
</svg>
