<svg width="40" height="40" viewBox="0 0 40 40" fill="none" xmlns="http://www.w3.org/2000/svg">
<g clip-path="url(#clip0_5020_380)">
<path d="M20 40C31.0457 40 40 31.0457 40 20C40 8.9543 31.0457 0 20 0C8.9543 0 0 8.9543 0 20C0 31.0457 8.9543 40 20 40Z" fill="url(#paint0_linear_5020_380)"/>
<path d="M25.376 8H14.622C12.8662 8.00265 11.1831 8.70145 9.94176 9.94318C8.70041 11.1849 8.00212 12.8682 8 14.624V25.376C8.00212 27.1318 8.70041 28.8151 9.94176 30.0568C11.1831 31.2985 12.8662 31.9974 14.622 32H25.376C27.1322 31.9979 28.8158 31.2993 30.0575 30.0576C31.2993 28.8158 31.9979 27.1322 32 25.376V14.624C31.9979 12.8678 31.2993 11.1843 30.0575 9.94247C28.8158 8.70069 27.1322 8.00212 25.376 8ZM29.87 25.376C29.87 26.5684 29.3967 27.7121 28.5541 28.5559C27.7115 29.3996 26.5684 29.8744 25.376 29.876H14.622C13.4311 29.8723 12.2904 29.3965 11.4498 28.5529C10.6092 27.7093 10.1375 26.5669 10.138 25.376V14.624C10.1391 13.4328 10.6126 12.2907 11.4547 11.4482C12.2969 10.6056 13.4388 10.1316 14.63 10.13H25.384C26.5754 10.1316 27.7175 10.6056 28.56 11.448C29.4024 12.2905 29.8764 13.4326 29.878 14.624V25.376H29.87Z" fill="white"/>
<path d="M20 13.816C18.7769 13.816 17.5813 14.1787 16.5644 14.8582C15.5474 15.5377 14.7548 16.5035 14.2867 17.6335C13.8187 18.7635 13.6962 20.0069 13.9348 21.2065C14.1734 22.406 14.7624 23.5079 15.6273 24.3727C16.4921 25.2376 17.594 25.8266 18.7936 26.0652C19.9931 26.3038 21.2365 26.1813 22.3665 25.7133C23.4965 25.2452 24.4623 24.4526 25.1418 23.4356C25.8213 22.4187 26.184 21.2231 26.184 20C26.1798 18.3612 25.5269 16.7907 24.3681 15.6319C23.2093 14.4731 21.6388 13.8202 20 13.816ZM20 24.054C19.1982 24.054 18.4144 23.8162 17.7477 23.3708C17.081 22.9253 16.5614 22.2922 16.2546 21.5514C15.9477 20.8106 15.8675 19.9955 16.0239 19.2091C16.1803 18.4227 16.5664 17.7004 17.1334 17.1334C17.7003 16.5664 18.4227 16.1803 19.2091 16.0239C19.9955 15.8675 20.8106 15.9478 21.5514 16.2546C22.2922 16.5614 22.9253 17.081 23.3708 17.7477C23.8162 18.4144 24.054 19.1982 24.054 20C24.0529 21.0749 23.6255 22.1054 22.8654 22.8654C22.1054 23.6255 21.0749 24.053 20 24.054Z" fill="white"/>
<path d="M26.444 12.01C26.0821 12.0096 25.7312 12.1347 25.4512 12.364C25.1712 12.5933 24.9794 12.9127 24.9085 13.2676C24.8376 13.6225 24.8919 13.991 25.0623 14.3103C25.2327 14.6296 25.5086 14.8799 25.8429 15.0186C26.1772 15.1573 26.5492 15.1758 26.8956 15.0708C27.242 14.9659 27.5412 14.7441 27.7424 14.4432C27.9435 14.1424 28.0341 13.781 27.9987 13.4208C27.9632 13.0607 27.8039 12.7239 27.548 12.468C27.2549 12.1756 26.858 12.0109 26.444 12.01Z" fill="white"/>
</g>
<defs>
<linearGradient id="paint0_linear_5020_380" x1="0" y1="40" x2="40" y2="0" gradientUnits="userSpaceOnUse">
<stop stop-color="#FEBE1D"/>
<stop offset="0.502" stop-color="#F00012"/>
<stop offset="1" stop-color="#C30F96"/>
</linearGradient>
<clipPath id="clip0_5020_380">
<rect width="40" height="40" fill="white"/>
</clipPath>
</defs>
</svg>
