<svg width="40" height="40" viewBox="0 0 40 40" fill="none" xmlns="http://www.w3.org/2000/svg">
<path d="M27.168 4H12.8293C10.4883 4.00353 8.24414 4.93527 6.58901 6.5909C4.93388 8.24654 4.00282 10.4909 4 12.832V27.168C4.00282 29.5091 4.93388 31.7535 6.58901 33.4091C8.24414 35.0647 10.4883 35.9965 12.8293 36H27.168C29.5095 35.9972 31.7543 35.0658 33.4101 33.4101C35.0658 31.7544 35.9972 29.5095 36 27.168V12.832C35.9972 10.4905 35.0658 8.24568 33.4101 6.58997C31.7543 4.93426 29.5095 4.00282 27.168 4ZM33.16 27.168C33.16 28.7579 32.529 30.2828 31.4055 31.4078C30.282 32.5328 28.7579 33.1659 27.168 33.168H12.8293C11.2415 33.1631 9.72047 32.5287 8.59971 31.4039C7.47895 30.2791 6.84995 28.7558 6.85067 27.168V12.832C6.85208 11.2437 7.48347 9.72087 8.6063 8.59753C9.72914 7.4742 11.2517 6.84212 12.84 6.84001H27.1787C28.7672 6.84212 30.2901 7.47411 31.4133 8.59737C32.5366 9.72063 33.1686 11.2435 33.1707 12.832V27.168H33.16Z" fill="white"/>
<path d="M20 11.7547C18.3692 11.7547 16.7751 12.2382 15.4191 13.1442C14.0632 14.0503 13.0064 15.338 12.3823 16.8446C11.7582 18.3513 11.5949 20.0092 11.9131 21.6086C12.2312 23.208 13.0165 24.6772 14.1697 25.8303C15.3228 26.9835 16.792 27.7688 18.3914 28.0869C19.9908 28.4051 21.6487 28.2418 23.1553 27.6177C24.662 26.9936 25.9497 25.9368 26.8557 24.5809C27.7618 23.2249 28.2453 21.6308 28.2453 20C28.2397 17.8149 27.3692 15.721 25.8241 14.1759C24.279 12.6308 22.1851 11.7603 20 11.7547ZM20 25.4054C18.9309 25.4054 17.8859 25.0883 16.997 24.4944C16.1081 23.9004 15.4152 23.0562 15.0061 22.0685C14.597 21.0808 14.49 19.994 14.6985 18.9455C14.9071 17.8969 15.4219 16.9338 16.1778 16.1779C16.9338 15.4219 17.8969 14.9071 18.9455 14.6985C19.994 14.49 21.0808 14.597 22.0685 15.0061C23.0562 15.4153 23.9004 16.108 24.4944 16.9969C25.0883 17.8859 25.4053 18.9309 25.4053 20C25.4039 21.4332 24.834 22.8072 23.8206 23.8206C22.8072 24.834 21.4331 25.4039 20 25.4054Z" fill="white"/>
<path d="M28.592 9.34668C28.1094 9.34612 27.6416 9.51293 27.2683 9.81869C26.8949 10.1244 26.6392 10.5502 26.5447 11.0234C26.4501 11.4966 26.5226 11.988 26.7498 12.4137C26.977 12.8395 27.3448 13.1732 27.7905 13.3582C28.2362 13.5431 28.7323 13.5677 29.1941 13.4278C29.656 13.2879 30.055 12.9922 30.3232 12.591C30.5914 12.1898 30.7121 11.708 30.6649 11.2278C30.6176 10.7475 30.4053 10.2986 30.064 9.95736C29.6732 9.56744 29.144 9.34791 28.592 9.34668Z" fill="white"/>
</svg>
