<svg width="32" height="32" viewBox="0 0 32 32" fill="none" xmlns="http://www.w3.org/2000/svg">
<path d="M31 14.0895C31 7.37313 24.2836 2 16 2C7.71642 2 1 7.37313 1 14.0895C1 20.1343 6.37314 25.0597 13.5373 25.9552C13.9851 25.9552 14.6567 26.1791 14.8806 26.6269C15.1045 27.0746 14.8806 27.5224 14.8806 27.9701C14.8806 27.9701 14.6567 29.0895 14.6567 29.3134C14.6567 29.7612 14.4328 30.8806 16 30.209C17.5672 29.5373 24.5075 25.0597 27.6418 21.4776C29.8806 19.2388 31 16.7761 31 14.0895Z" fill="white"/>
<path d="M26.0743 17.8954C26.2982 17.8954 26.2982 17.6715 26.2982 17.6715V16.5521C26.2982 16.3282 26.0743 16.3282 26.0743 16.3282H23.1638V15.2088H26.0743C26.2982 15.2088 26.2982 14.9849 26.2982 14.9849V13.8655C26.2982 13.6416 26.0743 13.6416 26.0743 13.6416H23.1638V12.5222H26.0743C26.2982 12.5222 26.2982 12.2984 26.2982 12.2984V11.179C26.2982 10.9551 26.0743 10.9551 26.0743 10.9551H21.8206C21.5967 10.9551 21.5967 10.9551 21.5967 11.179V17.6715C21.5967 17.8954 21.8206 17.8954 21.8206 17.8954H26.0743Z" fill="#4CC764"/>
<path d="M10.4029 17.8954C10.6268 17.8954 10.6268 17.6715 10.6268 17.6715V16.5521C10.6268 16.3282 10.4029 16.3282 10.4029 16.3282H7.49246V11.179C7.49246 10.9551 7.26857 10.9551 7.26857 10.9551H6.14917C5.92529 10.9551 5.92529 11.179 5.92529 11.179V17.6715C5.92529 17.8954 6.14917 17.8954 6.14917 17.8954H10.4029Z" fill="#4CC764"/>
<path d="M13.0899 10.9551H11.9705C11.7466 10.9551 11.7466 11.179 11.7466 11.179V17.6715C11.7466 17.8954 11.9705 17.8954 11.9705 17.8954H13.0899C13.3138 17.8954 13.3137 17.6715 13.3137 17.6715V11.179C13.3137 10.9551 13.0899 10.9551 13.0899 10.9551Z" fill="#4CC764"/>
<path d="M20.2542 10.9551H19.1348C18.911 10.9551 18.911 11.179 18.911 11.179V14.9849L16.0005 10.9551H14.8811C14.6572 10.9551 14.6572 11.179 14.6572 11.179V17.6715C14.6572 17.8954 14.8811 17.8954 14.8811 17.8954H16.0005C16.2244 17.8954 16.2244 17.6715 16.2244 17.6715V13.8655L19.1348 17.8954H20.2542C20.4781 17.8954 20.4781 17.6715 20.4781 17.6715V11.179C20.4781 10.9551 20.4781 10.9551 20.2542 10.9551Z" fill="#4CC764"/>
</svg>
