<svg width="68" height="54" viewBox="0 0 68 54" fill="none" xmlns="http://www.w3.org/2000/svg">
<path d="M7.33366 53.6666C5.50033 53.6666 3.93088 53.0138 2.62533 51.7083C1.31977 50.4027 0.666992 48.8333 0.666992 46.9999V6.99992C0.666992 5.16659 1.31977 3.59714 2.62533 2.29159C3.93088 0.98603 5.50033 0.333252 7.33366 0.333252H60.667C62.5003 0.333252 64.0698 0.98603 65.3753 2.29159C66.6809 3.59714 67.3337 5.16659 67.3337 6.99992V46.9999C67.3337 48.8333 66.6809 50.4027 65.3753 51.7083C64.0698 53.0138 62.5003 53.6666 60.667 53.6666H7.33366ZM34.0003 30.3333L60.667 13.6666V6.99992L34.0003 23.6666L7.33366 6.99992V13.6666L34.0003 30.3333Z" fill="#0295F8"/>
</svg>
