<svg width="24" height="25" viewBox="0 0 24 25" fill="none" xmlns="http://www.w3.org/2000/svg">
<path d="M21.3333 12.9326C21.3333 10.3326 20.4278 8.12706 18.6167 6.31595C16.8056 4.50484 14.6 3.59928 12 3.59928V0.932617C13.6667 0.932617 15.2278 1.24928 16.6833 1.88262C18.1389 2.51595 19.4056 3.37151 20.4833 4.44928C21.5611 5.52706 22.4167 6.79373 23.05 8.24928C23.6833 9.70484 24 11.266 24 12.9326H21.3333ZM16 12.9326C16 11.8215 15.6111 10.8771 14.8333 10.0993C14.0556 9.32151 13.1111 8.93262 12 8.93262V6.26595C13.8444 6.26595 15.4167 6.91595 16.7167 8.21595C18.0167 9.51595 18.6667 11.0882 18.6667 12.9326H16ZM22.6 24.9993C19.8222 24.9993 17.0778 24.3937 14.3667 23.1826C11.6556 21.9715 9.18889 20.2548 6.96667 18.0326C4.74444 15.8104 3.02778 13.3437 1.81667 10.6326C0.605556 7.92151 0 5.17706 0 2.39928C0 1.99928 0.133333 1.66595 0.4 1.39928C0.666667 1.13262 1 0.999284 1.4 0.999284H6.8C7.11111 0.999284 7.38889 1.10484 7.63333 1.31595C7.87778 1.52706 8.02222 1.77706 8.06667 2.06595L8.93333 6.73262C8.97778 7.08817 8.96667 7.38817 8.9 7.63262C8.83333 7.87706 8.71111 8.08817 8.53333 8.26595L5.3 11.5326C5.74444 12.3548 6.27222 13.1493 6.88333 13.916C7.49444 14.6826 8.16667 15.4215 8.9 16.1326C9.58889 16.8215 10.3111 17.4604 11.0667 18.0493C11.8222 18.6382 12.6222 19.1771 13.4667 19.666L16.6 16.5326C16.8 16.3326 17.0611 16.1826 17.3833 16.0826C17.7056 15.9826 18.0222 15.9548 18.3333 15.9993L22.9333 16.9326C23.2444 17.0215 23.5 17.1826 23.7 17.416C23.9 17.6493 24 17.9104 24 18.1993V23.5993C24 23.9993 23.8667 24.3326 23.6 24.5993C23.3333 24.866 23 24.9993 22.6 24.9993Z" fill="white"/>
</svg>
