<svg width="42" height="60" viewBox="0 0 42 60" fill="none" xmlns="http://www.w3.org/2000/svg">
<path d="M40.5662 49.6437C41.0581 49.3388 41.2072 48.6975 40.8994 48.2103L37.8086 43.3131L37.8149 43.1999C38.5067 32.8082 31.6141 24.1516 30.8271 23.1961L30.8049 23.1646C29.6434 21.4044 27.4062 20.7694 25.8226 21.7502C25.4926 21.9545 25.2006 22.2279 24.9595 22.558L24.7405 22.8566L24.4517 22.6271C23.1062 21.5521 21.3132 21.3792 19.9899 22.1996C19.4949 22.5077 19.0919 22.9289 18.7967 23.457L18.6127 23.787L18.2953 23.5795C16.9466 22.6931 15.3695 22.5988 14.1858 23.3312C13.8367 23.5481 13.5289 23.8342 13.275 24.1862L12.9704 24.6074L7.84217 16.4757C6.65532 14.596 4.24036 13.9642 2.45691 15.0675C0.673466 16.1708 0.187941 18.5974 1.37479 20.4771L10.1207 34.339L10.0128 34.5213C10.0033 34.5402 9.99056 34.5559 9.96834 34.5873C9.87314 34.7822 7.62955 39.3903 9.34001 44.2592C10.9172 48.7541 19.5107 52.7115 21.2149 53.4596L21.3132 53.5036L24.4136 58.4166C24.7215 58.9038 25.3688 59.0515 25.8607 58.7466" fill="white"/>
<path d="M31.1285 22.9886L31.1063 22.9572C29.9226 21.1624 27.6442 20.5148 26.0289 21.5144C25.6925 21.7219 25.3974 21.9985 25.1499 22.3348L24.9277 22.6397L24.6326 22.404C23.2617 21.3101 21.437 21.1341 20.0883 21.9702C19.5837 22.2845 19.1744 22.7151 18.8729 23.2495L18.6857 23.5858L18.362 23.3752C16.9879 22.4731 15.3822 22.3757 14.1763 23.1238C13.8209 23.3438 13.5099 23.6361 13.2496 23.9945L12.9386 24.4251L7.71207 16.1425C6.50301 14.2283 4.04361 13.5839 2.22843 14.7092C0.413249 15.8345 -0.0817926 18.3051 1.1241 20.2194L10.0318 34.339L9.92076 34.5245C9.91124 34.5433 9.89854 34.5622 9.87632 34.5905C9.77795 34.7885 7.4931 39.4846 9.2353 44.4415C10.8442 49.0182 19.5964 53.051 21.3323 53.8117L21.4338 53.8557L24.5914 58.8598C24.9023 59.3564 25.5656 59.5073 26.0638 59.1961C26.562 58.8849 26.7175 58.2311 26.4034 57.7376L22.8904 52.1677L22.5794 52.0389C18.6127 50.3761 12.3262 46.7927 11.2536 43.7437C10.3967 41.3045 10.7395 38.8811 11.1742 37.2748L11.3869 36.489L14.2493 41.0279C14.5602 41.5246 15.2235 41.6754 15.7217 41.3643C16.2199 41.0531 16.3754 40.3993 16.0613 39.9058L2.93294 19.0941C2.35855 18.1857 2.55213 16.9975 3.355 16.5009C4.15787 16.0042 5.31933 16.3531 5.89372 17.2615L16.1819 33.5689C16.4929 34.0656 17.1561 34.2164 17.6543 33.9052C18.1525 33.5941 18.308 32.9403 17.9939 32.4468L15.1505 27.9393C14.3572 26.682 14.5888 25.3649 15.306 24.9217C16.0232 24.4785 17.3179 24.8494 18.1113 26.1067L21.2847 31.1392C21.5957 31.6358 22.2589 31.7867 22.7571 31.4755C23.2554 31.1643 23.4108 30.5105 23.0967 30.017L20.8975 26.528C20.266 25.5284 20.412 24.2648 21.2149 23.7681C22.0177 23.2715 23.2173 23.677 23.8583 24.6954L27.1904 29.9761C27.5014 30.4728 28.1646 30.6237 28.6628 30.3125C29.1611 30.0013 29.3166 29.3475 29.0024 28.854L26.9651 25.6258C26.3685 24.6797 26.5811 23.6676 27.1523 23.3124C27.7235 22.9572 28.7358 23.2149 29.3324 24.1611C29.3578 24.2019 29.3895 24.2428 29.4181 24.2805C29.4943 24.3685 36.9739 33.3457 36.0664 43.6526C36.0473 43.8789 36.1013 44.1115 36.225 44.3064L39.5603 49.5934C39.8713 50.09 40.5345 50.2409 41.0327 49.9297C41.5309 49.6185 41.6864 48.9647 41.3723 48.4712L38.2243 43.4828L38.2306 43.3697C38.9351 32.7831 31.9156 23.963 31.1127 22.9949L31.1285 22.9886Z" fill="#424242"/>
<path fill-rule="evenodd" clip-rule="evenodd" d="M13.0883 0.101833C13.5638 0.339581 13.7565 0.917777 13.5188 1.39327L9.02674 10.3774C8.78899 10.8529 8.21079 11.0456 7.7353 10.8078C7.2598 10.5701 7.06707 9.9919 7.30482 9.51641L11.7969 0.532313C12.0346 0.0568183 12.6128 -0.135914 13.0883 0.101833Z" fill="white"/>
<path fill-rule="evenodd" clip-rule="evenodd" d="M3.67352 0.641932C4.20514 0.641932 4.6361 1.07289 4.6361 1.60451V8.9843C4.6361 9.51592 4.20514 9.94689 3.67352 9.94689C3.1419 9.94689 2.71094 9.51592 2.71094 8.9843V1.60451C2.71094 1.07289 3.1419 0.641932 3.67352 0.641932Z" fill="white"/>
<path fill-rule="evenodd" clip-rule="evenodd" d="M18.8678 6.78354C19.1972 7.2008 19.126 7.8061 18.7087 8.13552L12.6124 12.9484C12.1951 13.2778 11.5898 13.2066 11.2604 12.7894C10.931 12.3721 11.0022 11.7668 11.4195 11.4374L17.5158 6.62449C17.9331 6.29507 18.5384 6.36629 18.8678 6.78354Z" fill="white"/>
</svg>
