<svg width="12" height="12" viewBox="0 0 12 12" fill="none" xmlns="http://www.w3.org/2000/svg">
<path fill-rule="evenodd" clip-rule="evenodd" d="M1.97522 2.00083C2.15886 1.98786 2.31824 2.12622 2.3312 2.30986L2.90302 10.41L2.90309 10.411C2.94363 10.9315 3.37786 11.3333 3.90006 11.3333H8.09733C8.61955 11.3333 9.05379 10.9315 9.09431 10.411L9.09438 10.41L9.66619 2.30986C9.67915 2.12622 9.83853 1.98786 10.0222 2.00083C10.2058 2.01379 10.3442 2.17317 10.3312 2.35681L9.75909 10.4612C9.6923 11.3295 8.9682 12 8.09733 12H3.90006C3.02919 12 2.3051 11.3295 2.23831 10.4612L2.23815 10.4591L1.66619 2.35681C1.65323 2.17317 1.79159 2.01379 1.97522 2.00083Z" fill="#222222"/>
<path fill-rule="evenodd" clip-rule="evenodd" d="M0.332031 2.33333C0.332031 2.14924 0.48127 2 0.665365 2H11.332C11.5161 2 11.6654 2.14924 11.6654 2.33333C11.6654 2.51743 11.5161 2.66667 11.332 2.66667H0.665365C0.48127 2.66667 0.332031 2.51743 0.332031 2.33333Z" fill="#222222"/>
<path fill-rule="evenodd" clip-rule="evenodd" d="M5.33203 0.666667C5.14793 0.666667 4.9987 0.815902 4.9987 1V2.33333C4.9987 2.51743 4.84946 2.66667 4.66536 2.66667C4.48127 2.66667 4.33203 2.51743 4.33203 2.33333V1C4.33203 0.447719 4.77973 0 5.33203 0H6.66536C7.21766 0 7.66536 0.447719 7.66536 1V2.33333C7.66536 2.51743 7.51612 2.66667 7.33203 2.66667C7.14793 2.66667 6.9987 2.51743 6.9987 2.33333V1C6.9987 0.815902 6.84946 0.666667 6.66536 0.666667H5.33203Z" fill="#222222"/>
<path fill-rule="evenodd" clip-rule="evenodd" d="M4.66536 4.66667C4.84946 4.66667 4.9987 4.81591 4.9987 5V9C4.9987 9.1841 4.84946 9.33333 4.66536 9.33333C4.48127 9.33333 4.33203 9.1841 4.33203 9V5C4.33203 4.81591 4.48127 4.66667 4.66536 4.66667Z" fill="#222222"/>
<path fill-rule="evenodd" clip-rule="evenodd" d="M7.33203 4.66667C7.51612 4.66667 7.66536 4.81591 7.66536 5V9C7.66536 9.1841 7.51612 9.33333 7.33203 9.33333C7.14793 9.33333 6.9987 9.1841 6.9987 9V5C6.9987 4.81591 7.14793 4.66667 7.33203 4.66667Z" fill="#222222"/>
</svg>
